<svg width="32" height="32" viewBox="0 0 32 32" fill="none" xmlns="http://www.w3.org/2000/svg">
<path d="M30.1667 5.8708V22.715C30.1667 24.0891 29.0475 25.35 27.6733 25.52L27.2342 25.5766C24.9108 25.8883 21.6383 26.8516 19.0033 27.9566C18.0825 28.3391 17.0625 27.645 17.0625 26.6391V6.9333C17.0625 6.40913 17.36 5.92746 17.8275 5.67246C20.42 4.26996 24.3442 3.0233 27.0075 2.79663H27.0925C28.7925 2.79663 30.1667 4.1708 30.1667 5.8708Z" fill="white"/>
<path d="M14.1727 5.67246C11.5802 4.26996 7.656 3.0233 4.99267 2.79663H4.8935C3.1935 2.79663 1.81934 4.1708 1.81934 5.8708V22.715C1.81934 24.0891 2.9385 25.35 4.31267 25.52L4.75184 25.5766C7.07517 25.8883 10.3477 26.8516 12.9827 27.9566C13.9035 28.3391 14.9235 27.645 14.9235 26.6391V6.9333C14.9235 6.39496 14.6402 5.92746 14.1727 5.67246ZM6.0835 9.96496H9.271C9.85184 9.96496 10.3335 10.4466 10.3335 11.0275C10.3335 11.6225 9.85184 12.09 9.271 12.09H6.0835C5.50267 12.09 5.021 11.6225 5.021 11.0275C5.021 10.4466 5.50267 9.96496 6.0835 9.96496ZM10.3335 16.34H6.0835C5.50267 16.34 5.021 15.8725 5.021 15.2775C5.021 14.6966 5.50267 14.215 6.0835 14.215H10.3335C10.9143 14.215 11.396 14.6966 11.396 15.2775C11.396 15.8725 10.9143 16.34 10.3335 16.34Z" fill="white"/>
</svg>
