<svg width="402" height="120" viewBox="0 0 402 120" fill="none" xmlns="http://www.w3.org/2000/svg">
<rect x="12" y="29" width="390" height="91" fill="url(#paint0_linear_140_885)"/>
<path d="M38.2115 93H37.3308C37.2787 92.7467 37.1876 92.5241 37.0574 92.3324C36.9295 92.1406 36.7733 91.9796 36.5886 91.8494C36.4063 91.7169 36.2039 91.6174 35.9814 91.5511C35.7588 91.4848 35.5268 91.4517 35.2853 91.4517C34.845 91.4517 34.4461 91.563 34.0886 91.7855C33.7335 92.008 33.4506 92.3359 33.2399 92.7692C33.0315 93.2024 32.9274 93.7339 32.9274 94.3636C32.9274 94.9934 33.0315 95.5249 33.2399 95.9581C33.4506 96.3913 33.7335 96.7192 34.0886 96.9418C34.4461 97.1643 34.845 97.2756 35.2853 97.2756C35.5268 97.2756 35.7588 97.2424 35.9814 97.1761C36.2039 97.1098 36.4063 97.0116 36.5886 96.8814C36.7733 96.7488 36.9295 96.5866 37.0574 96.3949C37.1876 96.2008 37.2787 95.9782 37.3308 95.7273H38.2115C38.1452 96.099 38.0244 96.4316 37.8493 96.7251C37.6741 97.0187 37.4563 97.2685 37.1958 97.4744C36.9354 97.678 36.6431 97.8331 36.3187 97.9396C35.9967 98.0462 35.6523 98.0994 35.2853 98.0994C34.6651 98.0994 34.1135 97.9479 33.6305 97.6449C33.1475 97.3419 32.7676 96.911 32.4906 96.3523C32.2136 95.7936 32.0751 95.1307 32.0751 94.3636C32.0751 93.5966 32.2136 92.9337 32.4906 92.375C32.7676 91.8163 33.1475 91.3854 33.6305 91.0824C34.1135 90.7794 34.6651 90.6278 35.2853 90.6278C35.6523 90.6278 35.9967 90.6811 36.3187 90.7876C36.6431 90.8942 36.9354 91.0504 37.1958 91.2564C37.4563 91.46 37.6741 91.7086 37.8493 92.0021C38.0244 92.2933 38.1452 92.6259 38.2115 93ZM41.7369 98.1136C41.2444 98.1136 40.8124 97.9964 40.4407 97.7621C40.0714 97.5277 39.7826 97.1998 39.5742 96.7784C39.3683 96.357 39.2653 95.8646 39.2653 95.3011C39.2653 94.733 39.3683 94.237 39.5742 93.8132C39.7826 93.3894 40.0714 93.0604 40.4407 92.826C40.8124 92.5916 41.2444 92.4744 41.7369 92.4744C42.2293 92.4744 42.6602 92.5916 43.0295 92.826C43.4012 93.0604 43.69 93.3894 43.896 93.8132C44.1043 94.237 44.2085 94.733 44.2085 95.3011C44.2085 95.8646 44.1043 96.357 43.896 96.7784C43.69 97.1998 43.4012 97.5277 43.0295 97.7621C42.6602 97.9964 42.2293 98.1136 41.7369 98.1136ZM41.7369 97.3608C42.1109 97.3608 42.4187 97.2649 42.6602 97.0732C42.9016 96.8814 43.0804 96.6293 43.1964 96.3168C43.3124 96.0043 43.3704 95.6657 43.3704 95.3011C43.3704 94.9366 43.3124 94.5968 43.1964 94.282C43.0804 93.9671 42.9016 93.7126 42.6602 93.5185C42.4187 93.3243 42.1109 93.2273 41.7369 93.2273C41.3628 93.2273 41.055 93.3243 40.8136 93.5185C40.5721 93.7126 40.3933 93.9671 40.2773 94.282C40.1613 94.5968 40.1033 94.9366 40.1033 95.3011C40.1033 95.6657 40.1613 96.0043 40.2773 96.3168C40.3933 96.6293 40.5721 96.8814 40.8136 97.0732C41.055 97.2649 41.3628 97.3608 41.7369 97.3608ZM48.9252 95.7699V92.5455H49.7633V98H48.9252V97.0767H48.8684C48.7406 97.3537 48.5417 97.5893 48.2718 97.7834C48.002 97.9751 47.661 98.071 47.2491 98.071C46.9082 98.071 46.6052 97.9964 46.34 97.8473C46.0749 97.6958 45.8665 97.4685 45.715 97.1655C45.5635 96.8601 45.4877 96.4754 45.4877 96.0114V92.5455H46.3258V95.9545C46.3258 96.3523 46.4371 96.6695 46.6596 96.9062C46.8845 97.143 47.171 97.2614 47.519 97.2614C47.7273 97.2614 47.9392 97.2081 48.1547 97.1016C48.3725 96.995 48.5547 96.8317 48.7015 96.6115C48.8507 96.3913 48.9252 96.1108 48.9252 95.7699ZM51.2983 98V92.5455H52.108V93.3693H52.1648C52.2642 93.0994 52.4441 92.8804 52.7045 92.7124C52.965 92.5443 53.2585 92.4602 53.5852 92.4602C53.6468 92.4602 53.7237 92.4614 53.8161 92.4638C53.9084 92.4661 53.9782 92.4697 54.0256 92.4744V93.3267C53.9972 93.3196 53.9321 93.3089 53.8303 93.2947C53.7308 93.2782 53.6255 93.2699 53.5142 93.2699C53.2491 93.2699 53.0123 93.3255 52.804 93.4368C52.598 93.5457 52.4347 93.6972 52.3139 93.8913C52.1955 94.0831 52.1364 94.3021 52.1364 94.5483V98H51.2983ZM58.8826 93.767L58.1298 93.9801C58.0824 93.8546 58.0126 93.7327 57.9203 93.6143C57.8303 93.4936 57.7072 93.3942 57.551 93.3161C57.3947 93.2379 57.1947 93.1989 56.9508 93.1989C56.617 93.1989 56.3388 93.2758 56.1163 93.4297C55.8961 93.5812 55.786 93.7741 55.786 94.0085C55.786 94.2169 55.8618 94.3814 56.0133 94.5021C56.1648 94.6229 56.4016 94.7235 56.7235 94.804L57.5332 95.0028C58.0209 95.1212 58.3843 95.3023 58.6234 95.5462C58.8625 95.7876 58.9821 96.099 58.9821 96.4801C58.9821 96.7926 58.8921 97.072 58.7122 97.3182C58.5346 97.5644 58.286 97.7585 57.9664 97.9006C57.6468 98.0426 57.2752 98.1136 56.8514 98.1136C56.295 98.1136 55.8346 97.9929 55.47 97.7514C55.1054 97.5099 54.8746 97.1572 54.7775 96.6932L55.573 96.4943C55.6487 96.7879 55.792 97.008 56.0027 97.1548C56.2157 97.3016 56.4939 97.375 56.8372 97.375C57.2278 97.375 57.5379 97.2921 57.7676 97.1264C57.9996 96.9583 58.1156 96.7571 58.1156 96.5227C58.1156 96.3333 58.0493 96.1747 57.9167 96.0469C57.7842 95.9167 57.5806 95.8196 57.3059 95.7557L56.3968 95.5426C55.8973 95.4242 55.5304 95.2408 55.296 94.9922C55.064 94.7412 54.948 94.4276 54.948 94.0511C54.948 93.7434 55.0344 93.4711 55.2072 93.2344C55.3824 92.9976 55.6203 92.8118 55.921 92.6768C56.224 92.5419 56.5673 92.4744 56.9508 92.4744C57.4906 92.4744 57.9144 92.5928 58.2221 92.8295C58.5323 93.0663 58.7524 93.3788 58.8826 93.767ZM62.5305 98.1136C62.005 98.1136 61.5516 97.9976 61.1705 97.7656C60.7917 97.5312 60.4993 97.2045 60.2933 96.7855C60.0897 96.3641 59.9879 95.8741 59.9879 95.3153C59.9879 94.7566 60.0897 94.2642 60.2933 93.8381C60.4993 93.4096 60.7857 93.0758 61.1527 92.8366C61.522 92.5952 61.9529 92.4744 62.4453 92.4744C62.7294 92.4744 63.0099 92.5218 63.2869 92.6165C63.5639 92.7112 63.8161 92.8651 64.0433 93.0781C64.2706 93.2888 64.4517 93.5682 64.5866 93.9162C64.7216 94.2642 64.7891 94.6927 64.7891 95.2017V95.5568H60.5845V94.8324H63.9368C63.9368 94.5246 63.8752 94.25 63.7521 94.0085C63.6314 93.767 63.4586 93.5765 63.2337 93.4368C63.0111 93.2971 62.7483 93.2273 62.4453 93.2273C62.1115 93.2273 61.8227 93.3101 61.5788 93.4759C61.3374 93.6392 61.1515 93.8523 61.0213 94.1151C60.8911 94.3778 60.826 94.6596 60.826 94.9602V95.4432C60.826 95.8551 60.897 96.2043 61.0391 96.4908C61.1835 96.7749 61.3835 96.9915 61.6392 97.1406C61.8949 97.2874 62.192 97.3608 62.5305 97.3608C62.7507 97.3608 62.9496 97.33 63.1271 97.2685C63.3071 97.2045 63.4621 97.1098 63.5923 96.9844C63.7225 96.8565 63.8232 96.6979 63.8942 96.5085L64.7038 96.7358C64.6186 97.0104 64.4754 97.2519 64.2741 97.4602C64.0729 97.6662 63.8243 97.8272 63.5284 97.9432C63.2325 98.0568 62.8999 98.1136 62.5305 98.1136ZM69.9276 93.767L69.1747 93.9801C69.1274 93.8546 69.0575 93.7327 68.9652 93.6143C68.8752 93.4936 68.7521 93.3942 68.5959 93.3161C68.4396 93.2379 68.2396 93.1989 67.9957 93.1989C67.6619 93.1989 67.3838 93.2758 67.1612 93.4297C66.9411 93.5812 66.831 93.7741 66.831 94.0085C66.831 94.2169 66.9067 94.3814 67.0582 94.5021C67.2098 94.6229 67.4465 94.7235 67.7685 94.804L68.5781 95.0028C69.0658 95.1212 69.4292 95.3023 69.6683 95.5462C69.9074 95.7876 70.027 96.099 70.027 96.4801C70.027 96.7926 69.937 97.072 69.7571 97.3182C69.5795 97.5644 69.331 97.7585 69.0114 97.9006C68.6918 98.0426 68.3201 98.1136 67.8963 98.1136C67.34 98.1136 66.8795 97.9929 66.5149 97.7514C66.1503 97.5099 65.9195 97.1572 65.8224 96.6932L66.6179 96.4943C66.6937 96.7879 66.8369 97.008 67.0476 97.1548C67.2607 97.3016 67.5388 97.375 67.8821 97.375C68.2727 97.375 68.5829 97.2921 68.8125 97.1264C69.0445 96.9583 69.1605 96.7571 69.1605 96.5227C69.1605 96.3333 69.0942 96.1747 68.9616 96.0469C68.8291 95.9167 68.6255 95.8196 68.3509 95.7557L67.4418 95.5426C66.9422 95.4242 66.5753 95.2408 66.3409 94.9922C66.1089 94.7412 65.9929 94.4276 65.9929 94.0511C65.9929 93.7434 66.0793 93.4711 66.2521 93.2344C66.4273 92.9976 66.6652 92.8118 66.9659 92.6768C67.2689 92.5419 67.6122 92.4744 67.9957 92.4744C68.5355 92.4744 68.9593 92.5928 69.267 92.8295C69.5772 93.0663 69.7973 93.3788 69.9276 93.767Z" fill="white"/>
<g filter="url(#filter0_d_140_885)">
<circle cx="52" cy="44" r="36" fill="white"/>
<circle cx="52" cy="44" r="35.5" stroke="#10A089"/>
</g>
<path d="M66.1667 33.8708V50.715C66.1667 52.0891 65.0475 53.35 63.6733 53.52L63.2342 53.5766C60.9108 53.8883 57.6383 54.8516 55.0033 55.9566C54.0825 56.3391 53.0625 55.645 53.0625 54.6391V34.9333C53.0625 34.4091 53.36 33.9275 53.8275 33.6725C56.42 32.27 60.3442 31.0233 63.0075 30.7966H63.0925C64.7925 30.7966 66.1667 32.1708 66.1667 33.8708Z" fill="#10A089"/>
<path d="M50.1727 33.6725C47.5802 32.27 43.656 31.0233 40.9927 30.7966H40.8935C39.1935 30.7966 37.8193 32.1708 37.8193 33.8708V50.715C37.8193 52.0891 38.9385 53.35 40.3127 53.52L40.7518 53.5766C43.0752 53.8883 46.3477 54.8516 48.9827 55.9566C49.9035 56.3391 50.9235 55.645 50.9235 54.6391V34.9333C50.9235 34.395 50.6402 33.9275 50.1727 33.6725ZM42.0835 37.965H45.271C45.8518 37.965 46.3335 38.4466 46.3335 39.0275C46.3335 39.6225 45.8518 40.09 45.271 40.09H42.0835C41.5027 40.09 41.021 39.6225 41.021 39.0275C41.021 38.4466 41.5027 37.965 42.0835 37.965ZM46.3335 44.34H42.0835C41.5027 44.34 41.021 43.8725 41.021 43.2775C41.021 42.6966 41.5027 42.215 42.0835 42.215H46.3335C46.9143 42.215 47.396 42.6966 47.396 43.2775C47.396 43.8725 46.9143 44.34 46.3335 44.34Z" fill="#10A089"/>
<path d="M112.029 92.5455C111.986 92.1856 111.813 91.9062 111.51 91.7074C111.207 91.5085 110.836 91.4091 110.395 91.4091C110.073 91.4091 109.792 91.4612 109.55 91.5653C109.311 91.6695 109.124 91.8127 108.989 91.995C108.857 92.1773 108.79 92.3845 108.79 92.6165C108.79 92.8106 108.836 92.9775 108.929 93.1172C109.023 93.2545 109.144 93.3693 109.291 93.4616C109.438 93.5516 109.592 93.6262 109.753 93.6854C109.914 93.7422 110.062 93.7884 110.196 93.8239L110.935 94.0227C111.124 94.0724 111.335 94.1411 111.567 94.2287C111.802 94.3163 112.025 94.4358 112.238 94.5874C112.454 94.7365 112.631 94.9283 112.771 95.1626C112.911 95.397 112.981 95.6847 112.981 96.0256C112.981 96.4186 112.878 96.7737 112.672 97.0909C112.468 97.4081 112.17 97.6603 111.777 97.8473C111.386 98.0343 110.911 98.1278 110.353 98.1278C109.832 98.1278 109.381 98.0438 109 97.8757C108.621 97.7076 108.323 97.4732 108.105 97.1726C107.889 96.8719 107.767 96.5227 107.739 96.125H108.648C108.672 96.3996 108.764 96.6269 108.925 96.8068C109.089 96.9844 109.294 97.117 109.543 97.2045C109.794 97.2898 110.064 97.3324 110.353 97.3324C110.689 97.3324 110.991 97.2779 111.258 97.169C111.526 97.0578 111.738 96.9039 111.894 96.7074C112.05 96.5085 112.128 96.2765 112.128 96.0114C112.128 95.7699 112.061 95.5734 111.926 95.4219C111.791 95.2704 111.613 95.1473 111.393 95.0526C111.173 94.9579 110.935 94.875 110.679 94.804L109.785 94.5483C109.216 94.3849 108.767 94.1518 108.435 93.8487C108.104 93.5457 107.938 93.1491 107.938 92.6591C107.938 92.2519 108.048 91.8968 108.268 91.5938C108.491 91.2884 108.789 91.0516 109.163 90.8835C109.54 90.7131 109.96 90.6278 110.424 90.6278C110.892 90.6278 111.309 90.7119 111.674 90.88C112.038 91.0457 112.327 91.273 112.54 91.5618C112.756 91.8506 112.869 92.1785 112.881 92.5455H112.029ZM117.752 95.7699V92.5455H118.59V98H117.752V97.0767H117.696C117.568 97.3537 117.369 97.5893 117.099 97.7834C116.829 97.9751 116.488 98.071 116.076 98.071C115.735 98.071 115.432 97.9964 115.167 97.8473C114.902 97.6958 114.694 97.4685 114.542 97.1655C114.391 96.8601 114.315 96.4754 114.315 96.0114V92.5455H115.153V95.9545C115.153 96.3523 115.264 96.6695 115.487 96.9062C115.712 97.143 115.998 97.2614 116.346 97.2614C116.554 97.2614 116.766 97.2081 116.982 97.1016C117.2 96.995 117.382 96.8317 117.529 96.6115C117.678 96.3913 117.752 96.1108 117.752 95.7699ZM120.125 98V92.5455H120.935V93.3977H121.006C121.12 93.1065 121.303 92.8804 121.557 92.7195C121.81 92.5561 122.114 92.4744 122.469 92.4744C122.829 92.4744 123.129 92.5561 123.368 92.7195C123.609 92.8804 123.797 93.1065 123.932 93.3977H123.989C124.129 93.116 124.338 92.8923 124.618 92.7266C124.897 92.5585 125.232 92.4744 125.623 92.4744C126.11 92.4744 126.509 92.6271 126.819 92.9325C127.129 93.2356 127.285 93.7079 127.285 94.3494V98H126.446V94.3494C126.446 93.947 126.336 93.6593 126.116 93.4865C125.896 93.3137 125.637 93.2273 125.339 93.2273C124.955 93.2273 124.658 93.3433 124.447 93.5753C124.236 93.8049 124.131 94.0961 124.131 94.4489V98H123.279V94.2642C123.279 93.9541 123.178 93.7043 122.977 93.5149C122.776 93.3232 122.517 93.2273 122.199 93.2273C121.982 93.2273 121.778 93.2853 121.589 93.4013C121.401 93.5173 121.25 93.6783 121.134 93.8842C121.02 94.0878 120.964 94.3234 120.964 94.5909V98H120.125ZM128.817 98V92.5455H129.627V93.3977H129.698C129.811 93.1065 129.995 92.8804 130.248 92.7195C130.501 92.5561 130.805 92.4744 131.161 92.4744C131.52 92.4744 131.82 92.5561 132.059 92.7195C132.301 92.8804 132.489 93.1065 132.624 93.3977H132.68C132.82 93.116 133.03 92.8923 133.309 92.7266C133.588 92.5585 133.923 92.4744 134.314 92.4744C134.802 92.4744 135.201 92.6271 135.511 92.9325C135.821 93.2356 135.976 93.7079 135.976 94.3494V98H135.138V94.3494C135.138 93.947 135.028 93.6593 134.808 93.4865C134.587 93.3137 134.328 93.2273 134.03 93.2273C133.646 93.2273 133.349 93.3433 133.139 93.5753C132.928 93.8049 132.823 94.0961 132.823 94.4489V98H131.97V94.2642C131.97 93.9541 131.87 93.7043 131.668 93.5149C131.467 93.3232 131.208 93.2273 130.891 93.2273C130.673 93.2273 130.469 93.2853 130.28 93.4013C130.093 93.5173 129.941 93.6783 129.825 93.8842C129.712 94.0878 129.655 94.3234 129.655 94.5909V98H128.817ZM139.113 98.1278C138.768 98.1278 138.454 98.0627 138.172 97.9325C137.891 97.8 137.667 97.6094 137.501 97.3608C137.335 97.1098 137.253 96.8068 137.253 96.4517C137.253 96.1392 137.314 95.8859 137.437 95.6918C137.56 95.4953 137.725 95.3414 137.931 95.2301C138.137 95.1188 138.364 95.036 138.613 94.9815C138.864 94.9247 139.116 94.8797 139.369 94.8466C139.7 94.804 139.969 94.772 140.175 94.7507C140.383 94.727 140.535 94.688 140.63 94.6335C140.727 94.5791 140.775 94.4844 140.775 94.3494V94.321C140.775 93.9706 140.679 93.6984 140.488 93.5043C140.298 93.3101 140.011 93.2131 139.625 93.2131C139.225 93.2131 138.911 93.3007 138.684 93.4759C138.456 93.651 138.297 93.8381 138.204 94.0369L137.409 93.7528C137.551 93.4214 137.74 93.1634 137.977 92.9787C138.216 92.7917 138.477 92.6615 138.758 92.5881C139.042 92.5123 139.322 92.4744 139.596 92.4744C139.772 92.4744 139.973 92.4957 140.2 92.5384C140.43 92.5786 140.651 92.6626 140.864 92.7905C141.08 92.9183 141.258 93.1113 141.4 93.3693C141.542 93.6274 141.613 93.973 141.613 94.4062V98H140.775V97.2614H140.733C140.676 97.3797 140.581 97.5064 140.449 97.6413C140.316 97.7763 140.14 97.8911 139.919 97.9858C139.699 98.0805 139.431 98.1278 139.113 98.1278ZM139.241 97.375C139.573 97.375 139.852 97.3099 140.079 97.1797C140.309 97.0495 140.482 96.8814 140.598 96.6754C140.716 96.4695 140.775 96.2528 140.775 96.0256V95.2585C140.74 95.3011 140.662 95.3402 140.541 95.3757C140.423 95.4089 140.285 95.4384 140.129 95.4645C139.975 95.4882 139.825 95.5095 139.678 95.5284C139.534 95.545 139.416 95.5592 139.326 95.571C139.109 95.5994 138.905 95.6456 138.716 95.7095C138.529 95.7711 138.377 95.8646 138.261 95.9901C138.147 96.1132 138.091 96.2812 138.091 96.4943C138.091 96.7855 138.198 97.0057 138.414 97.1548C138.632 97.3016 138.907 97.375 139.241 97.375ZM143.143 98V92.5455H143.953V93.3693H144.009C144.109 93.0994 144.289 92.8804 144.549 92.7124C144.81 92.5443 145.103 92.4602 145.43 92.4602C145.492 92.4602 145.568 92.4614 145.661 92.4638C145.753 92.4661 145.823 92.4697 145.87 92.4744V93.3267C145.842 93.3196 145.777 93.3089 145.675 93.2947C145.576 93.2782 145.47 93.2699 145.359 93.2699C145.094 93.2699 144.857 93.3255 144.649 93.4368C144.443 93.5457 144.279 93.6972 144.159 93.8913C144.04 94.0831 143.981 94.3021 143.981 94.5483V98H143.143ZM147.57 100.045C147.427 100.045 147.301 100.034 147.19 100.01C147.078 99.9886 147.001 99.9673 146.959 99.946L147.172 99.2074C147.375 99.2595 147.555 99.2784 147.712 99.2642C147.868 99.25 148.006 99.1802 148.127 99.0547C148.25 98.9316 148.363 98.7315 148.464 98.4545L148.621 98.0284L146.604 92.5455H147.513L149.018 96.892H149.075L150.581 92.5455H151.49L149.175 98.7955C149.07 99.0772 148.941 99.3104 148.788 99.495C148.634 99.6821 148.455 99.8205 148.251 99.9105C148.05 100 147.823 100.045 147.57 100.045Z" fill="white"/>
<path d="M218.773 58.68L210.04 51.6933C208.333 50.3333 205.666 50.32 203.973 51.68L195.24 58.68C193.986 59.68 193.226 61.68 193.493 63.2533L195.173 73.3067C195.56 75.56 197.653 77.3333 199.933 77.3333H214.066C216.32 77.3333 218.453 75.52 218.84 73.2933L220.52 63.24C220.76 61.68 220 59.68 218.773 58.68ZM208 72C208 72.5466 207.546 73 207 73C206.453 73 206 72.5466 206 72V68C206 67.4533 206.453 67 207 67C207.546 67 208 67.4533 208 68V72Z" fill="white"/>
<path d="M192.94 98V90.7273H193.821V93.9659H197.699V90.7273H198.579V98H197.699V94.7472H193.821V98H192.94ZM202.445 98.1136C201.952 98.1136 201.52 97.9964 201.149 97.7621C200.779 97.5277 200.491 97.1998 200.282 96.7784C200.076 96.357 199.973 95.8646 199.973 95.3011C199.973 94.733 200.076 94.237 200.282 93.8132C200.491 93.3894 200.779 93.0604 201.149 92.826C201.52 92.5916 201.952 92.4744 202.445 92.4744C202.937 92.4744 203.368 92.5916 203.737 92.826C204.109 93.0604 204.398 93.3894 204.604 93.8132C204.812 94.237 204.916 94.733 204.916 95.3011C204.916 95.8646 204.812 96.357 204.604 96.7784C204.398 97.1998 204.109 97.5277 203.737 97.7621C203.368 97.9964 202.937 98.1136 202.445 98.1136ZM202.445 97.3608C202.819 97.3608 203.127 97.2649 203.368 97.0732C203.61 96.8814 203.788 96.6293 203.904 96.3168C204.02 96.0043 204.078 95.6657 204.078 95.3011C204.078 94.9366 204.02 94.5968 203.904 94.282C203.788 93.9671 203.61 93.7126 203.368 93.5185C203.127 93.3243 202.819 93.2273 202.445 93.2273C202.071 93.2273 201.763 93.3243 201.522 93.5185C201.28 93.7126 201.101 93.9671 200.985 94.282C200.869 94.5968 200.811 94.9366 200.811 95.3011C200.811 95.6657 200.869 96.0043 200.985 96.3168C201.101 96.6293 201.28 96.8814 201.522 97.0732C201.763 97.2649 202.071 97.3608 202.445 97.3608ZM206.196 98V92.5455H207.005V93.3977H207.076C207.19 93.1065 207.374 92.8804 207.627 92.7195C207.88 92.5561 208.184 92.4744 208.54 92.4744C208.899 92.4744 209.199 92.5561 209.438 92.7195C209.679 92.8804 209.868 93.1065 210.003 93.3977H210.059C210.199 93.116 210.409 92.8923 210.688 92.7266C210.967 92.5585 211.302 92.4744 211.693 92.4744C212.181 92.4744 212.58 92.6271 212.89 92.9325C213.2 93.2356 213.355 93.7079 213.355 94.3494V98H212.517V94.3494C212.517 93.947 212.407 93.6593 212.187 93.4865C211.966 93.3137 211.707 93.2273 211.409 93.2273C211.025 93.2273 210.728 93.3433 210.517 93.5753C210.307 93.8049 210.201 94.0961 210.201 94.4489V98H209.349V94.2642C209.349 93.9541 209.249 93.7043 209.047 93.5149C208.846 93.3232 208.587 93.2273 208.27 93.2273C208.052 93.2273 207.848 93.2853 207.659 93.4013C207.472 93.5173 207.32 93.6783 207.204 93.8842C207.091 94.0878 207.034 94.3234 207.034 94.5909V98H206.196ZM217.174 98.1136C216.649 98.1136 216.195 97.9976 215.814 97.7656C215.435 97.5312 215.143 97.2045 214.937 96.7855C214.733 96.3641 214.631 95.8741 214.631 95.3153C214.631 94.7566 214.733 94.2642 214.937 93.8381C215.143 93.4096 215.429 93.0758 215.796 92.8366C216.166 92.5952 216.596 92.4744 217.089 92.4744C217.373 92.4744 217.653 92.5218 217.93 92.6165C218.207 92.7112 218.46 92.8651 218.687 93.0781C218.914 93.2888 219.095 93.5682 219.23 93.9162C219.365 94.2642 219.433 94.6927 219.433 95.2017V95.5568H215.228V94.8324H218.58C218.58 94.5246 218.519 94.25 218.396 94.0085C218.275 93.767 218.102 93.5765 217.877 93.4368C217.655 93.2971 217.392 93.2273 217.089 93.2273C216.755 93.2273 216.466 93.3101 216.222 93.4759C215.981 93.6392 215.795 93.8523 215.665 94.1151C215.535 94.3778 215.47 94.6596 215.47 94.9602V95.4432C215.47 95.8551 215.541 96.2043 215.683 96.4908C215.827 96.7749 216.027 96.9915 216.283 97.1406C216.538 97.2874 216.836 97.3608 217.174 97.3608C217.394 97.3608 217.593 97.33 217.771 97.2685C217.951 97.2045 218.106 97.1098 218.236 96.9844C218.366 96.8565 218.467 96.6979 218.538 96.5085L219.347 96.7358C219.262 97.0104 219.119 97.2519 218.918 97.4602C218.716 97.6662 218.468 97.8272 218.172 97.9432C217.876 98.0568 217.543 98.1136 217.174 98.1136Z" fill="white"/>
<path d="M135.587 50.6666H124.413C119.56 50.6666 116.667 53.56 116.667 58.4133V69.5733C116.667 74.44 119.56 77.3333 124.413 77.3333H135.573C140.427 77.3333 143.32 74.44 143.32 69.5866V58.4133C143.333 53.56 140.44 50.6666 135.587 50.6666ZM127.213 69.5866C127.213 70.44 126.52 71.1333 125.653 71.1333C124.8 71.1333 124.107 70.44 124.107 69.5866V65.24C124.107 64.3866 124.8 63.6933 125.653 63.6933C126.52 63.6933 127.213 64.3866 127.213 65.24V69.5866ZM135.893 69.5866C135.893 70.44 135.2 71.1333 134.347 71.1333C133.48 71.1333 132.787 70.44 132.787 69.5866V58.4133C132.787 57.56 133.48 56.8666 134.347 56.8666C135.2 56.8666 135.893 57.56 135.893 58.4133V69.5866Z" fill="white"/>
<path d="M264.887 90.7273V98H264.035L260.072 92.2898H260.001V98H259.12V90.7273H259.972L263.949 96.4517H264.021V90.7273H264.887ZM268.752 98.1136C268.259 98.1136 267.827 97.9964 267.455 97.7621C267.086 97.5277 266.797 97.1998 266.589 96.7784C266.383 96.357 266.28 95.8646 266.28 95.3011C266.28 94.733 266.383 94.237 266.589 93.8132C266.797 93.3894 267.086 93.0604 267.455 92.826C267.827 92.5916 268.259 92.4744 268.752 92.4744C269.244 92.4744 269.675 92.5916 270.044 92.826C270.416 93.0604 270.705 93.3894 270.911 93.8132C271.119 94.237 271.223 94.733 271.223 95.3011C271.223 95.8646 271.119 96.357 270.911 96.7784C270.705 97.1998 270.416 97.5277 270.044 97.7621C269.675 97.9964 269.244 98.1136 268.752 98.1136ZM268.752 97.3608C269.126 97.3608 269.433 97.2649 269.675 97.0732C269.916 96.8814 270.095 96.6293 270.211 96.3168C270.327 96.0043 270.385 95.6657 270.385 95.3011C270.385 94.9366 270.327 94.5968 270.211 94.282C270.095 93.9671 269.916 93.7126 269.675 93.5185C269.433 93.3243 269.126 93.2273 268.752 93.2273C268.377 93.2273 268.07 93.3243 267.828 93.5185C267.587 93.7126 267.408 93.9671 267.292 94.282C267.176 94.5968 267.118 94.9366 267.118 95.3011C267.118 95.6657 267.176 96.0043 267.292 96.3168C267.408 96.6293 267.587 96.8814 267.828 97.0732C268.07 97.2649 268.377 97.3608 268.752 97.3608ZM274.875 92.5455V93.2557H272.048V92.5455H274.875ZM272.872 91.2386H273.71V96.4375C273.71 96.6742 273.744 96.8518 273.813 96.9702C273.884 97.0862 273.974 97.1643 274.083 97.2045C274.194 97.2424 274.311 97.2614 274.434 97.2614C274.527 97.2614 274.602 97.2566 274.661 97.2472C274.721 97.2353 274.768 97.2259 274.804 97.2188L274.974 97.9716C274.917 97.9929 274.838 98.0142 274.736 98.0355C274.634 98.0592 274.505 98.071 274.349 98.071C274.112 98.071 273.88 98.0201 273.653 97.9183C273.428 97.8165 273.241 97.6615 273.092 97.4531C272.945 97.2448 272.872 96.982 272.872 96.6648V91.2386ZM276.135 98V92.5455H276.973V98H276.135ZM276.561 91.6364C276.398 91.6364 276.257 91.5807 276.139 91.4695C276.023 91.3582 275.965 91.2244 275.965 91.0682C275.965 90.9119 276.023 90.7782 276.139 90.6669C276.257 90.5556 276.398 90.5 276.561 90.5C276.725 90.5 276.864 90.5556 276.98 90.6669C277.099 90.7782 277.158 90.9119 277.158 91.0682C277.158 91.2244 277.099 91.3582 276.98 91.4695C276.864 91.5807 276.725 91.6364 276.561 91.6364ZM280.937 92.5455V93.2557H277.997V92.5455H280.937ZM278.878 98V91.7926C278.878 91.4801 278.951 91.2197 279.098 91.0114C279.245 90.803 279.435 90.6468 279.669 90.5426C279.904 90.4384 280.151 90.3864 280.412 90.3864C280.618 90.3864 280.786 90.4029 280.916 90.4361C281.046 90.4692 281.143 90.5 281.207 90.5284L280.966 91.2528C280.923 91.2386 280.864 91.2209 280.788 91.1996C280.715 91.1783 280.618 91.1676 280.497 91.1676C280.22 91.1676 280.02 91.2375 279.897 91.3771C279.776 91.5168 279.716 91.7216 279.716 91.9915V98H278.878ZM282.112 98V92.5455H282.95V98H282.112ZM282.538 91.6364C282.375 91.6364 282.234 91.5807 282.115 91.4695C281.999 91.3582 281.941 91.2244 281.941 91.0682C281.941 90.9119 281.999 90.7782 282.115 90.6669C282.234 90.5556 282.375 90.5 282.538 90.5C282.701 90.5 282.841 90.5556 282.957 90.6669C283.075 90.7782 283.134 90.9119 283.134 91.0682C283.134 91.2244 283.075 91.3582 282.957 91.4695C282.841 91.5807 282.701 91.6364 282.538 91.6364ZM286.701 98.1136C286.189 98.1136 285.749 97.9929 285.38 97.7514C285.01 97.5099 284.726 97.1773 284.527 96.7536C284.329 96.3298 284.229 95.8456 284.229 95.3011C284.229 94.7472 284.331 94.2583 284.535 93.8345C284.741 93.4084 285.027 93.0758 285.394 92.8366C285.763 92.5952 286.194 92.4744 286.687 92.4744C287.07 92.4744 287.416 92.5455 287.723 92.6875C288.031 92.8295 288.283 93.0284 288.48 93.2841C288.676 93.5398 288.798 93.8381 288.846 94.179H288.008C287.944 93.9304 287.802 93.7102 287.581 93.5185C287.364 93.3243 287.07 93.2273 286.701 93.2273C286.374 93.2273 286.088 93.3125 285.841 93.483C285.598 93.651 285.407 93.889 285.27 94.1967C285.135 94.5021 285.067 94.8608 285.067 95.2727C285.067 95.6941 285.133 96.0611 285.266 96.3736C285.401 96.6861 285.59 96.9287 285.834 97.1016C286.08 97.2744 286.369 97.3608 286.701 97.3608C286.919 97.3608 287.116 97.3229 287.294 97.2472C287.471 97.1714 287.622 97.0625 287.745 96.9205C287.868 96.7784 287.955 96.608 288.008 96.4091H288.846C288.798 96.7311 288.681 97.0211 288.494 97.2791C288.309 97.5348 288.064 97.7384 287.759 97.8899C287.456 98.0391 287.103 98.1136 286.701 98.1136ZM291.676 98.1278C291.33 98.1278 291.017 98.0627 290.735 97.9325C290.453 97.8 290.229 97.6094 290.064 97.3608C289.898 97.1098 289.815 96.8068 289.815 96.4517C289.815 96.1392 289.877 95.8859 290 95.6918C290.123 95.4953 290.287 95.3414 290.493 95.2301C290.699 95.1188 290.927 95.036 291.175 94.9815C291.426 94.9247 291.678 94.8797 291.932 94.8466C292.263 94.804 292.532 94.772 292.738 94.7507C292.946 94.727 293.098 94.688 293.192 94.6335C293.289 94.5791 293.338 94.4844 293.338 94.3494V94.321C293.338 93.9706 293.242 93.6984 293.05 93.5043C292.861 93.3101 292.573 93.2131 292.187 93.2131C291.787 93.2131 291.473 93.3007 291.246 93.4759C291.019 93.651 290.859 93.8381 290.767 94.0369L289.971 93.7528C290.113 93.4214 290.303 93.1634 290.54 92.9787C290.779 92.7917 291.039 92.6615 291.321 92.5881C291.605 92.5123 291.884 92.4744 292.159 92.4744C292.334 92.4744 292.535 92.4957 292.763 92.5384C292.992 92.5786 293.214 92.6626 293.427 92.7905C293.642 92.9183 293.821 93.1113 293.963 93.3693C294.105 93.6274 294.176 93.973 294.176 94.4062V98H293.338V97.2614H293.295C293.238 97.3797 293.144 97.5064 293.011 97.6413C292.879 97.7763 292.702 97.8911 292.482 97.9858C292.262 98.0805 291.993 98.1278 291.676 98.1278ZM291.804 97.375C292.135 97.375 292.415 97.3099 292.642 97.1797C292.871 97.0495 293.044 96.8814 293.16 96.6754C293.279 96.4695 293.338 96.2528 293.338 96.0256V95.2585C293.302 95.3011 293.224 95.3402 293.103 95.3757C292.985 95.4089 292.848 95.4384 292.691 95.4645C292.538 95.4882 292.387 95.5095 292.241 95.5284C292.096 95.545 291.979 95.5592 291.889 95.571C291.671 95.5994 291.468 95.6456 291.278 95.7095C291.091 95.7711 290.94 95.8646 290.824 95.9901C290.71 96.1132 290.653 96.2812 290.653 96.4943C290.653 96.7855 290.761 97.0057 290.976 97.1548C291.194 97.3016 291.47 97.375 291.804 97.375ZM298.078 92.5455V93.2557H295.251V92.5455H298.078ZM296.075 91.2386H296.913V96.4375C296.913 96.6742 296.947 96.8518 297.016 96.9702C297.087 97.0862 297.177 97.1643 297.286 97.2045C297.397 97.2424 297.514 97.2614 297.637 97.2614C297.73 97.2614 297.805 97.2566 297.865 97.2472C297.924 97.2353 297.971 97.2259 298.007 97.2188L298.177 97.9716C298.12 97.9929 298.041 98.0142 297.939 98.0355C297.837 98.0592 297.708 98.071 297.552 98.071C297.315 98.071 297.083 98.0201 296.856 97.9183C296.631 97.8165 296.444 97.6615 296.295 97.4531C296.148 97.2448 296.075 96.982 296.075 96.6648V91.2386ZM299.338 98V92.5455H300.176V98H299.338ZM299.764 91.6364C299.601 91.6364 299.46 91.5807 299.342 91.4695C299.226 91.3582 299.168 91.2244 299.168 91.0682C299.168 90.9119 299.226 90.7782 299.342 90.6669C299.46 90.5556 299.601 90.5 299.764 90.5C299.928 90.5 300.068 90.5556 300.184 90.6669C300.302 90.7782 300.361 90.9119 300.361 91.0682C300.361 91.2244 300.302 91.3582 300.184 91.4695C300.068 91.5807 299.928 91.6364 299.764 91.6364ZM303.927 98.1136C303.435 98.1136 303.003 97.9964 302.631 97.7621C302.262 97.5277 301.973 97.1998 301.765 96.7784C301.559 96.357 301.456 95.8646 301.456 95.3011C301.456 94.733 301.559 94.237 301.765 93.8132C301.973 93.3894 302.262 93.0604 302.631 92.826C303.003 92.5916 303.435 92.4744 303.927 92.4744C304.42 92.4744 304.851 92.5916 305.22 92.826C305.592 93.0604 305.88 93.3894 306.086 93.8132C306.295 94.237 306.399 94.733 306.399 95.3011C306.399 95.8646 306.295 96.357 306.086 96.7784C305.88 97.1998 305.592 97.5277 305.22 97.7621C304.851 97.9964 304.42 98.1136 303.927 98.1136ZM303.927 97.3608C304.301 97.3608 304.609 97.2649 304.851 97.0732C305.092 96.8814 305.271 96.6293 305.387 96.3168C305.503 96.0043 305.561 95.6657 305.561 95.3011C305.561 94.9366 305.503 94.5968 305.387 94.282C305.271 93.9671 305.092 93.7126 304.851 93.5185C304.609 93.3243 304.301 93.2273 303.927 93.2273C303.553 93.2273 303.245 93.3243 303.004 93.5185C302.763 93.7126 302.584 93.9671 302.468 94.282C302.352 94.5968 302.294 94.9366 302.294 95.3011C302.294 95.6657 302.352 96.0043 302.468 96.3168C302.584 96.6293 302.763 96.8814 303.004 97.0732C303.245 97.2649 303.553 97.3608 303.927 97.3608ZM308.516 94.7188V98H307.678V92.5455H308.488V93.3977H308.559C308.687 93.1207 308.881 92.8982 309.141 92.7301C309.402 92.5597 309.738 92.4744 310.15 92.4744C310.519 92.4744 310.842 92.5502 311.119 92.7017C311.396 92.8509 311.612 93.0781 311.766 93.3835C311.919 93.6866 311.996 94.0701 311.996 94.5341V98H311.158V94.5909C311.158 94.1624 311.047 93.8286 310.824 93.5895C310.602 93.348 310.297 93.2273 309.908 93.2273C309.641 93.2273 309.402 93.2853 309.191 93.4013C308.983 93.5173 308.818 93.6866 308.697 93.9091C308.577 94.1316 308.516 94.4015 308.516 94.7188Z" fill="white"/>
<path d="M295.333 58.6666C297.543 58.6666 299.333 56.8758 299.333 54.6666C299.333 52.4575 297.543 50.6666 295.333 50.6666C293.124 50.6666 291.333 52.4575 291.333 54.6666C291.333 56.8758 293.124 58.6666 295.333 58.6666Z" fill="white"/>
<path d="M298 61.8667V69.9733C298 70.16 297.987 70.3467 297.973 70.52C297.96 70.68 297.947 70.8267 297.92 70.9867C297.907 71.1467 297.88 71.3067 297.853 71.4533C297.387 74.68 295.333 76.72 292.12 77.1867C291.973 77.2133 291.813 77.24 291.653 77.2533C291.493 77.28 291.347 77.2933 291.187 77.3067C291.013 77.32 290.827 77.3333 290.64 77.3333H280.027C279.84 77.3333 279.653 77.32 279.48 77.3067C279.32 77.2933 279.173 77.28 279.013 77.2533C278.853 77.24 278.693 77.2133 278.547 77.1867C275.333 76.72 273.28 74.68 272.813 71.4533C272.787 71.3067 272.76 71.1467 272.747 70.9867C272.72 70.8267 272.707 70.68 272.693 70.52C272.68 70.3467 272.667 70.16 272.667 69.9733V59.36C272.667 59.1733 272.68 58.9867 272.693 58.8133C272.707 58.6533 272.72 58.5067 272.747 58.3467C272.76 58.1867 272.787 58.0267 272.813 57.88C273.28 54.6533 275.333 52.6133 278.547 52.1467C278.693 52.12 278.853 52.0933 279.013 52.08C279.173 52.0533 279.32 52.04 279.48 52.0267C279.653 52.0133 279.84 52 280.027 52H288.133C288.987 52 289.6 52.7733 289.44 53.6C289.44 53.6267 289.427 53.6533 289.427 53.68C289.4 53.8133 289.387 53.9467 289.36 54.0933C289.307 54.6533 289.333 55.2533 289.453 55.8667C289.493 56.0267 289.52 56.16 289.573 56.3067C289.68 56.7467 289.853 57.16 290.08 57.5467C290.16 57.7067 290.267 57.8667 290.36 58.0133C290.8 58.6533 291.347 59.2 291.987 59.64C292.133 59.7333 292.293 59.84 292.453 59.92C292.84 60.1467 293.253 60.32 293.693 60.4267C293.84 60.48 293.973 60.5067 294.133 60.5467C294.747 60.6667 295.347 60.6933 295.907 60.64C296.053 60.6133 296.187 60.6 296.32 60.5733C296.347 60.5733 296.373 60.56 296.4 60.56C297.227 60.4 298 61.0133 298 61.8667Z" fill="white"/>
<path d="M340.223 90.7273H341.275L343.746 96.7642H343.831L346.303 90.7273H347.354V98H346.53V92.4744H346.459L344.187 98H343.391L341.118 92.4744H341.047V98H340.223V90.7273ZM349.546 100.045C349.404 100.045 349.277 100.034 349.166 100.01C349.055 99.9886 348.978 99.9673 348.935 99.946L349.148 99.2074C349.352 99.2595 349.532 99.2784 349.688 99.2642C349.844 99.25 349.983 99.1802 350.104 99.0547C350.227 98.9316 350.339 98.7315 350.441 98.4545L350.597 98.0284L348.58 92.5455H349.489L350.995 96.892H351.052L352.557 92.5455H353.467L351.151 98.7955C351.047 99.0772 350.918 99.3104 350.764 99.495C350.61 99.6821 350.431 99.8205 350.228 99.9105C350.027 100 349.799 100.045 349.546 100.045ZM357.499 98V90.7273H359.956C360.527 90.7273 360.993 90.8303 361.355 91.0362C361.72 91.2398 361.99 91.5156 362.165 91.8636C362.34 92.2116 362.428 92.5999 362.428 93.0284C362.428 93.4569 362.34 93.8464 362.165 94.1967C361.992 94.5471 361.725 94.8265 361.362 95.0348C361 95.2408 360.536 95.3438 359.97 95.3438H358.209V94.5625H359.942C360.333 94.5625 360.646 94.495 360.883 94.3601C361.12 94.2251 361.291 94.0429 361.398 93.8132C361.507 93.5812 361.561 93.3196 361.561 93.0284C361.561 92.7372 361.507 92.4768 361.398 92.2472C361.291 92.0175 361.119 91.8376 360.88 91.7074C360.64 91.5748 360.323 91.5085 359.928 91.5085H358.38V98H357.499ZM363.733 98V92.5455H364.543V93.3693H364.599C364.699 93.0994 364.879 92.8804 365.139 92.7124C365.4 92.5443 365.693 92.4602 366.02 92.4602C366.081 92.4602 366.158 92.4614 366.251 92.4638C366.343 92.4661 366.413 92.4697 366.46 92.4744V93.3267C366.432 93.3196 366.367 93.3089 366.265 93.2947C366.165 93.2782 366.06 93.2699 365.949 93.2699C365.684 93.2699 365.447 93.3255 365.239 93.4368C365.033 93.5457 364.869 93.6972 364.748 93.8913C364.63 94.0831 364.571 94.3021 364.571 94.5483V98H363.733ZM369.503 98.1136C369.011 98.1136 368.579 97.9964 368.207 97.7621C367.838 97.5277 367.549 97.1998 367.341 96.7784C367.135 96.357 367.032 95.8646 367.032 95.3011C367.032 94.733 367.135 94.237 367.341 93.8132C367.549 93.3894 367.838 93.0604 368.207 92.826C368.579 92.5916 369.011 92.4744 369.503 92.4744C369.996 92.4744 370.427 92.5916 370.796 92.826C371.168 93.0604 371.457 93.3894 371.663 93.8132C371.871 94.237 371.975 94.733 371.975 95.3011C371.975 95.8646 371.871 96.357 371.663 96.7784C371.457 97.1998 371.168 97.5277 370.796 97.7621C370.427 97.9964 369.996 98.1136 369.503 98.1136ZM369.503 97.3608C369.878 97.3608 370.185 97.2649 370.427 97.0732C370.668 96.8814 370.847 96.6293 370.963 96.3168C371.079 96.0043 371.137 95.6657 371.137 95.3011C371.137 94.9366 371.079 94.5968 370.963 94.282C370.847 93.9671 370.668 93.7126 370.427 93.5185C370.185 93.3243 369.878 93.2273 369.503 93.2273C369.129 93.2273 368.822 93.3243 368.58 93.5185C368.339 93.7126 368.16 93.9671 368.044 94.282C367.928 94.5968 367.87 94.9366 367.87 95.3011C367.87 95.6657 367.928 96.0043 368.044 96.3168C368.16 96.6293 368.339 96.8814 368.58 97.0732C368.822 97.2649 369.129 97.3608 369.503 97.3608ZM375.683 92.5455V93.2557H372.743V92.5455H375.683ZM373.624 98V91.7926C373.624 91.4801 373.697 91.2197 373.844 91.0114C373.991 90.803 374.181 90.6468 374.416 90.5426C374.65 90.4384 374.897 90.3864 375.158 90.3864C375.364 90.3864 375.532 90.4029 375.662 90.4361C375.792 90.4692 375.889 90.5 375.953 90.5284L375.712 91.2528C375.669 91.2386 375.61 91.2209 375.534 91.1996C375.461 91.1783 375.364 91.1676 375.243 91.1676C374.966 91.1676 374.766 91.2375 374.643 91.3771C374.522 91.5168 374.462 91.7216 374.462 91.9915V98H373.624ZM376.858 98V92.5455H377.696V98H376.858ZM377.284 91.6364C377.121 91.6364 376.98 91.5807 376.861 91.4695C376.745 91.3582 376.687 91.2244 376.687 91.0682C376.687 90.9119 376.745 90.7782 376.861 90.6669C376.98 90.5556 377.121 90.5 377.284 90.5C377.447 90.5 377.587 90.5556 377.703 90.6669C377.821 90.7782 377.881 90.9119 377.881 91.0682C377.881 91.2244 377.821 91.3582 377.703 91.4695C377.587 91.5807 377.447 91.6364 377.284 91.6364ZM380.069 90.7273V98H379.231V90.7273H380.069ZM383.891 98.1136C383.365 98.1136 382.912 97.9976 382.531 97.7656C382.152 97.5312 381.86 97.2045 381.654 96.7855C381.45 96.3641 381.348 95.8741 381.348 95.3153C381.348 94.7566 381.45 94.2642 381.654 93.8381C381.86 93.4096 382.146 93.0758 382.513 92.8366C382.882 92.5952 383.313 92.4744 383.806 92.4744C384.09 92.4744 384.37 92.5218 384.647 92.6165C384.924 92.7112 385.176 92.8651 385.404 93.0781C385.631 93.2888 385.812 93.5682 385.947 93.9162C386.082 94.2642 386.149 94.6927 386.149 95.2017V95.5568H381.945V94.8324H385.297C385.297 94.5246 385.236 94.25 385.112 94.0085C384.992 93.767 384.819 93.5765 384.594 93.4368C384.371 93.2971 384.109 93.2273 383.806 93.2273C383.472 93.2273 383.183 93.3101 382.939 93.4759C382.698 93.6392 382.512 93.8523 382.382 94.1151C382.251 94.3778 382.186 94.6596 382.186 94.9602V95.4432C382.186 95.8551 382.257 96.2043 382.399 96.4908C382.544 96.7749 382.744 96.9915 383 97.1406C383.255 97.2874 383.552 97.3608 383.891 97.3608C384.111 97.3608 384.31 97.33 384.487 97.2685C384.667 97.2045 384.822 97.1098 384.953 96.9844C385.083 96.8565 385.184 96.6979 385.255 96.5085L386.064 96.7358C385.979 97.0104 385.836 97.2519 385.634 97.4602C385.433 97.6662 385.185 97.8272 384.889 97.9432C384.593 98.0568 384.26 98.1136 383.891 98.1136Z" fill="white"/>
<path d="M364 50.6666C360.507 50.6666 357.667 53.5066 357.667 57C357.667 60.4266 360.347 63.2 363.84 63.32C363.947 63.3066 364.053 63.3066 364.133 63.32C364.16 63.32 364.173 63.32 364.2 63.32C364.213 63.32 364.213 63.32 364.227 63.32C367.64 63.2 370.32 60.4266 370.333 57C370.333 53.5066 367.493 50.6666 364 50.6666Z" fill="white"/>
<path d="M370.773 66.8667C367.053 64.3867 360.987 64.3867 357.24 66.8667C355.547 68 354.613 69.5334 354.613 71.1734C354.613 72.8134 355.547 74.3334 357.227 75.4534C359.093 76.7067 361.547 77.3334 364 77.3334C366.453 77.3334 368.907 76.7067 370.773 75.4534C372.453 74.32 373.387 72.8 373.387 71.1467C373.373 69.5067 372.453 67.9867 370.773 66.8667Z" fill="white"/>
<defs>
<filter id="filter0_d_140_885" x="0" y="0" width="104" height="104" filterUnits="userSpaceOnUse" color-interpolation-filters="sRGB">
<feFlood flood-opacity="0" result="BackgroundImageFix"/>
<feColorMatrix in="SourceAlpha" type="matrix" values="0 0 0 0 0 0 0 0 0 0 0 0 0 0 0 0 0 0 127 0" result="hardAlpha"/>
<feOffset dy="8"/>
<feGaussianBlur stdDeviation="8"/>
<feComposite in2="hardAlpha" operator="out"/>
<feColorMatrix type="matrix" values="0 0 0 0 0 0 0 0 0 0 0 0 0 0 0 0 0 0 0.15 0"/>
<feBlend mode="normal" in2="BackgroundImageFix" result="effect1_dropShadow_140_885"/>
<feBlend mode="normal" in="SourceGraphic" in2="effect1_dropShadow_140_885" result="shape"/>
</filter>
<linearGradient id="paint0_linear_140_885" x1="402" y1="120" x2="12" y2="120" gradientUnits="userSpaceOnUse">
<stop stop-color="#08AA4D"/>
<stop offset="1" stop-color="#129C98"/>
</linearGradient>
</defs>
</svg>
