<svg width="33" height="33" viewBox="0 0 33 33" fill="none" xmlns="http://www.w3.org/2000/svg">
<path d="M29.3649 15.1466V28.6884C29.3649 28.9591 29.2024 29.2165 28.9451 29.3113C28.8638 29.3519 28.7691 29.3654 28.6878 29.3654C28.5118 29.3654 28.3357 29.2979 28.2003 29.1624L25.7493 26.6571H13.7919C11.1785 26.6571 9.05242 24.531 9.05242 21.9175H19.2087C22.9462 21.9175 25.9794 18.8841 25.9794 15.1466V10.6101C27.9294 11.1924 29.3649 13.0071 29.3649 15.1466ZM23.9482 15.1466V8.37582C23.9482 5.76228 21.8222 3.63623 19.2087 3.63623H8.37533C5.76179 3.63623 3.63574 5.76228 3.63574 8.37582V21.9175C3.63574 22.1884 3.79824 22.4456 4.05554 22.5404C4.13679 22.581 4.23158 22.5946 4.31283 22.5946C4.48887 22.5946 4.6649 22.527 4.80032 22.3916L7.25138 19.8863H19.2087C21.8222 19.8863 23.9482 17.7603 23.9482 15.1466Z" fill="white"/>
</svg>
