<svg width="390" height="120" viewBox="0 0 390 120" fill="none" xmlns="http://www.w3.org/2000/svg">
<rect y="29" width="390" height="91" fill="url(#paint0_linear_140_837)"/>
<path d="M26.2115 93H25.3308C25.2787 92.7467 25.1876 92.5241 25.0574 92.3324C24.9295 92.1406 24.7733 91.9796 24.5886 91.8494C24.4063 91.7169 24.2039 91.6174 23.9814 91.5511C23.7588 91.4848 23.5268 91.4517 23.2853 91.4517C22.845 91.4517 22.4461 91.563 22.0886 91.7855C21.7335 92.008 21.4506 92.3359 21.2399 92.7692C21.0315 93.2024 20.9274 93.7339 20.9274 94.3636C20.9274 94.9934 21.0315 95.5249 21.2399 95.9581C21.4506 96.3913 21.7335 96.7192 22.0886 96.9418C22.4461 97.1643 22.845 97.2756 23.2853 97.2756C23.5268 97.2756 23.7588 97.2424 23.9814 97.1761C24.2039 97.1098 24.4063 97.0116 24.5886 96.8814C24.7733 96.7488 24.9295 96.5866 25.0574 96.3949C25.1876 96.2008 25.2787 95.9782 25.3308 95.7273H26.2115C26.1452 96.099 26.0244 96.4316 25.8493 96.7251C25.6741 97.0187 25.4563 97.2685 25.1958 97.4744C24.9354 97.678 24.6431 97.8331 24.3187 97.9396C23.9967 98.0462 23.6523 98.0994 23.2853 98.0994C22.6651 98.0994 22.1135 97.9479 21.6305 97.6449C21.1475 97.3419 20.7676 96.911 20.4906 96.3523C20.2136 95.7936 20.0751 95.1307 20.0751 94.3636C20.0751 93.5966 20.2136 92.9337 20.4906 92.375C20.7676 91.8163 21.1475 91.3854 21.6305 91.0824C22.1135 90.7794 22.6651 90.6278 23.2853 90.6278C23.6523 90.6278 23.9967 90.6811 24.3187 90.7876C24.6431 90.8942 24.9354 91.0504 25.1958 91.2564C25.4563 91.46 25.6741 91.7086 25.8493 92.0021C26.0244 92.2933 26.1452 92.6259 26.2115 93ZM29.7369 98.1136C29.2444 98.1136 28.8124 97.9964 28.4407 97.7621C28.0714 97.5277 27.7826 97.1998 27.5742 96.7784C27.3683 96.357 27.2653 95.8646 27.2653 95.3011C27.2653 94.733 27.3683 94.237 27.5742 93.8132C27.7826 93.3894 28.0714 93.0604 28.4407 92.826C28.8124 92.5916 29.2444 92.4744 29.7369 92.4744C30.2293 92.4744 30.6602 92.5916 31.0295 92.826C31.4012 93.0604 31.69 93.3894 31.896 93.8132C32.1043 94.237 32.2085 94.733 32.2085 95.3011C32.2085 95.8646 32.1043 96.357 31.896 96.7784C31.69 97.1998 31.4012 97.5277 31.0295 97.7621C30.6602 97.9964 30.2293 98.1136 29.7369 98.1136ZM29.7369 97.3608C30.1109 97.3608 30.4187 97.2649 30.6602 97.0732C30.9016 96.8814 31.0804 96.6293 31.1964 96.3168C31.3124 96.0043 31.3704 95.6657 31.3704 95.3011C31.3704 94.9366 31.3124 94.5968 31.1964 94.282C31.0804 93.9671 30.9016 93.7126 30.6602 93.5185C30.4187 93.3243 30.1109 93.2273 29.7369 93.2273C29.3628 93.2273 29.055 93.3243 28.8136 93.5185C28.5721 93.7126 28.3933 93.9671 28.2773 94.282C28.1613 94.5968 28.1033 94.9366 28.1033 95.3011C28.1033 95.6657 28.1613 96.0043 28.2773 96.3168C28.3933 96.6293 28.5721 96.8814 28.8136 97.0732C29.055 97.2649 29.3628 97.3608 29.7369 97.3608ZM36.9252 95.7699V92.5455H37.7633V98H36.9252V97.0767H36.8684C36.7406 97.3537 36.5417 97.5893 36.2718 97.7834C36.002 97.9751 35.661 98.071 35.2491 98.071C34.9082 98.071 34.6052 97.9964 34.34 97.8473C34.0749 97.6958 33.8665 97.4685 33.715 97.1655C33.5635 96.8601 33.4877 96.4754 33.4877 96.0114V92.5455H34.3258V95.9545C34.3258 96.3523 34.4371 96.6695 34.6596 96.9062C34.8845 97.143 35.171 97.2614 35.519 97.2614C35.7273 97.2614 35.9392 97.2081 36.1547 97.1016C36.3725 96.995 36.5547 96.8317 36.7015 96.6115C36.8507 96.3913 36.9252 96.1108 36.9252 95.7699ZM39.2983 98V92.5455H40.108V93.3693H40.1648C40.2642 93.0994 40.4441 92.8804 40.7045 92.7124C40.965 92.5443 41.2585 92.4602 41.5852 92.4602C41.6468 92.4602 41.7237 92.4614 41.8161 92.4638C41.9084 92.4661 41.9782 92.4697 42.0256 92.4744V93.3267C41.9972 93.3196 41.9321 93.3089 41.8303 93.2947C41.7308 93.2782 41.6255 93.2699 41.5142 93.2699C41.2491 93.2699 41.0123 93.3255 40.804 93.4368C40.598 93.5457 40.4347 93.6972 40.3139 93.8913C40.1955 94.0831 40.1364 94.3021 40.1364 94.5483V98H39.2983ZM46.8826 93.767L46.1298 93.9801C46.0824 93.8546 46.0126 93.7327 45.9203 93.6143C45.8303 93.4936 45.7072 93.3942 45.551 93.3161C45.3947 93.2379 45.1947 93.1989 44.9508 93.1989C44.617 93.1989 44.3388 93.2758 44.1163 93.4297C43.8961 93.5812 43.786 93.7741 43.786 94.0085C43.786 94.2169 43.8618 94.3814 44.0133 94.5021C44.1648 94.6229 44.4016 94.7235 44.7235 94.804L45.5332 95.0028C46.0209 95.1212 46.3843 95.3023 46.6234 95.5462C46.8625 95.7876 46.9821 96.099 46.9821 96.4801C46.9821 96.7926 46.8921 97.072 46.7122 97.3182C46.5346 97.5644 46.286 97.7585 45.9664 97.9006C45.6468 98.0426 45.2752 98.1136 44.8514 98.1136C44.295 98.1136 43.8346 97.9929 43.47 97.7514C43.1054 97.5099 42.8746 97.1572 42.7775 96.6932L43.573 96.4943C43.6487 96.7879 43.792 97.008 44.0027 97.1548C44.2157 97.3016 44.4939 97.375 44.8372 97.375C45.2278 97.375 45.5379 97.2921 45.7676 97.1264C45.9996 96.9583 46.1156 96.7571 46.1156 96.5227C46.1156 96.3333 46.0493 96.1747 45.9167 96.0469C45.7842 95.9167 45.5806 95.8196 45.3059 95.7557L44.3968 95.5426C43.8973 95.4242 43.5304 95.2408 43.296 94.9922C43.064 94.7412 42.948 94.4276 42.948 94.0511C42.948 93.7434 43.0344 93.4711 43.2072 93.2344C43.3824 92.9976 43.6203 92.8118 43.921 92.6768C44.224 92.5419 44.5673 92.4744 44.9508 92.4744C45.4906 92.4744 45.9144 92.5928 46.2221 92.8295C46.5323 93.0663 46.7524 93.3788 46.8826 93.767ZM50.5305 98.1136C50.005 98.1136 49.5516 97.9976 49.1705 97.7656C48.7917 97.5312 48.4993 97.2045 48.2933 96.7855C48.0897 96.3641 47.9879 95.8741 47.9879 95.3153C47.9879 94.7566 48.0897 94.2642 48.2933 93.8381C48.4993 93.4096 48.7857 93.0758 49.1527 92.8366C49.522 92.5952 49.9529 92.4744 50.4453 92.4744C50.7294 92.4744 51.0099 92.5218 51.2869 92.6165C51.5639 92.7112 51.8161 92.8651 52.0433 93.0781C52.2706 93.2888 52.4517 93.5682 52.5866 93.9162C52.7216 94.2642 52.7891 94.6927 52.7891 95.2017V95.5568H48.5845V94.8324H51.9368C51.9368 94.5246 51.8752 94.25 51.7521 94.0085C51.6314 93.767 51.4586 93.5765 51.2337 93.4368C51.0111 93.2971 50.7483 93.2273 50.4453 93.2273C50.1115 93.2273 49.8227 93.3101 49.5788 93.4759C49.3374 93.6392 49.1515 93.8523 49.0213 94.1151C48.8911 94.3778 48.826 94.6596 48.826 94.9602V95.4432C48.826 95.8551 48.897 96.2043 49.0391 96.4908C49.1835 96.7749 49.3835 96.9915 49.6392 97.1406C49.8949 97.2874 50.192 97.3608 50.5305 97.3608C50.7507 97.3608 50.9496 97.33 51.1271 97.2685C51.3071 97.2045 51.4621 97.1098 51.5923 96.9844C51.7225 96.8565 51.8232 96.6979 51.8942 96.5085L52.7038 96.7358C52.6186 97.0104 52.4754 97.2519 52.2741 97.4602C52.0729 97.6662 51.8243 97.8272 51.5284 97.9432C51.2325 98.0568 50.8999 98.1136 50.5305 98.1136ZM57.9276 93.767L57.1747 93.9801C57.1274 93.8546 57.0575 93.7327 56.9652 93.6143C56.8752 93.4936 56.7521 93.3942 56.5959 93.3161C56.4396 93.2379 56.2396 93.1989 55.9957 93.1989C55.6619 93.1989 55.3838 93.2758 55.1612 93.4297C54.9411 93.5812 54.831 93.7741 54.831 94.0085C54.831 94.2169 54.9067 94.3814 55.0582 94.5021C55.2098 94.6229 55.4465 94.7235 55.7685 94.804L56.5781 95.0028C57.0658 95.1212 57.4292 95.3023 57.6683 95.5462C57.9074 95.7876 58.027 96.099 58.027 96.4801C58.027 96.7926 57.937 97.072 57.7571 97.3182C57.5795 97.5644 57.331 97.7585 57.0114 97.9006C56.6918 98.0426 56.3201 98.1136 55.8963 98.1136C55.34 98.1136 54.8795 97.9929 54.5149 97.7514C54.1503 97.5099 53.9195 97.1572 53.8224 96.6932L54.6179 96.4943C54.6937 96.7879 54.8369 97.008 55.0476 97.1548C55.2607 97.3016 55.5388 97.375 55.8821 97.375C56.2727 97.375 56.5829 97.2921 56.8125 97.1264C57.0445 96.9583 57.1605 96.7571 57.1605 96.5227C57.1605 96.3333 57.0942 96.1747 56.9616 96.0469C56.8291 95.9167 56.6255 95.8196 56.3509 95.7557L55.4418 95.5426C54.9422 95.4242 54.5753 95.2408 54.3409 94.9922C54.1089 94.7412 53.9929 94.4276 53.9929 94.0511C53.9929 93.7434 54.0793 93.4711 54.2521 93.2344C54.4273 92.9976 54.6652 92.8118 54.9659 92.6768C55.2689 92.5419 55.6122 92.4744 55.9957 92.4744C56.5355 92.4744 56.9593 92.5928 57.267 92.8295C57.5772 93.0663 57.7973 93.3788 57.9276 93.767Z" fill="white"/>
<path d="M54.1667 53.8708V70.715C54.1667 72.0891 53.0475 73.35 51.6733 73.52L51.2342 73.5766C48.9108 73.8883 45.6383 74.8516 43.0033 75.9566C42.0825 76.3391 41.0625 75.645 41.0625 74.6391V54.9333C41.0625 54.4091 41.36 53.9275 41.8275 53.6725C44.42 52.27 48.3442 51.0233 51.0075 50.7966H51.0925C52.7925 50.7966 54.1667 52.1708 54.1667 53.8708Z" fill="white"/>
<path d="M38.1727 53.6725C35.5802 52.27 31.656 51.0233 28.9927 50.7966H28.8935C27.1935 50.7966 25.8193 52.1708 25.8193 53.8708V70.715C25.8193 72.0891 26.9385 73.35 28.3127 73.52L28.7518 73.5766C31.0752 73.8883 34.3477 74.8516 36.9827 75.9566C37.9035 76.3391 38.9235 75.645 38.9235 74.6391V54.9333C38.9235 54.395 38.6402 53.9275 38.1727 53.6725ZM30.0835 57.965H33.271C33.8518 57.965 34.3335 58.4466 34.3335 59.0275C34.3335 59.6225 33.8518 60.09 33.271 60.09H30.0835C29.5027 60.09 29.021 59.6225 29.021 59.0275C29.021 58.4466 29.5027 57.965 30.0835 57.965ZM34.3335 64.34H30.0835C29.5027 64.34 29.021 63.8725 29.021 63.2775C29.021 62.6966 29.5027 62.215 30.0835 62.215H34.3335C34.9143 62.215 35.396 62.6966 35.396 63.2775C35.396 63.8725 34.9143 64.34 34.3335 64.34Z" fill="white"/>
<path d="M100.029 92.5455C99.9862 92.1856 99.8134 91.9062 99.5104 91.7074C99.2074 91.5085 98.8357 91.4091 98.3953 91.4091C98.0734 91.4091 97.7916 91.4612 97.5502 91.5653C97.3111 91.6695 97.124 91.8127 96.9891 91.995C96.8565 92.1773 96.7902 92.3845 96.7902 92.6165C96.7902 92.8106 96.8364 92.9775 96.9287 93.1172C97.0234 93.2545 97.1441 93.3693 97.2909 93.4616C97.4377 93.5516 97.5916 93.6262 97.7526 93.6854C97.9136 93.7422 98.0615 93.7884 98.1965 93.8239L98.9351 94.0227C99.1245 94.0724 99.3352 94.1411 99.5672 94.2287C99.8016 94.3163 100.025 94.4358 100.238 94.5874C100.454 94.7365 100.631 94.9283 100.771 95.1626C100.911 95.397 100.981 95.6847 100.981 96.0256C100.981 96.4186 100.878 96.7737 100.672 97.0909C100.468 97.4081 100.17 97.6603 99.7767 97.8473C99.3861 98.0343 98.9114 98.1278 98.3527 98.1278C97.8319 98.1278 97.3809 98.0438 96.9997 97.8757C96.6209 97.7076 96.3227 97.4732 96.1048 97.1726C95.8894 96.8719 95.7675 96.5227 95.7391 96.125H96.6482C96.6718 96.3996 96.7642 96.6269 96.9252 96.8068C97.0885 96.9844 97.2945 97.117 97.5431 97.2045C97.794 97.2898 98.0639 97.3324 98.3527 97.3324C98.6889 97.3324 98.9907 97.2779 99.2583 97.169C99.5258 97.0578 99.7377 96.9039 99.8939 96.7074C100.05 96.5085 100.128 96.2765 100.128 96.0114C100.128 95.7699 100.061 95.5734 99.9259 95.4219C99.7909 95.2704 99.6134 95.1473 99.3932 95.0526C99.173 94.9579 98.9351 94.875 98.6794 94.804L97.7845 94.5483C97.2164 94.3849 96.7665 94.1518 96.4351 93.8487C96.1037 93.5457 95.9379 93.1491 95.9379 92.6591C95.9379 92.2519 96.048 91.8968 96.2682 91.5938C96.4907 91.2884 96.789 91.0516 97.1631 90.8835C97.5395 90.7131 97.9597 90.6278 98.4237 90.6278C98.8925 90.6278 99.3092 90.7119 99.6737 90.88C100.038 91.0457 100.327 91.273 100.54 91.5618C100.756 91.8506 100.869 92.1785 100.881 92.5455H100.029ZM105.752 95.7699V92.5455H106.59V98H105.752V97.0767H105.696C105.568 97.3537 105.369 97.5893 105.099 97.7834C104.829 97.9751 104.488 98.071 104.076 98.071C103.735 98.071 103.432 97.9964 103.167 97.8473C102.902 97.6958 102.694 97.4685 102.542 97.1655C102.391 96.8601 102.315 96.4754 102.315 96.0114V92.5455H103.153V95.9545C103.153 96.3523 103.264 96.6695 103.487 96.9062C103.712 97.143 103.998 97.2614 104.346 97.2614C104.554 97.2614 104.766 97.2081 104.982 97.1016C105.2 96.995 105.382 96.8317 105.529 96.6115C105.678 96.3913 105.752 96.1108 105.752 95.7699ZM108.125 98V92.5455H108.935V93.3977H109.006C109.12 93.1065 109.303 92.8804 109.557 92.7195C109.81 92.5561 110.114 92.4744 110.469 92.4744C110.829 92.4744 111.129 92.5561 111.368 92.7195C111.609 92.8804 111.797 93.1065 111.932 93.3977H111.989C112.129 93.116 112.338 92.8923 112.618 92.7266C112.897 92.5585 113.232 92.4744 113.623 92.4744C114.11 92.4744 114.509 92.6271 114.819 92.9325C115.129 93.2356 115.285 93.7079 115.285 94.3494V98H114.446V94.3494C114.446 93.947 114.336 93.6593 114.116 93.4865C113.896 93.3137 113.637 93.2273 113.339 93.2273C112.955 93.2273 112.658 93.3433 112.447 93.5753C112.236 93.8049 112.131 94.0961 112.131 94.4489V98H111.279V94.2642C111.279 93.9541 111.178 93.7043 110.977 93.5149C110.776 93.3232 110.517 93.2273 110.199 93.2273C109.982 93.2273 109.778 93.2853 109.589 93.4013C109.401 93.5173 109.25 93.6783 109.134 93.8842C109.02 94.0878 108.964 94.3234 108.964 94.5909V98H108.125ZM116.817 98V92.5455H117.627V93.3977H117.698C117.811 93.1065 117.995 92.8804 118.248 92.7195C118.501 92.5561 118.805 92.4744 119.161 92.4744C119.52 92.4744 119.82 92.5561 120.059 92.7195C120.301 92.8804 120.489 93.1065 120.624 93.3977H120.68C120.82 93.116 121.03 92.8923 121.309 92.7266C121.588 92.5585 121.923 92.4744 122.314 92.4744C122.802 92.4744 123.201 92.6271 123.511 92.9325C123.821 93.2356 123.976 93.7079 123.976 94.3494V98H123.138V94.3494C123.138 93.947 123.028 93.6593 122.808 93.4865C122.587 93.3137 122.328 93.2273 122.03 93.2273C121.646 93.2273 121.349 93.3433 121.139 93.5753C120.928 93.8049 120.823 94.0961 120.823 94.4489V98H119.97V94.2642C119.97 93.9541 119.87 93.7043 119.668 93.5149C119.467 93.3232 119.208 93.2273 118.891 93.2273C118.673 93.2273 118.469 93.2853 118.28 93.4013C118.093 93.5173 117.941 93.6783 117.825 93.8842C117.712 94.0878 117.655 94.3234 117.655 94.5909V98H116.817ZM127.113 98.1278C126.768 98.1278 126.454 98.0627 126.172 97.9325C125.891 97.8 125.667 97.6094 125.501 97.3608C125.335 97.1098 125.253 96.8068 125.253 96.4517C125.253 96.1392 125.314 95.8859 125.437 95.6918C125.56 95.4953 125.725 95.3414 125.931 95.2301C126.137 95.1188 126.364 95.036 126.613 94.9815C126.864 94.9247 127.116 94.8797 127.369 94.8466C127.7 94.804 127.969 94.772 128.175 94.7507C128.383 94.727 128.535 94.688 128.63 94.6335C128.727 94.5791 128.775 94.4844 128.775 94.3494V94.321C128.775 93.9706 128.679 93.6984 128.488 93.5043C128.298 93.3101 128.011 93.2131 127.625 93.2131C127.225 93.2131 126.911 93.3007 126.684 93.4759C126.456 93.651 126.297 93.8381 126.204 94.0369L125.409 93.7528C125.551 93.4214 125.74 93.1634 125.977 92.9787C126.216 92.7917 126.477 92.6615 126.758 92.5881C127.042 92.5123 127.322 92.4744 127.596 92.4744C127.772 92.4744 127.973 92.4957 128.2 92.5384C128.43 92.5786 128.651 92.6626 128.864 92.7905C129.08 92.9183 129.258 93.1113 129.4 93.3693C129.542 93.6274 129.613 93.973 129.613 94.4062V98H128.775V97.2614H128.733C128.676 97.3797 128.581 97.5064 128.449 97.6413C128.316 97.7763 128.14 97.8911 127.919 97.9858C127.699 98.0805 127.431 98.1278 127.113 98.1278ZM127.241 97.375C127.573 97.375 127.852 97.3099 128.079 97.1797C128.309 97.0495 128.482 96.8814 128.598 96.6754C128.716 96.4695 128.775 96.2528 128.775 96.0256V95.2585C128.74 95.3011 128.662 95.3402 128.541 95.3757C128.423 95.4089 128.285 95.4384 128.129 95.4645C127.975 95.4882 127.825 95.5095 127.678 95.5284C127.534 95.545 127.416 95.5592 127.326 95.571C127.109 95.5994 126.905 95.6456 126.716 95.7095C126.529 95.7711 126.377 95.8646 126.261 95.9901C126.147 96.1132 126.091 96.2812 126.091 96.4943C126.091 96.7855 126.198 97.0057 126.414 97.1548C126.632 97.3016 126.907 97.375 127.241 97.375ZM131.143 98V92.5455H131.953V93.3693H132.009C132.109 93.0994 132.289 92.8804 132.549 92.7124C132.81 92.5443 133.103 92.4602 133.43 92.4602C133.492 92.4602 133.568 92.4614 133.661 92.4638C133.753 92.4661 133.823 92.4697 133.87 92.4744V93.3267C133.842 93.3196 133.777 93.3089 133.675 93.2947C133.576 93.2782 133.47 93.2699 133.359 93.2699C133.094 93.2699 132.857 93.3255 132.649 93.4368C132.443 93.5457 132.279 93.6972 132.159 93.8913C132.04 94.0831 131.981 94.3021 131.981 94.5483V98H131.143ZM135.57 100.045C135.427 100.045 135.301 100.034 135.19 100.01C135.078 99.9886 135.001 99.9673 134.959 99.946L135.172 99.2074C135.375 99.2595 135.555 99.2784 135.712 99.2642C135.868 99.25 136.006 99.1802 136.127 99.0547C136.25 98.9316 136.363 98.7315 136.464 98.4545L136.621 98.0284L134.604 92.5455H135.513L137.018 96.892H137.075L138.581 92.5455H139.49L137.175 98.7955C137.07 99.0772 136.941 99.3104 136.788 99.495C136.634 99.6821 136.455 99.8205 136.251 99.9105C136.05 100 135.823 100.045 135.57 100.045Z" fill="white"/>
<g filter="url(#filter0_d_140_837)">
<circle cx="195" cy="44" r="36" fill="white"/>
<circle cx="195" cy="44" r="35.5" stroke="#10A089"/>
</g>
<path d="M206.773 38.68L198.04 31.6933C196.333 30.3333 193.666 30.32 191.973 31.68L183.24 38.68C181.986 39.68 181.226 41.68 181.493 43.2533L183.173 53.3067C183.56 55.56 185.653 57.3333 187.933 57.3333H202.066C204.32 57.3333 206.453 55.52 206.84 53.2933L208.52 43.24C208.76 41.68 208 39.68 206.773 38.68ZM196 52C196 52.5466 195.546 53 195 53C194.453 53 194 52.5466 194 52V48C194 47.4533 194.453 47 195 47C195.546 47 196 47.4533 196 48V52Z" fill="#10A089"/>
<path d="M180.94 98V90.7273H181.821V93.9659H185.699V90.7273H186.579V98H185.699V94.7472H181.821V98H180.94ZM190.445 98.1136C189.952 98.1136 189.52 97.9964 189.149 97.7621C188.779 97.5277 188.491 97.1998 188.282 96.7784C188.076 96.357 187.973 95.8646 187.973 95.3011C187.973 94.733 188.076 94.237 188.282 93.8132C188.491 93.3894 188.779 93.0604 189.149 92.826C189.52 92.5916 189.952 92.4744 190.445 92.4744C190.937 92.4744 191.368 92.5916 191.737 92.826C192.109 93.0604 192.398 93.3894 192.604 93.8132C192.812 94.237 192.916 94.733 192.916 95.3011C192.916 95.8646 192.812 96.357 192.604 96.7784C192.398 97.1998 192.109 97.5277 191.737 97.7621C191.368 97.9964 190.937 98.1136 190.445 98.1136ZM190.445 97.3608C190.819 97.3608 191.127 97.2649 191.368 97.0732C191.61 96.8814 191.788 96.6293 191.904 96.3168C192.02 96.0043 192.078 95.6657 192.078 95.3011C192.078 94.9366 192.02 94.5968 191.904 94.282C191.788 93.9671 191.61 93.7126 191.368 93.5185C191.127 93.3243 190.819 93.2273 190.445 93.2273C190.071 93.2273 189.763 93.3243 189.522 93.5185C189.28 93.7126 189.101 93.9671 188.985 94.282C188.869 94.5968 188.811 94.9366 188.811 95.3011C188.811 95.6657 188.869 96.0043 188.985 96.3168C189.101 96.6293 189.28 96.8814 189.522 97.0732C189.763 97.2649 190.071 97.3608 190.445 97.3608ZM194.196 98V92.5455H195.005V93.3977H195.076C195.19 93.1065 195.374 92.8804 195.627 92.7195C195.88 92.5561 196.184 92.4744 196.54 92.4744C196.899 92.4744 197.199 92.5561 197.438 92.7195C197.679 92.8804 197.868 93.1065 198.003 93.3977H198.059C198.199 93.116 198.409 92.8923 198.688 92.7266C198.967 92.5585 199.302 92.4744 199.693 92.4744C200.181 92.4744 200.58 92.6271 200.89 92.9325C201.2 93.2356 201.355 93.7079 201.355 94.3494V98H200.517V94.3494C200.517 93.947 200.407 93.6593 200.187 93.4865C199.966 93.3137 199.707 93.2273 199.409 93.2273C199.025 93.2273 198.728 93.3433 198.517 93.5753C198.307 93.8049 198.201 94.0961 198.201 94.4489V98H197.349V94.2642C197.349 93.9541 197.249 93.7043 197.047 93.5149C196.846 93.3232 196.587 93.2273 196.27 93.2273C196.052 93.2273 195.848 93.2853 195.659 93.4013C195.472 93.5173 195.32 93.6783 195.204 93.8842C195.091 94.0878 195.034 94.3234 195.034 94.5909V98H194.196ZM205.174 98.1136C204.649 98.1136 204.195 97.9976 203.814 97.7656C203.435 97.5312 203.143 97.2045 202.937 96.7855C202.733 96.3641 202.631 95.8741 202.631 95.3153C202.631 94.7566 202.733 94.2642 202.937 93.8381C203.143 93.4096 203.429 93.0758 203.796 92.8366C204.166 92.5952 204.596 92.4744 205.089 92.4744C205.373 92.4744 205.653 92.5218 205.93 92.6165C206.207 92.7112 206.46 92.8651 206.687 93.0781C206.914 93.2888 207.095 93.5682 207.23 93.9162C207.365 94.2642 207.433 94.6927 207.433 95.2017V95.5568H203.228V94.8324H206.58C206.58 94.5246 206.519 94.25 206.396 94.0085C206.275 93.767 206.102 93.5765 205.877 93.4368C205.655 93.2971 205.392 93.2273 205.089 93.2273C204.755 93.2273 204.466 93.3101 204.222 93.4759C203.981 93.6392 203.795 93.8523 203.665 94.1151C203.535 94.3778 203.47 94.6596 203.47 94.9602V95.4432C203.47 95.8551 203.541 96.2043 203.683 96.4908C203.827 96.7749 204.027 96.9915 204.283 97.1406C204.538 97.2874 204.836 97.3608 205.174 97.3608C205.394 97.3608 205.593 97.33 205.771 97.2685C205.951 97.2045 206.106 97.1098 206.236 96.9844C206.366 96.8565 206.467 96.6979 206.538 96.5085L207.347 96.7358C207.262 97.0104 207.119 97.2519 206.918 97.4602C206.716 97.6662 206.468 97.8272 206.172 97.9432C205.876 98.0568 205.543 98.1136 205.174 98.1136Z" fill="white"/>
<path d="M123.587 50.6666H112.413C107.56 50.6666 104.667 53.56 104.667 58.4133V69.5733C104.667 74.44 107.56 77.3333 112.413 77.3333H123.573C128.427 77.3333 131.32 74.44 131.32 69.5866V58.4133C131.333 53.56 128.44 50.6666 123.587 50.6666ZM115.213 69.5866C115.213 70.44 114.52 71.1333 113.653 71.1333C112.8 71.1333 112.107 70.44 112.107 69.5866V65.24C112.107 64.3866 112.8 63.6933 113.653 63.6933C114.52 63.6933 115.213 64.3866 115.213 65.24V69.5866ZM123.893 69.5866C123.893 70.44 123.2 71.1333 122.347 71.1333C121.48 71.1333 120.787 70.44 120.787 69.5866V58.4133C120.787 57.56 121.48 56.8666 122.347 56.8666C123.2 56.8666 123.893 57.56 123.893 58.4133V69.5866Z" fill="white"/>
<path d="M252.887 90.7273V98H252.035L248.072 92.2898H248.001V98H247.12V90.7273H247.972L251.949 96.4517H252.021V90.7273H252.887ZM256.752 98.1136C256.259 98.1136 255.827 97.9964 255.455 97.7621C255.086 97.5277 254.797 97.1998 254.589 96.7784C254.383 96.357 254.28 95.8646 254.28 95.3011C254.28 94.733 254.383 94.237 254.589 93.8132C254.797 93.3894 255.086 93.0604 255.455 92.826C255.827 92.5916 256.259 92.4744 256.752 92.4744C257.244 92.4744 257.675 92.5916 258.044 92.826C258.416 93.0604 258.705 93.3894 258.911 93.8132C259.119 94.237 259.223 94.733 259.223 95.3011C259.223 95.8646 259.119 96.357 258.911 96.7784C258.705 97.1998 258.416 97.5277 258.044 97.7621C257.675 97.9964 257.244 98.1136 256.752 98.1136ZM256.752 97.3608C257.126 97.3608 257.433 97.2649 257.675 97.0732C257.916 96.8814 258.095 96.6293 258.211 96.3168C258.327 96.0043 258.385 95.6657 258.385 95.3011C258.385 94.9366 258.327 94.5968 258.211 94.282C258.095 93.9671 257.916 93.7126 257.675 93.5185C257.433 93.3243 257.126 93.2273 256.752 93.2273C256.377 93.2273 256.07 93.3243 255.828 93.5185C255.587 93.7126 255.408 93.9671 255.292 94.282C255.176 94.5968 255.118 94.9366 255.118 95.3011C255.118 95.6657 255.176 96.0043 255.292 96.3168C255.408 96.6293 255.587 96.8814 255.828 97.0732C256.07 97.2649 256.377 97.3608 256.752 97.3608ZM262.875 92.5455V93.2557H260.048V92.5455H262.875ZM260.872 91.2386H261.71V96.4375C261.71 96.6742 261.744 96.8518 261.813 96.9702C261.884 97.0862 261.974 97.1643 262.083 97.2045C262.194 97.2424 262.311 97.2614 262.434 97.2614C262.527 97.2614 262.602 97.2566 262.661 97.2472C262.721 97.2353 262.768 97.2259 262.804 97.2188L262.974 97.9716C262.917 97.9929 262.838 98.0142 262.736 98.0355C262.634 98.0592 262.505 98.071 262.349 98.071C262.112 98.071 261.88 98.0201 261.653 97.9183C261.428 97.8165 261.241 97.6615 261.092 97.4531C260.945 97.2448 260.872 96.982 260.872 96.6648V91.2386ZM264.135 98V92.5455H264.973V98H264.135ZM264.561 91.6364C264.398 91.6364 264.257 91.5807 264.139 91.4695C264.023 91.3582 263.965 91.2244 263.965 91.0682C263.965 90.9119 264.023 90.7782 264.139 90.6669C264.257 90.5556 264.398 90.5 264.561 90.5C264.725 90.5 264.864 90.5556 264.98 90.6669C265.099 90.7782 265.158 90.9119 265.158 91.0682C265.158 91.2244 265.099 91.3582 264.98 91.4695C264.864 91.5807 264.725 91.6364 264.561 91.6364ZM268.937 92.5455V93.2557H265.997V92.5455H268.937ZM266.878 98V91.7926C266.878 91.4801 266.951 91.2197 267.098 91.0114C267.245 90.803 267.435 90.6468 267.669 90.5426C267.904 90.4384 268.151 90.3864 268.412 90.3864C268.618 90.3864 268.786 90.4029 268.916 90.4361C269.046 90.4692 269.143 90.5 269.207 90.5284L268.966 91.2528C268.923 91.2386 268.864 91.2209 268.788 91.1996C268.715 91.1783 268.618 91.1676 268.497 91.1676C268.22 91.1676 268.02 91.2375 267.897 91.3771C267.776 91.5168 267.716 91.7216 267.716 91.9915V98H266.878ZM270.112 98V92.5455H270.95V98H270.112ZM270.538 91.6364C270.375 91.6364 270.234 91.5807 270.115 91.4695C269.999 91.3582 269.941 91.2244 269.941 91.0682C269.941 90.9119 269.999 90.7782 270.115 90.6669C270.234 90.5556 270.375 90.5 270.538 90.5C270.701 90.5 270.841 90.5556 270.957 90.6669C271.075 90.7782 271.134 90.9119 271.134 91.0682C271.134 91.2244 271.075 91.3582 270.957 91.4695C270.841 91.5807 270.701 91.6364 270.538 91.6364ZM274.701 98.1136C274.189 98.1136 273.749 97.9929 273.38 97.7514C273.01 97.5099 272.726 97.1773 272.527 96.7536C272.329 96.3298 272.229 95.8456 272.229 95.3011C272.229 94.7472 272.331 94.2583 272.535 93.8345C272.741 93.4084 273.027 93.0758 273.394 92.8366C273.763 92.5952 274.194 92.4744 274.687 92.4744C275.07 92.4744 275.416 92.5455 275.723 92.6875C276.031 92.8295 276.283 93.0284 276.48 93.2841C276.676 93.5398 276.798 93.8381 276.846 94.179H276.008C275.944 93.9304 275.802 93.7102 275.581 93.5185C275.364 93.3243 275.07 93.2273 274.701 93.2273C274.374 93.2273 274.088 93.3125 273.841 93.483C273.598 93.651 273.407 93.889 273.27 94.1967C273.135 94.5021 273.067 94.8608 273.067 95.2727C273.067 95.6941 273.133 96.0611 273.266 96.3736C273.401 96.6861 273.59 96.9287 273.834 97.1016C274.08 97.2744 274.369 97.3608 274.701 97.3608C274.919 97.3608 275.116 97.3229 275.294 97.2472C275.471 97.1714 275.622 97.0625 275.745 96.9205C275.868 96.7784 275.955 96.608 276.008 96.4091H276.846C276.798 96.7311 276.681 97.0211 276.494 97.2791C276.309 97.5348 276.064 97.7384 275.759 97.8899C275.456 98.0391 275.103 98.1136 274.701 98.1136ZM279.676 98.1278C279.33 98.1278 279.017 98.0627 278.735 97.9325C278.453 97.8 278.229 97.6094 278.064 97.3608C277.898 97.1098 277.815 96.8068 277.815 96.4517C277.815 96.1392 277.877 95.8859 278 95.6918C278.123 95.4953 278.287 95.3414 278.493 95.2301C278.699 95.1188 278.927 95.036 279.175 94.9815C279.426 94.9247 279.678 94.8797 279.932 94.8466C280.263 94.804 280.532 94.772 280.738 94.7507C280.946 94.727 281.098 94.688 281.192 94.6335C281.289 94.5791 281.338 94.4844 281.338 94.3494V94.321C281.338 93.9706 281.242 93.6984 281.05 93.5043C280.861 93.3101 280.573 93.2131 280.187 93.2131C279.787 93.2131 279.473 93.3007 279.246 93.4759C279.019 93.651 278.859 93.8381 278.767 94.0369L277.971 93.7528C278.113 93.4214 278.303 93.1634 278.54 92.9787C278.779 92.7917 279.039 92.6615 279.321 92.5881C279.605 92.5123 279.884 92.4744 280.159 92.4744C280.334 92.4744 280.535 92.4957 280.763 92.5384C280.992 92.5786 281.214 92.6626 281.427 92.7905C281.642 92.9183 281.821 93.1113 281.963 93.3693C282.105 93.6274 282.176 93.973 282.176 94.4062V98H281.338V97.2614H281.295C281.238 97.3797 281.144 97.5064 281.011 97.6413C280.879 97.7763 280.702 97.8911 280.482 97.9858C280.262 98.0805 279.993 98.1278 279.676 98.1278ZM279.804 97.375C280.135 97.375 280.415 97.3099 280.642 97.1797C280.871 97.0495 281.044 96.8814 281.16 96.6754C281.279 96.4695 281.338 96.2528 281.338 96.0256V95.2585C281.302 95.3011 281.224 95.3402 281.103 95.3757C280.985 95.4089 280.848 95.4384 280.691 95.4645C280.538 95.4882 280.387 95.5095 280.241 95.5284C280.096 95.545 279.979 95.5592 279.889 95.571C279.671 95.5994 279.468 95.6456 279.278 95.7095C279.091 95.7711 278.94 95.8646 278.824 95.9901C278.71 96.1132 278.653 96.2812 278.653 96.4943C278.653 96.7855 278.761 97.0057 278.976 97.1548C279.194 97.3016 279.47 97.375 279.804 97.375ZM286.078 92.5455V93.2557H283.251V92.5455H286.078ZM284.075 91.2386H284.913V96.4375C284.913 96.6742 284.947 96.8518 285.016 96.9702C285.087 97.0862 285.177 97.1643 285.286 97.2045C285.397 97.2424 285.514 97.2614 285.637 97.2614C285.73 97.2614 285.805 97.2566 285.865 97.2472C285.924 97.2353 285.971 97.2259 286.007 97.2188L286.177 97.9716C286.12 97.9929 286.041 98.0142 285.939 98.0355C285.837 98.0592 285.708 98.071 285.552 98.071C285.315 98.071 285.083 98.0201 284.856 97.9183C284.631 97.8165 284.444 97.6615 284.295 97.4531C284.148 97.2448 284.075 96.982 284.075 96.6648V91.2386ZM287.338 98V92.5455H288.176V98H287.338ZM287.764 91.6364C287.601 91.6364 287.46 91.5807 287.342 91.4695C287.226 91.3582 287.168 91.2244 287.168 91.0682C287.168 90.9119 287.226 90.7782 287.342 90.6669C287.46 90.5556 287.601 90.5 287.764 90.5C287.928 90.5 288.068 90.5556 288.184 90.6669C288.302 90.7782 288.361 90.9119 288.361 91.0682C288.361 91.2244 288.302 91.3582 288.184 91.4695C288.068 91.5807 287.928 91.6364 287.764 91.6364ZM291.927 98.1136C291.435 98.1136 291.003 97.9964 290.631 97.7621C290.262 97.5277 289.973 97.1998 289.765 96.7784C289.559 96.357 289.456 95.8646 289.456 95.3011C289.456 94.733 289.559 94.237 289.765 93.8132C289.973 93.3894 290.262 93.0604 290.631 92.826C291.003 92.5916 291.435 92.4744 291.927 92.4744C292.42 92.4744 292.851 92.5916 293.22 92.826C293.592 93.0604 293.88 93.3894 294.086 93.8132C294.295 94.237 294.399 94.733 294.399 95.3011C294.399 95.8646 294.295 96.357 294.086 96.7784C293.88 97.1998 293.592 97.5277 293.22 97.7621C292.851 97.9964 292.42 98.1136 291.927 98.1136ZM291.927 97.3608C292.301 97.3608 292.609 97.2649 292.851 97.0732C293.092 96.8814 293.271 96.6293 293.387 96.3168C293.503 96.0043 293.561 95.6657 293.561 95.3011C293.561 94.9366 293.503 94.5968 293.387 94.282C293.271 93.9671 293.092 93.7126 292.851 93.5185C292.609 93.3243 292.301 93.2273 291.927 93.2273C291.553 93.2273 291.245 93.3243 291.004 93.5185C290.763 93.7126 290.584 93.9671 290.468 94.282C290.352 94.5968 290.294 94.9366 290.294 95.3011C290.294 95.6657 290.352 96.0043 290.468 96.3168C290.584 96.6293 290.763 96.8814 291.004 97.0732C291.245 97.2649 291.553 97.3608 291.927 97.3608ZM296.516 94.7188V98H295.678V92.5455H296.488V93.3977H296.559C296.687 93.1207 296.881 92.8982 297.141 92.7301C297.402 92.5597 297.738 92.4744 298.15 92.4744C298.519 92.4744 298.842 92.5502 299.119 92.7017C299.396 92.8509 299.612 93.0781 299.766 93.3835C299.919 93.6866 299.996 94.0701 299.996 94.5341V98H299.158V94.5909C299.158 94.1624 299.047 93.8286 298.824 93.5895C298.602 93.348 298.297 93.2273 297.908 93.2273C297.641 93.2273 297.402 93.2853 297.191 93.4013C296.983 93.5173 296.818 93.6866 296.697 93.9091C296.577 94.1316 296.516 94.4015 296.516 94.7188Z" fill="white"/>
<path d="M283.333 58.6666C285.543 58.6666 287.333 56.8758 287.333 54.6666C287.333 52.4575 285.543 50.6666 283.333 50.6666C281.124 50.6666 279.333 52.4575 279.333 54.6666C279.333 56.8758 281.124 58.6666 283.333 58.6666Z" fill="white"/>
<path d="M286 61.8667V69.9733C286 70.16 285.987 70.3467 285.973 70.52C285.96 70.68 285.947 70.8267 285.92 70.9867C285.907 71.1467 285.88 71.3067 285.853 71.4533C285.387 74.68 283.333 76.72 280.12 77.1867C279.973 77.2133 279.813 77.24 279.653 77.2533C279.493 77.28 279.347 77.2933 279.187 77.3067C279.013 77.32 278.827 77.3333 278.64 77.3333H268.027C267.84 77.3333 267.653 77.32 267.48 77.3067C267.32 77.2933 267.173 77.28 267.013 77.2533C266.853 77.24 266.693 77.2133 266.547 77.1867C263.333 76.72 261.28 74.68 260.813 71.4533C260.787 71.3067 260.76 71.1467 260.747 70.9867C260.72 70.8267 260.707 70.68 260.693 70.52C260.68 70.3467 260.667 70.16 260.667 69.9733V59.36C260.667 59.1733 260.68 58.9867 260.693 58.8133C260.707 58.6533 260.72 58.5067 260.747 58.3467C260.76 58.1867 260.787 58.0267 260.813 57.88C261.28 54.6533 263.333 52.6133 266.547 52.1467C266.693 52.12 266.853 52.0933 267.013 52.08C267.173 52.0533 267.32 52.04 267.48 52.0267C267.653 52.0133 267.84 52 268.027 52H276.133C276.987 52 277.6 52.7733 277.44 53.6C277.44 53.6267 277.427 53.6533 277.427 53.68C277.4 53.8133 277.387 53.9467 277.36 54.0933C277.307 54.6533 277.333 55.2533 277.453 55.8667C277.493 56.0267 277.52 56.16 277.573 56.3067C277.68 56.7467 277.853 57.16 278.08 57.5467C278.16 57.7067 278.267 57.8667 278.36 58.0133C278.8 58.6533 279.347 59.2 279.987 59.64C280.133 59.7333 280.293 59.84 280.453 59.92C280.84 60.1467 281.253 60.32 281.693 60.4267C281.84 60.48 281.973 60.5067 282.133 60.5467C282.747 60.6667 283.347 60.6933 283.907 60.64C284.053 60.6133 284.187 60.6 284.32 60.5733C284.347 60.5733 284.373 60.56 284.4 60.56C285.227 60.4 286 61.0133 286 61.8667Z" fill="white"/>
<path d="M328.223 90.7273H329.275L331.746 96.7642H331.831L334.303 90.7273H335.354V98H334.53V92.4744H334.459L332.187 98H331.391L329.118 92.4744H329.047V98H328.223V90.7273ZM337.546 100.045C337.404 100.045 337.277 100.034 337.166 100.01C337.055 99.9886 336.978 99.9673 336.935 99.946L337.148 99.2074C337.352 99.2595 337.532 99.2784 337.688 99.2642C337.844 99.25 337.983 99.1802 338.104 99.0547C338.227 98.9316 338.339 98.7315 338.441 98.4545L338.597 98.0284L336.58 92.5455H337.489L338.995 96.892H339.052L340.557 92.5455H341.467L339.151 98.7955C339.047 99.0772 338.918 99.3104 338.764 99.495C338.61 99.6821 338.431 99.8205 338.228 99.9105C338.027 100 337.799 100.045 337.546 100.045ZM345.499 98V90.7273H347.956C348.527 90.7273 348.993 90.8303 349.355 91.0362C349.72 91.2398 349.99 91.5156 350.165 91.8636C350.34 92.2116 350.428 92.5999 350.428 93.0284C350.428 93.4569 350.34 93.8464 350.165 94.1967C349.992 94.5471 349.725 94.8265 349.362 95.0348C349 95.2408 348.536 95.3438 347.97 95.3438H346.209V94.5625H347.942C348.333 94.5625 348.646 94.495 348.883 94.3601C349.12 94.2251 349.291 94.0429 349.398 93.8132C349.507 93.5812 349.561 93.3196 349.561 93.0284C349.561 92.7372 349.507 92.4768 349.398 92.2472C349.291 92.0175 349.119 91.8376 348.88 91.7074C348.64 91.5748 348.323 91.5085 347.928 91.5085H346.38V98H345.499ZM351.733 98V92.5455H352.543V93.3693H352.599C352.699 93.0994 352.879 92.8804 353.139 92.7124C353.4 92.5443 353.693 92.4602 354.02 92.4602C354.081 92.4602 354.158 92.4614 354.251 92.4638C354.343 92.4661 354.413 92.4697 354.46 92.4744V93.3267C354.432 93.3196 354.367 93.3089 354.265 93.2947C354.165 93.2782 354.06 93.2699 353.949 93.2699C353.684 93.2699 353.447 93.3255 353.239 93.4368C353.033 93.5457 352.869 93.6972 352.748 93.8913C352.63 94.0831 352.571 94.3021 352.571 94.5483V98H351.733ZM357.503 98.1136C357.011 98.1136 356.579 97.9964 356.207 97.7621C355.838 97.5277 355.549 97.1998 355.341 96.7784C355.135 96.357 355.032 95.8646 355.032 95.3011C355.032 94.733 355.135 94.237 355.341 93.8132C355.549 93.3894 355.838 93.0604 356.207 92.826C356.579 92.5916 357.011 92.4744 357.503 92.4744C357.996 92.4744 358.427 92.5916 358.796 92.826C359.168 93.0604 359.457 93.3894 359.663 93.8132C359.871 94.237 359.975 94.733 359.975 95.3011C359.975 95.8646 359.871 96.357 359.663 96.7784C359.457 97.1998 359.168 97.5277 358.796 97.7621C358.427 97.9964 357.996 98.1136 357.503 98.1136ZM357.503 97.3608C357.878 97.3608 358.185 97.2649 358.427 97.0732C358.668 96.8814 358.847 96.6293 358.963 96.3168C359.079 96.0043 359.137 95.6657 359.137 95.3011C359.137 94.9366 359.079 94.5968 358.963 94.282C358.847 93.9671 358.668 93.7126 358.427 93.5185C358.185 93.3243 357.878 93.2273 357.503 93.2273C357.129 93.2273 356.822 93.3243 356.58 93.5185C356.339 93.7126 356.16 93.9671 356.044 94.282C355.928 94.5968 355.87 94.9366 355.87 95.3011C355.87 95.6657 355.928 96.0043 356.044 96.3168C356.16 96.6293 356.339 96.8814 356.58 97.0732C356.822 97.2649 357.129 97.3608 357.503 97.3608ZM363.683 92.5455V93.2557H360.743V92.5455H363.683ZM361.624 98V91.7926C361.624 91.4801 361.697 91.2197 361.844 91.0114C361.991 90.803 362.181 90.6468 362.416 90.5426C362.65 90.4384 362.897 90.3864 363.158 90.3864C363.364 90.3864 363.532 90.4029 363.662 90.4361C363.792 90.4692 363.889 90.5 363.953 90.5284L363.712 91.2528C363.669 91.2386 363.61 91.2209 363.534 91.1996C363.461 91.1783 363.364 91.1676 363.243 91.1676C362.966 91.1676 362.766 91.2375 362.643 91.3771C362.522 91.5168 362.462 91.7216 362.462 91.9915V98H361.624ZM364.858 98V92.5455H365.696V98H364.858ZM365.284 91.6364C365.121 91.6364 364.98 91.5807 364.861 91.4695C364.745 91.3582 364.687 91.2244 364.687 91.0682C364.687 90.9119 364.745 90.7782 364.861 90.6669C364.98 90.5556 365.121 90.5 365.284 90.5C365.447 90.5 365.587 90.5556 365.703 90.6669C365.821 90.7782 365.881 90.9119 365.881 91.0682C365.881 91.2244 365.821 91.3582 365.703 91.4695C365.587 91.5807 365.447 91.6364 365.284 91.6364ZM368.069 90.7273V98H367.231V90.7273H368.069ZM371.891 98.1136C371.365 98.1136 370.912 97.9976 370.531 97.7656C370.152 97.5312 369.86 97.2045 369.654 96.7855C369.45 96.3641 369.348 95.8741 369.348 95.3153C369.348 94.7566 369.45 94.2642 369.654 93.8381C369.86 93.4096 370.146 93.0758 370.513 92.8366C370.882 92.5952 371.313 92.4744 371.806 92.4744C372.09 92.4744 372.37 92.5218 372.647 92.6165C372.924 92.7112 373.176 92.8651 373.404 93.0781C373.631 93.2888 373.812 93.5682 373.947 93.9162C374.082 94.2642 374.149 94.6927 374.149 95.2017V95.5568H369.945V94.8324H373.297C373.297 94.5246 373.236 94.25 373.112 94.0085C372.992 93.767 372.819 93.5765 372.594 93.4368C372.371 93.2971 372.109 93.2273 371.806 93.2273C371.472 93.2273 371.183 93.3101 370.939 93.4759C370.698 93.6392 370.512 93.8523 370.382 94.1151C370.251 94.3778 370.186 94.6596 370.186 94.9602V95.4432C370.186 95.8551 370.257 96.2043 370.399 96.4908C370.544 96.7749 370.744 96.9915 371 97.1406C371.255 97.2874 371.552 97.3608 371.891 97.3608C372.111 97.3608 372.31 97.33 372.487 97.2685C372.667 97.2045 372.822 97.1098 372.953 96.9844C373.083 96.8565 373.184 96.6979 373.255 96.5085L374.064 96.7358C373.979 97.0104 373.836 97.2519 373.634 97.4602C373.433 97.6662 373.185 97.8272 372.889 97.9432C372.593 98.0568 372.26 98.1136 371.891 98.1136Z" fill="white"/>
<path d="M352 50.6666C348.507 50.6666 345.667 53.5066 345.667 57C345.667 60.4266 348.347 63.2 351.84 63.32C351.947 63.3066 352.053 63.3066 352.133 63.32C352.16 63.32 352.173 63.32 352.2 63.32C352.213 63.32 352.213 63.32 352.227 63.32C355.64 63.2 358.32 60.4266 358.333 57C358.333 53.5066 355.493 50.6666 352 50.6666Z" fill="white"/>
<path d="M358.773 66.8667C355.053 64.3867 348.987 64.3867 345.24 66.8667C343.547 68 342.613 69.5334 342.613 71.1734C342.613 72.8134 343.547 74.3334 345.227 75.4534C347.093 76.7067 349.547 77.3334 352 77.3334C354.453 77.3334 356.907 76.7067 358.773 75.4534C360.453 74.32 361.387 72.8 361.387 71.1467C361.373 69.5067 360.453 67.9867 358.773 66.8667Z" fill="white"/>
<defs>
<filter id="filter0_d_140_837" x="143" y="0" width="104" height="104" filterUnits="userSpaceOnUse" color-interpolation-filters="sRGB">
<feFlood flood-opacity="0" result="BackgroundImageFix"/>
<feColorMatrix in="SourceAlpha" type="matrix" values="0 0 0 0 0 0 0 0 0 0 0 0 0 0 0 0 0 0 127 0" result="hardAlpha"/>
<feOffset dy="8"/>
<feGaussianBlur stdDeviation="8"/>
<feComposite in2="hardAlpha" operator="out"/>
<feColorMatrix type="matrix" values="0 0 0 0 0 0 0 0 0 0 0 0 0 0 0 0 0 0 0.15 0"/>
<feBlend mode="normal" in2="BackgroundImageFix" result="effect1_dropShadow_140_837"/>
<feBlend mode="normal" in="SourceGraphic" in2="effect1_dropShadow_140_837" result="shape"/>
</filter>
<linearGradient id="paint0_linear_140_837" x1="390" y1="120" x2="0" y2="120" gradientUnits="userSpaceOnUse">
<stop stop-color="#08AA4D"/>
<stop offset="1" stop-color="#129C98"/>
</linearGradient>
</defs>
</svg>
