<svg width="32" height="32" viewBox="0 0 32 32" fill="none" xmlns="http://www.w3.org/2000/svg">
<path d="M25.333 10.6667C27.5421 10.6667 29.333 8.87589 29.333 6.66675C29.333 4.45761 27.5421 2.66675 25.333 2.66675C23.1239 2.66675 21.333 4.45761 21.333 6.66675C21.333 8.87589 23.1239 10.6667 25.333 10.6667Z" fill="white"/>
<path d="M28.0003 13.8667V21.9733C28.0003 22.16 27.987 22.3467 27.9737 22.52C27.9603 22.68 27.947 22.8267 27.9203 22.9867C27.907 23.1467 27.8803 23.3067 27.8537 23.4533C27.387 26.68 25.3337 28.72 22.1203 29.1867C21.9737 29.2133 21.8137 29.24 21.6537 29.2533C21.4937 29.28 21.347 29.2933 21.187 29.3067C21.0137 29.32 20.827 29.3333 20.6403 29.3333H10.027C9.84033 29.3333 9.65366 29.32 9.48033 29.3067C9.32033 29.2933 9.17366 29.28 9.01366 29.2533C8.85366 29.24 8.69366 29.2133 8.54699 29.1867C5.33366 28.72 3.28033 26.68 2.81366 23.4533C2.78699 23.3067 2.76033 23.1467 2.74699 22.9867C2.72033 22.8267 2.70699 22.68 2.69366 22.52C2.68033 22.3467 2.66699 22.16 2.66699 21.9733V11.36C2.66699 11.1733 2.68033 10.9867 2.69366 10.8133C2.70699 10.6533 2.72033 10.5067 2.74699 10.3467C2.76033 10.1867 2.78699 10.0267 2.81366 9.88C3.28033 6.65333 5.33366 4.61333 8.54699 4.14667C8.69366 4.12 8.85366 4.09333 9.01366 4.08C9.17366 4.05333 9.32033 4.04 9.48033 4.02667C9.65366 4.01333 9.84033 4 10.027 4H18.1337C18.987 4 19.6003 4.77333 19.4403 5.6C19.4403 5.62667 19.427 5.65333 19.427 5.68C19.4003 5.81333 19.387 5.94667 19.3603 6.09333C19.307 6.65333 19.3337 7.25333 19.4537 7.86667C19.4937 8.02667 19.5203 8.16 19.5737 8.30667C19.6803 8.74667 19.8537 9.16 20.0803 9.54667C20.1603 9.70667 20.267 9.86667 20.3603 10.0133C20.8003 10.6533 21.347 11.2 21.987 11.64C22.1337 11.7333 22.2937 11.84 22.4537 11.92C22.8403 12.1467 23.2537 12.32 23.6937 12.4267C23.8403 12.48 23.9737 12.5067 24.1337 12.5467C24.747 12.6667 25.347 12.6933 25.907 12.64C26.0537 12.6133 26.187 12.6 26.3203 12.5733C26.347 12.5733 26.3737 12.56 26.4003 12.56C27.227 12.4 28.0003 13.0133 28.0003 13.8667Z" fill="white"/>
</svg>
