<svg width="32" height="32" viewBox="0 0 32 32" fill="none" xmlns="http://www.w3.org/2000/svg">
<path d="M21.587 2.66675H10.4137C5.56033 2.66675 2.66699 5.56008 2.66699 10.4134V21.5734C2.66699 26.4401 5.56033 29.3334 10.4137 29.3334H21.5737C26.427 29.3334 29.3203 26.4401 29.3203 21.5868V10.4134C29.3337 5.56008 26.4403 2.66675 21.587 2.66675ZM13.2137 21.5868C13.2137 22.4401 12.5203 23.1334 11.6537 23.1334C10.8003 23.1334 10.107 22.4401 10.107 21.5868V17.2401C10.107 16.3867 10.8003 15.6934 11.6537 15.6934C12.5203 15.6934 13.2137 16.3867 13.2137 17.2401V21.5868ZM21.8937 21.5868C21.8937 22.4401 21.2003 23.1334 20.347 23.1334C19.4803 23.1334 18.787 22.4401 18.787 21.5868V10.4134C18.787 9.56008 19.4803 8.86675 20.347 8.86675C21.2003 8.86675 21.8937 9.56008 21.8937 10.4134V21.5868Z" fill="white"/>
</svg>
