<svg width="20" height="20" viewBox="0 0 20 20" fill="none" xmlns="http://www.w3.org/2000/svg">
<g clip-path="url(#clip0_889_5432)">
<path d="M17.8451 0H2.15492C0.96668 0 0 0.966719 0 2.15496V14.0795C0 15.2677 0.96668 16.2344 2.15492 16.2344H11.3802V13.7656C11.3802 11.7582 13.0134 10.125 15.0208 10.125C17.0282 10.125 18.6614 11.7582 18.6614 13.7656V16.0733C19.4459 15.7509 20 14.9788 20 14.0795V2.15496C20 0.966719 19.0333 0 17.8451 0ZM5.60676 2.55207H14.3932C14.7168 2.55207 14.9792 2.81441 14.9792 3.13801C14.9792 3.4616 14.7168 3.72395 14.3932 3.72395H5.60676C5.2832 3.72395 5.02082 3.4616 5.02082 3.13801C5.02082 2.81441 5.2832 2.55207 5.60676 2.55207ZM9.4557 13.0964H3.09633C2.77277 13.0964 2.51039 12.834 2.51039 12.5104C2.51039 12.1868 2.77277 11.9245 3.09633 11.9245H9.45574C9.77938 11.9245 10.0417 12.1868 10.0417 12.5104C10.0417 12.834 9.77938 13.0964 9.4557 13.0964ZM16.9036 8.7448H3.09633C2.77277 8.7448 2.51039 8.48246 2.51039 8.15887C2.51039 7.83527 2.77277 7.57293 3.09633 7.57293H16.9036C17.2273 7.57293 17.4896 7.83527 17.4896 8.15887C17.4895 8.48246 17.2273 8.7448 16.9036 8.7448ZM16.9036 6.23438H3.09633C2.77277 6.23438 2.51039 5.97203 2.51039 5.64844C2.51039 5.32484 2.77277 5.0625 3.09633 5.0625H16.9036C17.2273 5.0625 17.4896 5.32484 17.4896 5.64844C17.4895 5.97203 17.2273 6.23438 16.9036 6.23438Z" fill="#0BAA56"/>
<path d="M15.0205 11.2969C13.6592 11.2969 12.5518 12.4044 12.5518 13.7656C12.5518 15.1269 13.6593 16.2343 15.0205 16.2343C16.3818 16.2343 17.4892 15.1269 17.4892 13.7656C17.4892 12.4044 16.3818 11.2969 15.0205 11.2969Z" fill="#0BAA56"/>
<path d="M12.5518 16.4387V19.414C12.5518 19.6301 12.6707 19.8287 12.8612 19.9306C12.9478 19.977 13.0429 20 13.1376 20C13.2513 20 13.3647 19.9669 13.4627 19.9015L15.0205 18.863L16.5782 19.9015C16.6763 19.9669 16.7896 20 16.9033 20C16.9981 20 17.0931 19.977 17.1797 19.9307C17.3703 19.8287 17.4892 19.6302 17.4892 19.414V16.4387C16.8398 17.0388 15.9723 17.4062 15.0205 17.4062C14.0686 17.4062 13.2011 17.0388 12.5518 16.4387Z" fill="#0BAA56"/>
</g>
<defs>
<clipPath id="clip0_889_5432">
<rect width="20" height="20" fill="white"/>
</clipPath>
</defs>
</svg>
