<svg width="20" height="20" viewBox="0 0 20 20" fill="none" xmlns="http://www.w3.org/2000/svg">
<path d="M3.28027 5.35508C3.28027 5.4957 3.75136 13.5076 3.99041 17.3079C4.05721 18.3591 4.75329 18.9954 5.8185 18.9954H14.1011C15.314 18.9954 15.9538 18.3732 16.0277 17.1673C16.2245 13.919 16.7026 5.99842 16.7378 5.35156L3.28027 5.35508ZM12.825 13.353C13.2785 13.8065 13.2785 14.5412 12.825 14.9947C12.3715 15.4482 11.6367 15.4482 11.1832 14.9947L10.009 13.8205L8.83484 14.9947C8.38133 15.4482 7.64658 15.4482 7.19308 14.9947C6.73957 14.5412 6.73957 13.8065 7.19308 13.353L8.36727 12.1788L7.19308 11.001C6.73957 10.5475 6.73957 9.81279 7.19308 9.35929C7.64658 8.90578 8.38133 8.90578 8.83484 9.35929L10.009 10.5335L11.1832 9.35929C11.6367 8.90578 12.3715 8.90578 12.825 9.35929C13.2785 9.81279 13.2785 10.5475 12.825 11.001L11.6508 12.1788L12.825 13.353Z" fill="#1696BB"/>
<path d="M16.7246 2.15662C15.7719 2.14958 14.8227 2.14255 13.8735 2.16013C13.8172 1.50624 13.2688 1 12.6114 1H7.38729C6.72988 1 6.18146 1.50624 6.12872 2.16013C5.1514 2.14255 4.17056 2.14958 3.19324 2.15662C2.67997 2.16365 2.30732 2.44841 2.18428 2.8984C1.96983 3.68236 2.44443 4.32922 3.25652 4.33274C5.50999 4.33977 7.75994 4.33626 10.0099 4.33626H16.7176C17.4453 4.33626 17.8636 3.92845 17.8671 3.24995C17.8707 2.57145 17.4488 2.16013 16.7246 2.15662Z" fill="#1696BB"/>
</svg>
