<svg width="20" height="20" viewBox="0 0 20 20" fill="none" xmlns="http://www.w3.org/2000/svg">
<g clip-path="url(#clip0_4112_6891)">
<path d="M11.1723 15.8594V9.82812C11.1723 9.27584 10.7246 8.82812 10.1723 8.82812H9.82859C9.27631 8.82812 8.82859 9.27584 8.82859 9.82812V15.8594H6.52148L10.0005 19.375L13.4795 15.8594H11.1723Z" fill="#0BAA56"/>
<path d="M15.8594 5.3125H15.1293C14.5805 2.60598 12.2093 0.625 9.41406 0.625C6.61027 0.625 4.23391 2.61801 3.6943 5.33652C1.6418 5.55969 0 7.3032 0 9.41406C0 11.6754 1.87926 13.5156 4.14062 13.5156H7.65625V9.65625C7.65625 8.55168 8.55168 7.65625 9.65625 7.65625H10.3438C11.4483 7.65625 12.3438 8.55168 12.3438 9.65625V13.5156H15.8594C18.1207 13.5156 20 11.6754 20 9.41406C20 7.1527 18.1207 5.3125 15.8594 5.3125Z" fill="#0BAA56"/>
</g>
<defs>
<clipPath id="clip0_4112_6891">
<rect width="20" height="20" fill="white"/>
</clipPath>
</defs>
</svg>
