<svg width="20" height="20" viewBox="0 0 20 20" fill="none" xmlns="http://www.w3.org/2000/svg">
<path d="M9.9987 10.3855C7.14154 10.3855 4.80595 8.04991 4.80595 5.19275C4.80595 2.33559 7.14154 0 9.9987 0C12.8559 0 15.1914 2.33559 15.1914 5.19275C15.1914 8.04991 12.8558 10.3855 9.9987 10.3855Z" fill="#0BAA56"/>
<path d="M1.08701 14.5351C1.22308 14.195 1.40446 13.8776 1.60854 13.5828C2.65164 12.0408 4.26158 11.0204 6.07564 10.771C6.30238 10.7483 6.55181 10.7936 6.73324 10.9297C7.68562 11.6326 8.81939 11.9954 9.99856 11.9954C11.1777 11.9954 12.3115 11.6326 13.2639 10.9297C13.4453 10.7936 13.6947 10.7256 13.9215 10.771C15.7355 11.0204 17.3682 12.0408 18.3886 13.5828C18.5927 13.8776 18.7741 14.2177 18.9101 14.5351C18.9781 14.6712 18.9555 14.8299 18.8874 14.966C18.706 15.2835 18.4793 15.6009 18.2752 15.873C17.9578 16.3039 17.6176 16.6894 17.2321 17.0522C16.9147 17.3696 16.5519 17.6644 16.189 17.9592C14.3976 19.2971 12.2434 20 10.0212 20C7.79899 20 5.64478 19.297 3.85342 17.9592C3.49061 17.6871 3.12781 17.3696 2.81032 17.0522C2.44751 16.6894 2.08471 16.3039 1.76722 15.873C1.54048 15.5782 1.33636 15.2835 1.15498 14.966C1.04165 14.8299 1.019 14.6712 1.08701 14.5351Z" fill="#0BAA56"/>
</svg>
