<svg width="20" height="20" viewBox="0 0 20 20" fill="none" xmlns="http://www.w3.org/2000/svg">
<g clip-path="url(#clip0_741_11855)">
<path d="M14.5857 0.950195L12.5 2.2002L10.4214 0.950195L8.33571 2.2002L6.25714 0.950195L4.17143 2.2002L2.08571 0.950195L0 2.2002V17.3431C0 18.2859 0.764286 19.0502 1.70714 19.0502H11.8229C10.315 17.9859 9.32571 16.2338 9.32571 14.2523C9.32571 11.0138 11.96 8.37948 15.1986 8.37948C15.7057 8.37948 16.195 8.45091 16.6643 8.57234V2.2002L14.5857 0.950195ZM7.84786 14.7795H3.47071C3.11571 14.7795 2.82786 14.4916 2.82786 14.1366C2.82786 13.7816 3.11571 13.4938 3.47071 13.4938H7.84786C8.20286 13.4938 8.49071 13.7816 8.49071 14.1366C8.49071 14.4916 8.20286 14.7795 7.84786 14.7795ZM8.86429 11.2752H3.47143C3.11643 11.2752 2.82857 10.9873 2.82857 10.6323C2.82857 10.2773 3.11643 9.98948 3.47143 9.98948H8.86429C9.21929 9.98948 9.50714 10.2773 9.50714 10.6323C9.50714 10.9873 9.21929 11.2752 8.86429 11.2752ZM13.1964 7.7652H3.47071C3.11571 7.7652 2.82786 7.47734 2.82786 7.12234C2.82786 6.76734 3.11571 6.47948 3.47071 6.47948H13.1964C13.5514 6.47948 13.8393 6.76734 13.8393 7.12234C13.8393 7.47734 13.5514 7.7652 13.1964 7.7652Z" fill="#0BAA56"/>
<path d="M15.1989 9.4502C12.5467 9.4502 10.3975 11.6002 10.3975 14.2516C10.3975 16.9031 12.5475 19.0531 15.1989 19.0531C17.8503 19.0531 20.0003 16.9031 20.0003 14.2516C20.0003 11.6002 17.8503 9.4502 15.1989 9.4502ZM15.8396 16.5609V16.6973C15.8396 17.0523 15.5517 17.3402 15.1967 17.3402C14.8503 17.3402 14.5717 17.0645 14.5589 16.7209C14.321 16.6866 14.096 16.5816 13.9217 16.4138C13.696 16.1952 13.571 15.9023 13.571 15.5881C13.571 15.2331 13.8589 14.9452 14.2139 14.9452C14.5203 14.9452 14.776 15.1588 14.841 15.4459C15.3396 15.4116 15.7189 15.2802 15.726 15.1309C15.7282 15.1388 15.6053 15.0052 15.0532 14.8788C13.8953 14.6159 13.3353 14.0823 13.3896 13.2916C13.4175 12.8788 13.6282 12.2495 14.5546 11.9438V11.8059C14.5546 11.4509 14.8425 11.1631 15.1975 11.1631C15.5446 11.1631 15.8225 11.4388 15.8353 11.7831C16.071 11.8173 16.2932 11.9181 16.4689 12.0881C16.6925 12.3038 16.8203 12.6059 16.8203 12.9166C16.8203 13.2716 16.5325 13.5595 16.1775 13.5595C15.8717 13.5595 15.6153 13.3459 15.5503 13.0595C15.0303 13.0938 14.6832 13.2181 14.6725 13.3795C14.671 13.3723 14.7653 13.4952 15.3382 13.6252C16.7467 13.9459 17.0253 14.6373 17.0117 15.1616C17.0017 15.5116 16.8489 16.2281 15.8396 16.5609Z" fill="#0BAA56"/>
</g>
<defs>
<clipPath id="clip0_741_11855">
<rect width="20" height="20" fill="white"/>
</clipPath>
</defs>
</svg>
