<svg width="18" height="18" viewBox="0 0 18 18" fill="none" xmlns="http://www.w3.org/2000/svg">
<path d="M3.75 0.25C1.817 0.25 0.25 1.817 0.25 3.75V8.125H9.51258L7.50629 6.11872C7.1646 5.77701 7.1646 5.22299 7.50629 4.88128C7.84798 4.53957 8.40203 4.53957 8.74371 4.88128L12.2431 8.38068L12.2494 8.38706C12.3305 8.46958 12.3919 8.56425 12.4336 8.66505C12.4761 8.76751 12.4997 8.87969 12.5 8.99737V9V9.00263C12.4993 9.24028 12.4038 9.4557 12.2494 9.61294L12.2431 9.61932L8.74371 13.1187C8.40203 13.4604 7.84798 13.4604 7.50629 13.1187C7.1646 12.777 7.1646 12.223 7.50629 11.8813L9.51258 9.875H0.25V14.25C0.25 16.183 1.817 17.75 3.75 17.75H14.25C16.183 17.75 17.75 16.183 17.75 14.25V3.75C17.75 1.817 16.183 0.25 14.25 0.25H3.75Z" fill="#0BAA56"/>
</svg>
