<svg width="20" height="20" viewBox="0 0 20 20" fill="none" xmlns="http://www.w3.org/2000/svg">
<path d="M3.20343 12.859L1.31195 16.6414C1.22101 16.8231 1.23077 17.039 1.33743 17.2117C1.44439 17.3843 1.63269 17.4894 1.83578 17.4894H4.68109L6.38824 19.7656C6.49917 19.9141 6.67328 20 6.85653 20C7.09991 20 7.29171 19.8547 7.38083 19.6762L9.1632 16.1113C6.75338 15.8809 4.62875 14.6589 3.20343 12.859Z" fill="#0BAA56"/>
<path d="M18.6774 16.6414L16.7859 12.859C15.3606 14.6589 13.236 15.8809 10.8262 16.1113L12.6087 19.6762C12.6977 19.8547 12.8895 20 13.1328 20C13.3161 20 13.4904 19.9141 13.6013 19.7656L15.3083 17.4894H18.1536C18.3567 17.4894 18.545 17.3843 18.6519 17.2117C18.7586 17.039 18.7684 16.8231 18.6774 16.6414Z" fill="#0BAA56"/>
<path d="M10.9755 5.76736L9.99478 4.20074L9.0144 5.76736C8.93399 5.89584 8.80688 5.98816 8.65994 6.02493L6.86719 6.47339L8.05402 7.89001C8.15137 8.00613 8.19989 8.15552 8.18936 8.30673L8.06165 10.1503L9.77567 9.45938C9.85715 9.42657 10.0238 9.38278 10.2137 9.45938L11.9279 10.1503L11.8004 8.30673C11.79 8.15552 11.8385 8.00613 11.9359 7.89001L13.1227 6.47339L11.3299 6.02493C11.183 5.98816 11.0559 5.89584 10.9755 5.76736Z" fill="#0BAA56"/>
<path d="M17.4841 7.48962C17.4841 3.35983 14.1243 0 9.99451 0C5.86472 0 2.50488 3.35983 2.50488 7.48962C2.50488 11.6193 5.86472 14.9792 9.99451 14.9792C14.1243 14.9792 17.4841 11.6194 17.4841 7.48962ZM14.6219 6.50833L12.9855 8.46146L13.1613 11.0033C13.1752 11.2047 13.0846 11.3991 12.9213 11.5178C12.7579 11.6364 12.545 11.6626 12.3578 11.5872L9.99451 10.6346L7.63123 11.5872C7.5679 11.6127 7.31567 11.6978 7.06772 11.5178C6.90445 11.3991 6.81381 11.2047 6.8277 11.0033L7.00378 8.46146L5.36743 6.50848C5.23773 6.35361 5.19684 6.14304 5.25925 5.95108C5.32166 5.75912 5.47852 5.61264 5.67444 5.56366L8.14606 4.94537L9.49783 2.78549C9.60495 2.61444 9.79263 2.51053 9.99451 2.51053C10.1964 2.51053 10.3841 2.61444 10.4912 2.78549L11.8433 4.94537L14.3149 5.56366C14.5108 5.61264 14.6677 5.75912 14.7301 5.95108C14.7925 6.14304 14.7516 6.35361 14.6219 6.50833Z" fill="#0BAA56"/>
</svg>
