<svg width="390" height="432" viewBox="0 0 390 432" fill="none" xmlns="http://www.w3.org/2000/svg">
<g clip-path="url(#clip0_4049_6814)">
<path d="M411 330.393H-21V330.609H411V330.393Z" fill="#EBEBEB"/>
<path d="M367.715 344.299H339.098V344.515H367.715V344.299Z" fill="#EBEBEB"/>
<path d="M265.175 346.645H257.664V346.861H265.175V346.645Z" fill="#EBEBEB"/>
<path d="M338.232 336.275H321.65V336.491H338.232V336.275Z" fill="#EBEBEB"/>
<path d="M61.643 337.727H24.3242V337.943H61.643V337.727Z" fill="#EBEBEB"/>
<path d="M74.8076 337.727H69.3359V337.943H74.8076V337.727Z" fill="#EBEBEB"/>
<path d="M173.527 341.375H92.5908V341.591H173.527V341.375Z" fill="#EBEBEB"/>
<path d="M183.78 291.859H16.9425C14.2234 291.859 12.0107 289.646 12.0107 286.927V52.4102C12.0107 49.6912 14.2234 47.4785 16.9425 47.4785H183.78C186.498 47.4785 188.711 49.6912 188.711 52.4102V286.927C188.711 289.646 186.498 291.859 183.78 291.859ZM16.9425 47.6954C14.3418 47.6954 12.2267 49.8105 12.2267 52.4111V286.928C12.2267 289.529 14.3418 291.644 16.9425 291.644H183.78C186.38 291.644 188.495 289.529 188.495 286.928V52.4102C188.495 49.8105 186.38 47.6945 183.78 47.6945L16.9425 47.6954Z" fill="#EBEBEB"/>
<path d="M370.66 291.859H203.823C201.104 291.859 198.893 289.646 198.893 286.927V52.4102C198.893 49.6912 201.105 47.4785 203.823 47.4785H370.66C373.38 47.4785 375.592 49.6912 375.592 52.4102V286.927C375.593 289.646 373.38 291.859 370.66 291.859ZM203.823 47.6954C201.224 47.6954 199.109 49.8105 199.109 52.4111V286.928C199.109 289.529 201.224 291.644 203.823 291.644H370.66C373.261 291.644 375.376 289.529 375.376 286.928V52.4102C375.376 49.8105 373.261 47.6945 370.66 47.6945L203.823 47.6954Z" fill="#EBEBEB"/>
<path d="M229.292 150.387L348.335 150.387V72.4306L229.292 72.4306V150.387Z" fill="#E6E6E6"/>
<path d="M225.66 150.387L346.638 150.387V72.4306L225.66 72.4306V150.387Z" fill="#F0F0F0"/>
<path d="M229.292 165.686L348.335 165.686V150.386H229.292V165.686Z" fill="#E6E6E6"/>
<path d="M219.61 165.686L340.587 165.686V150.386H219.61V165.686Z" fill="#F0F0F0"/>
<path d="M341.554 145.302V77.5156L230.747 77.5156V145.302H341.554Z" fill="#FAFAFA"/>
<path d="M316.566 145.302L302.414 77.5156H280.329L294.481 145.302H316.566Z" fill="white"/>
<path d="M339.199 140.239C339.399 140.239 339.562 140.077 339.562 139.876V80.8238C339.562 80.6234 339.4 80.4609 339.199 80.4609C338.998 80.4609 338.835 80.6234 338.835 80.8238V139.876C338.835 140.077 338.998 140.239 339.199 140.239Z" fill="#F0F0F0"/>
<path d="M289.738 145.302L275.585 77.5156H266.975L281.128 145.302H289.738Z" fill="white"/>
<path d="M231.392 145.302V77.5156H230.746V145.302H231.392Z" fill="#E6E6E6"/>
<path opacity="0.6" d="M224.458 85.1825H343.501L343.968 79.4922H224.925L224.458 85.1825Z" fill="#EBEBEB"/>
<path opacity="0.6" d="M224.458 94.5145H343.501L343.968 88.8242H224.925L224.458 94.5145Z" fill="#EBEBEB"/>
<path opacity="0.6" d="M224.458 103.849H343.501L343.968 98.1582H224.925L224.458 103.849Z" fill="#EBEBEB"/>
<path opacity="0.6" d="M224.458 113.181H343.501L343.968 107.49H224.925L224.458 113.181Z" fill="#EBEBEB"/>
<path opacity="0.6" d="M224.458 122.515H343.501L343.968 116.824H224.925L224.458 122.515Z" fill="#EBEBEB"/>
<path opacity="0.6" d="M224.458 131.847H343.501L343.968 126.156H224.925L224.458 131.847Z" fill="#EBEBEB"/>
<path d="M331.243 273.699H306.283V278.621H331.243V273.699Z" fill="#E6E6E6"/>
<path d="M259.203 330.393H263.811V217.152H259.203V330.393Z" fill="#E6E6E6"/>
<path d="M243.242 278.621H306.282V273.7H243.242V278.621Z" fill="#F5F5F5"/>
<path d="M331.243 300.627H306.283V305.548H331.243V300.627Z" fill="#E6E6E6"/>
<path d="M243.242 305.549H306.282V300.627H243.242V305.549Z" fill="#F5F5F5"/>
<path d="M331.243 219.844H306.283V224.765H331.243V219.844Z" fill="#E6E6E6"/>
<path d="M243.242 224.764H306.282V219.842H243.242V224.764Z" fill="#F5F5F5"/>
<path d="M331.243 246.771H306.283V251.693H331.243V246.771Z" fill="#E6E6E6"/>
<path d="M243.242 251.691H306.282V246.77H243.242V251.691Z" fill="#F5F5F5"/>
<path d="M322.243 330.393H326.851V217.152H322.243V330.393Z" fill="#E6E6E6"/>
<path d="M301.675 330.393H306.282V217.152H301.675V330.393Z" fill="#F5F5F5"/>
<path d="M243.242 330.393H247.85V217.152H243.242V330.393Z" fill="#F5F5F5"/>
<path d="M35.4823 330.395H82.6377L82.6377 238.904H35.4823L35.4823 330.395Z" fill="#E6E6E6"/>
<path d="M48.0753 330.394H35.4834V317.764H61.2773L48.0753 330.394Z" fill="#FAFAFA"/>
<path d="M164.054 330.395H211.209V238.904H164.054V330.395Z" fill="#E6E6E6"/>
<path d="M35.4829 326.047H175.044V238.903H35.4829V326.047Z" fill="#FAFAFA"/>
<path d="M162.452 330.394H175.044V317.764H149.249L162.452 330.394Z" fill="#FAFAFA"/>
<path d="M45.2501 293.184H165.274V271.375H45.2501V293.184Z" fill="#F0F0F0"/>
<path d="M45.2501 319.652H165.274V297.844H45.2501V319.652Z" fill="#F0F0F0"/>
<path d="M68.064 273.707H142.461C144.645 273.707 146.415 271.937 146.415 269.752V269.486H64.1104V269.752C64.1104 271.937 65.8807 273.707 68.064 273.707Z" fill="#FAFAFA"/>
<path d="M45.2501 266.715H165.274V244.907H45.2501V266.715Z" fill="#F0F0F0"/>
<path d="M68.064 247.238H142.461C144.645 247.238 146.415 245.468 146.415 243.284V243.018H64.1104V243.284C64.1104 245.468 65.8807 247.238 68.064 247.238Z" fill="#FAFAFA"/>
<path d="M68.064 300.177H142.461C144.645 300.177 146.415 298.406 146.415 296.223V295.957H64.1104V296.223C64.1104 298.406 65.8807 300.177 68.064 300.177Z" fill="#FAFAFA"/>
<path d="M42.9943 150.387L162.037 150.387V72.4306L42.9943 72.4306L42.9943 150.387Z" fill="#E6E6E6"/>
<path d="M39.3626 150.387L160.34 150.387V72.4306L39.3626 72.4306L39.3626 150.387Z" fill="#F0F0F0"/>
<path d="M42.9943 165.686L162.037 165.686V150.386H42.9943V165.686Z" fill="#E6E6E6"/>
<path d="M33.3108 165.686L154.288 165.686V150.386H33.3108V165.686Z" fill="#F0F0F0"/>
<path d="M155.255 145.302V77.5156L44.4478 77.5156L44.4478 145.302H155.255Z" fill="#FAFAFA"/>
<path d="M130.268 145.302L116.115 77.5156H94.0303L108.183 145.302H130.268Z" fill="white"/>
<path d="M152.9 140.239C153.1 140.239 153.263 140.077 153.263 139.876V80.8238C153.263 80.6234 153.1 80.4609 152.9 80.4609C152.699 80.4609 152.536 80.6234 152.536 80.8238V139.876C152.537 140.077 152.699 140.239 152.9 140.239Z" fill="#F0F0F0"/>
<path d="M103.44 145.302L89.2865 77.5156H80.6768L94.8299 145.302H103.44Z" fill="white"/>
<path d="M45.0928 145.302L45.0928 77.5156H44.4474L44.4474 145.302H45.0928Z" fill="#E6E6E6"/>
<path opacity="0.6" d="M38.1592 85.1825H157.202L157.67 79.4922H38.6275L38.1592 85.1825Z" fill="#EBEBEB"/>
<path opacity="0.6" d="M38.1592 88.3923H157.202L157.67 82.7012H38.6275L38.1592 88.3923Z" fill="#EBEBEB"/>
<path opacity="0.6" d="M38.1592 91.6024H157.202L157.67 85.9121H38.6275L38.1592 91.6024Z" fill="#EBEBEB"/>
<path opacity="0.6" d="M38.1592 94.8142H157.202L157.67 89.123H38.6275L38.1592 94.8142Z" fill="#EBEBEB"/>
<path opacity="0.6" d="M38.1592 98.0223H157.202L157.67 92.332H38.6275L38.1592 98.0223Z" fill="#EBEBEB"/>
<path opacity="0.6" d="M38.1592 101.233H157.202L157.67 95.543H38.6275L38.1592 101.233Z" fill="#EBEBEB"/>
<path d="M61.957 236.107H66.0723V190.236H61.957L61.957 236.107Z" fill="#F5F5F5"/>
<path d="M62.4864 236.074H63.6484L63.6484 190.203H62.4864L62.4864 236.074Z" fill="#FAFAFA"/>
<path d="M64.1355 236.076H64.5908V190.205H64.1355V236.076Z" fill="#FAFAFA"/>
<path d="M48.7803 238.903H79.2484C79.2484 236.783 77.5299 235.064 75.4096 235.064H52.619C50.4988 235.064 48.7803 236.783 48.7803 238.903Z" fill="#F0F0F0"/>
<path d="M56.6183 218.713C57.2697 218.713 57.8019 218.18 57.8019 217.529V187.453C57.8019 186.803 57.2688 186.27 56.6183 186.27C55.9668 186.27 55.4346 186.803 55.4346 187.453V217.529C55.4346 218.181 55.9668 218.713 56.6183 218.713Z" fill="#F0F0F0"/>
<path d="M45.5928 201.139H82.4355L78.1975 175.393H49.8307L45.5928 201.139Z" fill="#E0E0E0"/>
<path d="M195 369.412C287.518 369.412 362.52 365.032 362.52 359.629C362.52 354.226 287.518 349.846 195 349.846C102.481 349.846 27.4795 354.226 27.4795 359.629C27.4795 365.032 102.481 369.412 195 369.412Z" fill="#F5F5F5"/>
<path d="M68.9506 174.838L68.0889 174.9L69.2358 190.833L70.0976 190.771L68.9506 174.838Z" fill="#0BA661"/>
<path d="M70.7055 198.993L69.8438 199.055L70.2758 205.048L71.1376 204.986L70.7055 198.993Z" fill="#0BA661"/>
<path d="M270.784 272.299H85.7511C81.5659 272.299 77.8956 268.875 77.5941 264.69L68.5022 138.433C68.2007 134.248 71.3785 130.824 75.5637 130.824H260.596C264.781 130.824 268.452 134.248 268.753 138.433L277.845 264.69C278.146 268.875 274.969 272.299 270.784 272.299Z" fill="#0BA661"/>
<path d="M271.493 272.299H86.4601C82.2749 272.299 78.6046 268.875 78.3031 264.69L69.2112 138.433C68.9097 134.248 72.0875 130.824 76.2727 130.824H261.305C265.49 130.824 269.161 134.248 269.462 138.433L278.554 264.69C278.855 268.875 275.678 272.299 271.493 272.299Z" fill="#0BA661"/>
<path d="M271.493 272.299H86.4601C82.2749 272.299 78.6046 268.875 78.3031 264.69L69.2112 138.433C68.9097 134.248 72.0875 130.824 76.2727 130.824H261.305C265.49 130.824 269.161 134.248 269.462 138.433L278.554 264.69C278.855 268.875 275.678 272.299 271.493 272.299Z" fill="url(#paint0_linear_4049_6814)"/>
<path d="M261.58 134.629H76.5475C76.3384 134.629 76.1319 134.638 75.928 134.654C71.1984 135.044 72.1644 142.238 76.938 142.238H262.286C267.059 142.238 266.99 135.044 262.204 134.654C261.997 134.638 261.789 134.629 261.58 134.629Z" fill="url(#paint1_linear_4049_6814)"/>
<path d="M81.3664 138.434C81.4356 139.397 80.7115 140.178 79.7473 140.178C78.7839 140.178 77.9467 139.397 77.8776 138.434C77.8085 137.471 78.5325 136.689 79.4967 136.689C80.461 136.689 81.2973 137.47 81.3664 138.434Z" fill="#FAFAFA"/>
<path d="M87.301 138.434C87.3701 139.397 86.6461 140.178 85.6819 140.178C84.7185 140.178 83.8813 139.397 83.8122 138.434C83.7431 137.471 84.4671 136.689 85.4313 136.689C86.3947 136.689 87.2319 137.47 87.301 138.434Z" fill="#FAFAFA"/>
<path d="M93.2335 138.434C93.3026 139.397 92.5777 140.178 91.6144 140.178C90.651 140.178 89.8138 139.397 89.7438 138.434C89.6747 137.471 90.3996 136.689 91.3629 136.689C92.3263 136.689 93.1635 137.47 93.2335 138.434Z" fill="#FAFAFA"/>
<path d="M266.587 259.699H89.5512C88.0279 259.699 86.7034 258.463 86.5937 256.94L79.1166 153.11C79.0069 151.587 80.1534 150.352 81.6767 150.352H258.713C260.236 150.352 261.561 151.586 261.67 153.11L269.147 256.94C269.257 258.463 268.111 259.699 266.587 259.699Z" fill="white"/>
<path d="M192.003 220.145L189.121 180.126L180.388 174.869H156.365L159.626 220.145H192.003Z" fill="white"/>
<path d="M192.003 220.565H159.626C159.407 220.565 159.225 220.395 159.209 220.176L155.948 174.9C155.94 174.784 155.98 174.669 156.06 174.584C156.139 174.499 156.25 174.451 156.367 174.451H180.389C180.465 174.451 180.54 174.472 180.605 174.512L189.338 179.767C189.454 179.837 189.529 179.96 189.539 180.096L192.42 220.115C192.429 220.231 192.388 220.346 192.309 220.431C192.23 220.516 192.119 220.565 192.003 220.565ZM160.016 219.727H191.553L188.719 180.373L180.273 175.288H156.816L160.016 219.727Z" fill="#0BA661"/>
<path d="M189.121 180.126L180.388 174.869L183.594 181.833L189.121 180.126Z" fill="#EBEBEB"/>
<path d="M183.595 182.252C183.435 182.252 183.285 182.159 183.215 182.008L180.008 175.045C179.931 174.878 179.972 174.68 180.109 174.558C180.246 174.435 180.447 174.417 180.604 174.511L189.337 179.768C189.479 179.852 189.556 180.013 189.536 180.177C189.517 180.341 189.403 180.478 189.244 180.526L183.718 182.233C183.678 182.246 183.636 182.252 183.595 182.252ZM181.338 175.93L183.822 181.324L188.104 180.002L181.338 175.93Z" fill="#0BA661"/>
<path d="M169.918 195.269C169.991 196.279 169.231 197.098 168.221 197.098C167.21 197.098 166.333 196.279 166.26 195.269C166.188 194.259 166.947 193.439 167.957 193.439C168.967 193.439 169.846 194.259 169.918 195.269Z" fill="#0BA661"/>
<path d="M181.787 195.269C181.859 196.279 181.1 197.098 180.089 197.098C179.079 197.098 178.201 196.279 178.128 195.269C178.055 194.259 178.815 193.439 179.826 193.439C180.836 193.44 181.714 194.259 181.787 195.269Z" fill="#0BA661"/>
<path d="M164.553 200.571C164.771 200.571 164.954 200.739 164.97 200.959C165.182 203.9 169.794 206.293 175.252 206.293C178.868 206.293 182.114 205.218 183.724 203.487C184.441 202.718 184.772 201.888 184.709 201.02C184.693 200.789 184.867 200.589 185.097 200.572C185.329 200.558 185.528 200.729 185.545 200.96C185.623 202.054 185.206 203.125 184.338 204.058C182.574 205.954 179.093 207.131 175.252 207.131C169.265 207.131 164.382 204.446 164.135 201.021C164.118 200.79 164.292 200.59 164.523 200.573C164.533 200.571 164.544 200.571 164.553 200.571Z" fill="#0BA661"/>
<path d="M162.592 190.909C162.504 190.858 162.435 190.774 162.402 190.669C162.335 190.448 162.46 190.214 162.681 190.147L165.263 189.365C165.485 189.297 165.718 189.423 165.785 189.644C165.852 189.865 165.727 190.099 165.506 190.166L162.926 190.949C162.809 190.984 162.689 190.966 162.592 190.909Z" fill="#0BA661"/>
<path d="M184.861 190.782C184.775 190.837 184.668 190.86 184.559 190.84L181.712 190.298C181.485 190.255 181.336 190.036 181.379 189.809C181.422 189.581 181.641 189.433 181.868 189.475L184.716 190.017C184.943 190.06 185.092 190.28 185.049 190.507C185.026 190.625 184.956 190.722 184.861 190.782Z" fill="#0BA661"/>
<path d="M153.751 229.094H155.704L158.521 232.838L158.252 229.094H160.222L160.71 235.861H158.738L155.936 232.145L156.204 235.861H154.237L153.751 229.094Z" fill="url(#paint2_linear_4049_6814)"/>
<path d="M161.594 232.481C161.514 231.376 161.76 230.516 162.332 229.9C162.903 229.285 163.738 228.977 164.836 228.977C165.963 228.977 166.852 229.279 167.505 229.884C168.158 230.489 168.524 231.335 168.602 232.425C168.659 233.215 168.573 233.864 168.343 234.37C168.113 234.877 167.757 235.271 167.274 235.552C166.792 235.834 166.175 235.975 165.424 235.975C164.661 235.975 164.02 235.853 163.502 235.61C162.985 235.368 162.552 234.982 162.203 234.456C161.854 233.931 161.651 233.272 161.594 232.481ZM163.685 232.49C163.735 233.174 163.897 233.665 164.172 233.963C164.447 234.262 164.803 234.41 165.241 234.41C165.69 234.41 166.027 234.264 166.252 233.971C166.478 233.679 166.563 233.154 166.508 232.397C166.462 231.76 166.3 231.295 166.022 231.001C165.743 230.707 165.384 230.56 164.944 230.56C164.523 230.56 164.195 230.71 163.961 231.008C163.728 231.308 163.636 231.801 163.685 232.49Z" fill="url(#paint3_linear_4049_6814)"/>
<path d="M172.668 229.094H175.775C176.387 229.094 176.888 229.177 177.277 229.343C177.666 229.508 177.995 229.747 178.264 230.058C178.533 230.369 178.738 230.73 178.878 231.143C179.018 231.555 179.105 231.992 179.138 232.454C179.19 233.177 179.149 233.738 179.012 234.137C178.877 234.535 178.672 234.87 178.399 235.138C178.126 235.408 177.825 235.587 177.496 235.676C177.047 235.799 176.635 235.861 176.263 235.861H173.156L172.668 229.094ZM174.869 230.626L175.136 234.324H175.648C176.085 234.324 176.392 234.276 176.57 234.179C176.748 234.082 176.88 233.913 176.967 233.671C177.055 233.429 177.079 233.038 177.04 232.496C176.988 231.779 176.836 231.288 176.583 231.024C176.33 230.76 175.932 230.627 175.39 230.627H174.869V230.626Z" fill="url(#paint4_linear_4049_6814)"/>
<path d="M184.155 234.742H181.781L181.531 235.859H179.396L181.453 229.092H183.734L186.764 235.859H184.574L184.155 234.742ZM183.616 233.28L182.694 230.847L182.129 233.28H183.616Z" fill="url(#paint5_linear_4049_6814)"/>
<path d="M185.815 229.094H192.172L192.292 230.765H190.16L190.527 235.861H188.436L188.069 230.765H185.936L185.815 229.094Z" fill="url(#paint6_linear_4049_6814)"/>
<path d="M197.044 234.742H194.67L194.42 235.859H192.285L194.341 229.092H196.622L199.652 235.859H197.462L197.044 234.742ZM196.505 233.28L195.583 230.847L195.019 233.28H196.505Z" fill="url(#paint7_linear_4049_6814)"/>
<path d="M128.773 315.839C128.773 313.64 129.249 311.685 130.2 309.973C131.151 308.239 132.472 306.897 134.163 305.946C135.876 304.973 137.81 304.487 139.966 304.487C142.608 304.487 144.87 305.185 146.752 306.58C148.633 307.975 149.891 309.877 150.525 312.287H144.564C144.12 311.357 143.486 310.649 142.661 310.163C141.858 309.677 140.938 309.434 139.903 309.434C138.233 309.434 136.88 310.015 135.844 311.178C134.808 312.34 134.29 313.894 134.29 315.839C134.29 317.783 134.808 319.337 135.844 320.5C136.88 321.662 138.233 322.244 139.903 322.244C140.938 322.244 141.858 322.001 142.661 321.514C143.486 321.028 144.12 320.32 144.564 319.39H150.525C149.891 321.8 148.633 323.702 146.752 325.097C144.87 326.472 142.608 327.159 139.966 327.159C137.81 327.159 135.876 326.683 134.163 325.732C132.472 324.759 131.151 323.417 130.2 321.705C129.249 319.992 128.773 318.037 128.773 315.839ZM164.373 327.222C162.28 327.222 160.356 326.736 158.602 325.763C156.868 324.791 155.484 323.438 154.448 321.705C153.433 319.95 152.926 317.984 152.926 315.807C152.926 313.63 153.433 311.674 154.448 309.941C155.484 308.207 156.868 306.855 158.602 305.882C160.356 304.91 162.28 304.424 164.373 304.424C166.465 304.424 168.378 304.91 170.112 305.882C171.866 306.855 173.24 308.207 174.234 309.941C175.249 311.674 175.756 313.63 175.756 315.807C175.756 317.984 175.249 319.95 174.234 321.705C173.219 323.438 171.845 324.791 170.112 325.763C168.378 326.736 166.465 327.222 164.373 327.222ZM164.373 322.275C166.148 322.275 167.565 321.684 168.621 320.5C169.7 319.316 170.239 317.752 170.239 315.807C170.239 313.841 169.7 312.277 168.621 311.114C167.565 309.93 166.148 309.338 164.373 309.338C162.576 309.338 161.138 309.92 160.06 311.082C159.003 312.245 158.475 313.82 158.475 315.807C158.475 317.773 159.003 319.348 160.06 320.531C161.138 321.694 162.576 322.275 164.373 322.275ZM203.981 304.741V327H198.558V313.651L193.58 327H189.204L184.195 313.619V327H178.772V304.741H185.177L191.424 320.151L197.607 304.741H203.981ZM213.302 304.741V327H207.88V304.741H213.302ZM237.144 327H231.722L222.653 313.27V327H217.231V304.741H222.653L231.722 318.534V304.741H237.144V327ZM255.851 311.78C255.449 311.04 254.868 310.48 254.107 310.099C253.367 309.698 252.489 309.497 251.475 309.497C249.72 309.497 248.315 310.078 247.258 311.241C246.201 312.382 245.672 313.915 245.672 315.839C245.672 317.889 246.222 319.496 247.321 320.658C248.441 321.8 249.974 322.371 251.919 322.371C253.25 322.371 254.371 322.032 255.28 321.356C256.21 320.679 256.886 319.707 257.309 318.439H250.428V314.443H262.224V319.485C261.822 320.838 261.135 322.096 260.163 323.258C259.212 324.421 257.996 325.362 256.516 326.08C255.037 326.799 253.367 327.159 251.507 327.159C249.308 327.159 247.342 326.683 245.609 325.732C243.897 324.759 242.554 323.417 241.582 321.705C240.631 319.992 240.155 318.037 240.155 315.839C240.155 313.64 240.631 311.685 241.582 309.973C242.554 308.239 243.897 306.897 245.609 305.946C247.321 304.973 249.276 304.487 251.475 304.487C254.138 304.487 256.379 305.132 258.197 306.421C260.036 307.711 261.252 309.497 261.843 311.78H255.851Z" fill="#0CA46E"/>
<path d="M132.222 376.243C129.424 376.243 126.917 375.789 124.701 374.88C122.485 373.972 120.704 372.628 119.36 370.847C118.052 369.067 117.362 366.924 117.289 364.417H127.208C127.353 365.834 127.844 366.924 128.679 367.687C129.515 368.413 130.605 368.776 131.949 368.776C133.33 368.776 134.42 368.468 135.219 367.85C136.018 367.196 136.418 366.306 136.418 365.18C136.418 364.235 136.091 363.454 135.437 362.836C134.819 362.218 134.038 361.71 133.094 361.31C132.185 360.91 130.877 360.456 129.17 359.948C126.699 359.185 124.683 358.422 123.12 357.659C121.558 356.896 120.214 355.769 119.087 354.28C117.961 352.79 117.398 350.846 117.398 348.448C117.398 344.888 118.688 342.108 121.267 340.11C123.847 338.075 127.208 337.058 131.35 337.058C135.564 337.058 138.961 338.075 141.541 340.11C144.121 342.108 145.501 344.906 145.683 348.503H135.601C135.528 347.268 135.074 346.305 134.238 345.614C133.402 344.888 132.331 344.525 131.023 344.525C129.896 344.525 128.988 344.833 128.298 345.451C127.607 346.032 127.262 346.886 127.262 348.012C127.262 349.248 127.844 350.211 129.006 350.901C130.169 351.591 131.985 352.336 134.456 353.135C136.927 353.971 138.925 354.77 140.451 355.533C142.013 356.296 143.358 357.404 144.484 358.858C145.61 360.311 146.173 362.182 146.173 364.471C146.173 366.651 145.61 368.631 144.484 370.411C143.394 372.192 141.795 373.609 139.688 374.662C137.581 375.716 135.092 376.243 132.222 376.243ZM170.002 376.243C166.405 376.243 163.099 375.407 160.083 373.736C157.104 372.065 154.724 369.739 152.944 366.76C151.2 363.744 150.328 360.365 150.328 356.623C150.328 352.881 151.2 349.52 152.944 346.541C154.724 343.562 157.104 341.236 160.083 339.565C163.099 337.894 166.405 337.058 170.002 337.058C173.599 337.058 176.887 337.894 179.866 339.565C182.882 341.236 185.244 343.562 186.951 346.541C188.695 349.52 189.567 352.881 189.567 356.623C189.567 360.365 188.695 363.744 186.951 366.76C185.207 369.739 182.846 372.065 179.866 373.736C176.887 375.407 173.599 376.243 170.002 376.243ZM170.002 367.741C173.054 367.741 175.488 366.724 177.305 364.689C179.158 362.654 180.084 359.966 180.084 356.623C180.084 353.244 179.158 350.556 177.305 348.557C175.488 346.523 173.054 345.505 170.002 345.505C166.914 345.505 164.443 346.505 162.59 348.503C160.774 350.501 159.865 353.208 159.865 356.623C159.865 360.002 160.774 362.709 162.59 364.744C164.443 366.742 166.914 367.741 170.002 367.741ZM212.845 376.243C209.248 376.243 205.942 375.407 202.927 373.736C199.947 372.065 197.568 369.739 195.787 366.76C194.043 363.744 193.171 360.365 193.171 356.623C193.171 352.881 194.043 349.52 195.787 346.541C197.568 343.562 199.947 341.236 202.927 339.565C205.942 337.894 209.248 337.058 212.845 337.058C216.442 337.058 219.73 337.894 222.71 339.565C225.725 341.236 228.087 343.562 229.795 346.541C231.538 349.52 232.41 352.881 232.41 356.623C232.41 360.365 231.538 363.744 229.795 366.76C228.051 369.739 225.689 372.065 222.71 373.736C219.73 375.407 216.442 376.243 212.845 376.243ZM212.845 367.741C215.897 367.741 218.332 366.724 220.148 364.689C222.001 362.654 222.928 359.966 222.928 356.623C222.928 353.244 222.001 350.556 220.148 348.557C218.332 346.523 215.897 345.505 212.845 345.505C209.757 345.505 207.287 346.505 205.434 348.503C203.617 350.501 202.709 353.208 202.709 356.623C202.709 360.002 203.617 362.709 205.434 364.744C207.287 366.742 209.757 367.741 212.845 367.741ZM271.82 375.861H262.501L246.914 352.263V375.861H237.595V337.603H246.914L262.501 361.31V337.603H271.82V375.861Z" fill="#0CA46E"/>
</g>
<defs>
<linearGradient id="paint0_linear_4049_6814" x1="278.574" y1="272.299" x2="69.1914" y2="272.299" gradientUnits="userSpaceOnUse">
<stop stop-color="#08AA4D"/>
<stop offset="1" stop-color="#129C98"/>
</linearGradient>
<linearGradient id="paint1_linear_4049_6814" x1="265.83" y1="142.238" x2="72.8311" y2="142.238" gradientUnits="userSpaceOnUse">
<stop stop-color="#08AA4D"/>
<stop offset="1" stop-color="#129C98"/>
</linearGradient>
<linearGradient id="paint2_linear_4049_6814" x1="160.71" y1="235.861" x2="153.751" y2="235.861" gradientUnits="userSpaceOnUse">
<stop stop-color="#08AA4D"/>
<stop offset="1" stop-color="#129C98"/>
</linearGradient>
<linearGradient id="paint3_linear_4049_6814" x1="168.619" y1="235.975" x2="161.579" y2="235.975" gradientUnits="userSpaceOnUse">
<stop stop-color="#08AA4D"/>
<stop offset="1" stop-color="#129C98"/>
</linearGradient>
<linearGradient id="paint4_linear_4049_6814" x1="179.16" y1="235.861" x2="172.668" y2="235.861" gradientUnits="userSpaceOnUse">
<stop stop-color="#08AA4D"/>
<stop offset="1" stop-color="#129C98"/>
</linearGradient>
<linearGradient id="paint5_linear_4049_6814" x1="186.764" y1="235.859" x2="179.396" y2="235.859" gradientUnits="userSpaceOnUse">
<stop stop-color="#08AA4D"/>
<stop offset="1" stop-color="#129C98"/>
</linearGradient>
<linearGradient id="paint6_linear_4049_6814" x1="192.292" y1="235.861" x2="185.815" y2="235.861" gradientUnits="userSpaceOnUse">
<stop stop-color="#08AA4D"/>
<stop offset="1" stop-color="#129C98"/>
</linearGradient>
<linearGradient id="paint7_linear_4049_6814" x1="199.652" y1="235.859" x2="192.285" y2="235.859" gradientUnits="userSpaceOnUse">
<stop stop-color="#08AA4D"/>
<stop offset="1" stop-color="#129C98"/>
</linearGradient>
<clipPath id="clip0_4049_6814">
<rect width="432" height="432" fill="white" transform="translate(-21)"/>
</clipPath>
</defs>
</svg>
