<svg width="390" height="118" viewBox="0 0 390 118" fill="none" xmlns="http://www.w3.org/2000/svg">
<rect y="39" width="390" height="79" fill="white"/>
<path d="M206.774 56.6801L198.04 49.6934C196.334 48.3334 193.667 48.3201 191.974 49.6801L183.24 56.6801C181.987 57.6801 181.227 59.6801 181.494 61.2534L183.174 71.3068C183.56 73.5601 185.654 75.3334 187.934 75.3334H202.067C204.32 75.3334 206.454 73.5201 206.84 71.2934L208.52 61.2401C208.76 59.6801 208 57.6801 206.774 56.6801ZM196 70.0001C196 70.5468 195.547 71.0001 195 71.0001C194.454 71.0001 194 70.5468 194 70.0001V66.0001C194 65.4534 194.454 65.0001 195 65.0001C195.547 65.0001 196 65.4534 196 66.0001V70.0001Z" fill="#1696BB"/>
<path d="M181.94 96V88.7273H182.821V91.9659H186.699V88.7273H187.579V96H186.699V92.7472H182.821V96H181.94ZM191.445 96.1136C190.952 96.1136 190.52 95.9964 190.149 95.7621C189.779 95.5277 189.491 95.1998 189.282 94.7784C189.076 94.357 188.973 93.8646 188.973 93.3011C188.973 92.733 189.076 92.237 189.282 91.8132C189.491 91.3894 189.779 91.0604 190.149 90.826C190.52 90.5916 190.952 90.4744 191.445 90.4744C191.937 90.4744 192.368 90.5916 192.737 90.826C193.109 91.0604 193.398 91.3894 193.604 91.8132C193.812 92.237 193.916 92.733 193.916 93.3011C193.916 93.8646 193.812 94.357 193.604 94.7784C193.398 95.1998 193.109 95.5277 192.737 95.7621C192.368 95.9964 191.937 96.1136 191.445 96.1136ZM191.445 95.3608C191.819 95.3608 192.127 95.2649 192.368 95.0732C192.61 94.8814 192.788 94.6293 192.904 94.3168C193.02 94.0043 193.078 93.6657 193.078 93.3011C193.078 92.9366 193.02 92.5968 192.904 92.282C192.788 91.9671 192.61 91.7126 192.368 91.5185C192.127 91.3243 191.819 91.2273 191.445 91.2273C191.071 91.2273 190.763 91.3243 190.522 91.5185C190.28 91.7126 190.101 91.9671 189.985 92.282C189.869 92.5968 189.811 92.9366 189.811 93.3011C189.811 93.6657 189.869 94.0043 189.985 94.3168C190.101 94.6293 190.28 94.8814 190.522 95.0732C190.763 95.2649 191.071 95.3608 191.445 95.3608ZM195.196 96V90.5455H196.005V91.3977H196.076C196.19 91.1065 196.374 90.8804 196.627 90.7195C196.88 90.5561 197.184 90.4744 197.54 90.4744C197.899 90.4744 198.199 90.5561 198.438 90.7195C198.679 90.8804 198.868 91.1065 199.003 91.3977H199.059C199.199 91.116 199.409 90.8923 199.688 90.7266C199.967 90.5585 200.302 90.4744 200.693 90.4744C201.181 90.4744 201.58 90.6271 201.89 90.9325C202.2 91.2356 202.355 91.7079 202.355 92.3494V96H201.517V92.3494C201.517 91.947 201.407 91.6593 201.187 91.4865C200.966 91.3137 200.707 91.2273 200.409 91.2273C200.025 91.2273 199.728 91.3433 199.517 91.5753C199.307 91.8049 199.201 92.0961 199.201 92.4489V96H198.349V92.2642C198.349 91.9541 198.249 91.7043 198.047 91.5149C197.846 91.3232 197.587 91.2273 197.27 91.2273C197.052 91.2273 196.848 91.2853 196.659 91.4013C196.472 91.5173 196.32 91.6783 196.204 91.8842C196.091 92.0878 196.034 92.3234 196.034 92.5909V96H195.196ZM206.174 96.1136C205.649 96.1136 205.195 95.9976 204.814 95.7656C204.435 95.5312 204.143 95.2045 203.937 94.7855C203.733 94.3641 203.631 93.8741 203.631 93.3153C203.631 92.7566 203.733 92.2642 203.937 91.8381C204.143 91.4096 204.429 91.0758 204.796 90.8366C205.166 90.5952 205.596 90.4744 206.089 90.4744C206.373 90.4744 206.653 90.5218 206.93 90.6165C207.207 90.7112 207.46 90.8651 207.687 91.0781C207.914 91.2888 208.095 91.5682 208.23 91.9162C208.365 92.2642 208.433 92.6927 208.433 93.2017V93.5568H204.228V92.8324H207.58C207.58 92.5246 207.519 92.25 207.396 92.0085C207.275 91.767 207.102 91.5765 206.877 91.4368C206.655 91.2971 206.392 91.2273 206.089 91.2273C205.755 91.2273 205.466 91.3101 205.222 91.4759C204.981 91.6392 204.795 91.8523 204.665 92.1151C204.535 92.3778 204.47 92.6596 204.47 92.9602V93.4432C204.47 93.8551 204.541 94.2043 204.683 94.4908C204.827 94.7749 205.027 94.9915 205.283 95.1406C205.538 95.2874 205.836 95.3608 206.174 95.3608C206.394 95.3608 206.593 95.33 206.771 95.2685C206.951 95.2045 207.106 95.1098 207.236 94.9844C207.366 94.8565 207.467 94.6979 207.538 94.5085L208.347 94.7358C208.262 95.0104 208.119 95.2519 207.918 95.4602C207.716 95.6662 207.468 95.8272 207.172 95.9432C206.876 96.0568 206.543 96.1136 206.174 96.1136Z" fill="#1696BB"/>
<path d="M58.887 88.7273V96H58.0347L54.0716 90.2898H54.0006V96H53.1199V88.7273H53.9722L57.9495 94.4517H58.0205V88.7273H58.887ZM62.7515 96.1136C62.2591 96.1136 61.827 95.9964 61.4553 95.7621C61.086 95.5277 60.7972 95.1998 60.5889 94.7784C60.3829 94.357 60.2799 93.8646 60.2799 93.3011C60.2799 92.733 60.3829 92.237 60.5889 91.8132C60.7972 91.3894 61.086 91.0604 61.4553 90.826C61.827 90.5916 62.2591 90.4744 62.7515 90.4744C63.2439 90.4744 63.6748 90.5916 64.0441 90.826C64.4158 91.0604 64.7046 91.3894 64.9106 91.8132C65.1189 92.237 65.2231 92.733 65.2231 93.3011C65.2231 93.8646 65.1189 94.357 64.9106 94.7784C64.7046 95.1998 64.4158 95.5277 64.0441 95.7621C63.6748 95.9964 63.2439 96.1136 62.7515 96.1136ZM62.7515 95.3608C63.1256 95.3608 63.4333 95.2649 63.6748 95.0732C63.9163 94.8814 64.095 94.6293 64.211 94.3168C64.327 94.0043 64.385 93.6657 64.385 93.3011C64.385 92.9366 64.327 92.5968 64.211 92.282C64.095 91.9671 63.9163 91.7126 63.6748 91.5185C63.4333 91.3243 63.1256 91.2273 62.7515 91.2273C62.3775 91.2273 62.0697 91.3243 61.8282 91.5185C61.5867 91.7126 61.408 91.9671 61.292 92.282C61.176 92.5968 61.118 92.9366 61.118 93.3011C61.118 93.6657 61.176 94.0043 61.292 94.3168C61.408 94.6293 61.5867 94.8814 61.8282 95.0732C62.0697 95.2649 62.3775 95.3608 62.7515 95.3608ZM68.8746 90.5455V91.2557H66.0479V90.5455H68.8746ZM66.8717 89.2386H67.7098V94.4375C67.7098 94.6742 67.7441 94.8518 67.8128 94.9702C67.8838 95.0862 67.9738 95.1643 68.0827 95.2045C68.1939 95.2424 68.3111 95.2614 68.4342 95.2614C68.5265 95.2614 68.6023 95.2566 68.6615 95.2472C68.7207 95.2353 68.768 95.2259 68.8035 95.2188L68.974 95.9716C68.9172 95.9929 68.8379 96.0142 68.7361 96.0355C68.6343 96.0592 68.5052 96.071 68.349 96.071C68.1122 96.071 67.8802 96.0201 67.653 95.9183C67.4281 95.8165 67.241 95.6615 67.0919 95.4531C66.9451 95.2448 66.8717 94.982 66.8717 94.6648V89.2386ZM70.1352 96V90.5455H70.9733V96H70.1352ZM70.5613 89.6364C70.398 89.6364 70.2571 89.5807 70.1388 89.4695C70.0228 89.3582 69.9648 89.2244 69.9648 89.0682C69.9648 88.9119 70.0228 88.7782 70.1388 88.6669C70.2571 88.5556 70.398 88.5 70.5613 88.5C70.7247 88.5 70.8644 88.5556 70.9804 88.6669C71.0988 88.7782 71.1579 88.9119 71.1579 89.0682C71.1579 89.2244 71.0988 89.3582 70.9804 89.4695C70.8644 89.5807 70.7247 89.6364 70.5613 89.6364ZM74.9372 90.5455V91.2557H71.9969V90.5455H74.9372ZM72.8776 96V89.7926C72.8776 89.4801 72.951 89.2197 73.0977 89.0114C73.2445 88.803 73.4351 88.6468 73.6695 88.5426C73.9039 88.4384 74.1512 88.3864 74.4117 88.3864C74.6176 88.3864 74.7857 88.4029 74.9159 88.4361C75.0461 88.4692 75.1432 88.5 75.2071 88.5284L74.9656 89.2528C74.923 89.2386 74.8638 89.2209 74.7881 89.1996C74.7147 89.1783 74.6176 89.1676 74.4969 89.1676C74.2199 89.1676 74.0199 89.2375 73.8968 89.3771C73.776 89.5168 73.7156 89.7216 73.7156 89.9915V96H72.8776ZM76.1118 96V90.5455H76.9498V96H76.1118ZM76.5379 89.6364C76.3746 89.6364 76.2337 89.5807 76.1153 89.4695C75.9993 89.3582 75.9413 89.2244 75.9413 89.0682C75.9413 88.9119 75.9993 88.7782 76.1153 88.6669C76.2337 88.5556 76.3746 88.5 76.5379 88.5C76.7013 88.5 76.8409 88.5556 76.9569 88.6669C77.0753 88.7782 77.1345 88.9119 77.1345 89.0682C77.1345 89.2244 77.0753 89.3582 76.9569 89.4695C76.8409 89.5807 76.7013 89.6364 76.5379 89.6364ZM80.7007 96.1136C80.1894 96.1136 79.749 95.9929 79.3797 95.7514C79.0104 95.5099 78.7263 95.1773 78.5274 94.7536C78.3286 94.3298 78.2291 93.8456 78.2291 93.3011C78.2291 92.7472 78.3309 92.2583 78.5345 91.8345C78.7405 91.4084 79.027 91.0758 79.3939 90.8366C79.7632 90.5952 80.1941 90.4744 80.6865 90.4744C81.07 90.4744 81.4157 90.5455 81.7235 90.6875C82.0312 90.8295 82.2834 91.0284 82.4798 91.2841C82.6763 91.5398 82.7983 91.8381 82.8456 92.179H82.0075C81.9436 91.9304 81.8016 91.7102 81.5814 91.5185C81.3636 91.3243 81.07 91.2273 80.7007 91.2273C80.374 91.2273 80.0876 91.3125 79.8414 91.483C79.5975 91.651 79.4069 91.889 79.2696 92.1967C79.1347 92.5021 79.0672 92.8608 79.0672 93.2727C79.0672 93.6941 79.1335 94.0611 79.2661 94.3736C79.401 94.6861 79.5904 94.9287 79.8343 95.1016C80.0805 95.2744 80.3693 95.3608 80.7007 95.3608C80.9185 95.3608 81.1162 95.3229 81.2938 95.2472C81.4713 95.1714 81.6217 95.0625 81.7448 94.9205C81.8679 94.7784 81.9555 94.608 82.0075 94.4091H82.8456C82.7983 94.7311 82.6811 95.0211 82.4941 95.2791C82.3094 95.5348 82.0644 95.7384 81.759 95.8899C81.4559 96.0391 81.1032 96.1136 80.7007 96.1136ZM85.6759 96.1278C85.3302 96.1278 85.0165 96.0627 84.7348 95.9325C84.4531 95.8 84.2294 95.6094 84.0637 95.3608C83.8979 95.1098 83.8151 94.8068 83.8151 94.4517C83.8151 94.1392 83.8766 93.8859 83.9997 93.6918C84.1228 93.4953 84.2874 93.3414 84.4933 93.2301C84.6993 93.1188 84.9266 93.036 85.1752 92.9815C85.4261 92.9247 85.6782 92.8797 85.9316 92.8466C86.263 92.804 86.5317 92.772 86.7377 92.7507C86.946 92.727 87.0975 92.688 87.1922 92.6335C87.2893 92.5791 87.3378 92.4844 87.3378 92.3494V92.321C87.3378 91.9706 87.2419 91.6984 87.0502 91.5043C86.8608 91.3101 86.5731 91.2131 86.1872 91.2131C85.7871 91.2131 85.4735 91.3007 85.2462 91.4759C85.0189 91.651 84.8591 91.8381 84.7668 92.0369L83.9713 91.7528C84.1134 91.4214 84.3028 91.1634 84.5395 90.9787C84.7786 90.7917 85.039 90.6615 85.3208 90.5881C85.6048 90.5123 85.8842 90.4744 86.1588 90.4744C86.334 90.4744 86.5352 90.4957 86.7625 90.5384C86.9922 90.5786 87.2135 90.6626 87.4266 90.7905C87.642 90.9183 87.8208 91.1113 87.9628 91.3693C88.1048 91.6274 88.1759 91.973 88.1759 92.4062V96H87.3378V95.2614H87.2952C87.2384 95.3797 87.1437 95.5064 87.0111 95.6413C86.8785 95.7763 86.7021 95.8911 86.482 95.9858C86.2618 96.0805 85.9931 96.1278 85.6759 96.1278ZM85.8037 95.375C86.1352 95.375 86.4145 95.3099 86.6418 95.1797C86.8714 95.0495 87.0442 94.8814 87.1602 94.6754C87.2786 94.4695 87.3378 94.2528 87.3378 94.0256V93.2585C87.3023 93.3011 87.2242 93.3402 87.1034 93.3757C86.9851 93.4089 86.8477 93.4384 86.6915 93.4645C86.5376 93.4882 86.3873 93.5095 86.2405 93.5284C86.0961 93.545 85.9789 93.5592 85.8889 93.571C85.6711 93.5994 85.4675 93.6456 85.2781 93.7095C85.0911 93.7711 84.9396 93.8646 84.8236 93.9901C84.71 94.1132 84.6531 94.2812 84.6531 94.4943C84.6531 94.7855 84.7609 95.0057 84.9763 95.1548C85.1941 95.3016 85.4699 95.375 85.8037 95.375ZM92.0777 90.5455V91.2557H89.251V90.5455H92.0777ZM90.0748 89.2386H90.9129V94.4375C90.9129 94.6742 90.9472 94.8518 91.0159 94.9702C91.0869 95.0862 91.1769 95.1643 91.2858 95.2045C91.397 95.2424 91.5142 95.2614 91.6373 95.2614C91.7297 95.2614 91.8054 95.2566 91.8646 95.2472C91.9238 95.2353 91.9711 95.2259 92.0067 95.2188L92.1771 95.9716C92.1203 95.9929 92.041 96.0142 91.9392 96.0355C91.8374 96.0592 91.7084 96.071 91.5521 96.071C91.3154 96.071 91.0834 96.0201 90.8561 95.9183C90.6312 95.8165 90.4442 95.6615 90.295 95.4531C90.1482 95.2448 90.0748 94.982 90.0748 94.6648V89.2386ZM93.3383 96V90.5455H94.1764V96H93.3383ZM93.7645 89.6364C93.6011 89.6364 93.4603 89.5807 93.3419 89.4695C93.2259 89.3582 93.1679 89.2244 93.1679 89.0682C93.1679 88.9119 93.2259 88.7782 93.3419 88.6669C93.4603 88.5556 93.6011 88.5 93.7645 88.5C93.9278 88.5 94.0675 88.5556 94.1835 88.6669C94.3019 88.7782 94.3611 88.9119 94.3611 89.0682C94.3611 89.2244 94.3019 89.3582 94.1835 89.4695C94.0675 89.5807 93.9278 89.6364 93.7645 89.6364ZM97.9273 96.1136C97.4349 96.1136 97.0028 95.9964 96.6311 95.7621C96.2618 95.5277 95.973 95.1998 95.7646 94.7784C95.5587 94.357 95.4557 93.8646 95.4557 93.3011C95.4557 92.733 95.5587 92.237 95.7646 91.8132C95.973 91.3894 96.2618 91.0604 96.6311 90.826C97.0028 90.5916 97.4349 90.4744 97.9273 90.4744C98.4197 90.4744 98.8506 90.5916 99.2199 90.826C99.5916 91.0604 99.8804 91.3894 100.086 91.8132C100.295 92.237 100.399 92.733 100.399 93.3011C100.399 93.8646 100.295 94.357 100.086 94.7784C99.8804 95.1998 99.5916 95.5277 99.2199 95.7621C98.8506 95.9964 98.4197 96.1136 97.9273 96.1136ZM97.9273 95.3608C98.3013 95.3608 98.6091 95.2649 98.8506 95.0732C99.0921 94.8814 99.2708 94.6293 99.3868 94.3168C99.5028 94.0043 99.5608 93.6657 99.5608 93.3011C99.5608 92.9366 99.5028 92.5968 99.3868 92.282C99.2708 91.9671 99.0921 91.7126 98.8506 91.5185C98.6091 91.3243 98.3013 91.2273 97.9273 91.2273C97.5532 91.2273 97.2455 91.3243 97.004 91.5185C96.7625 91.7126 96.5838 91.9671 96.4678 92.282C96.3518 92.5968 96.2938 92.9366 96.2938 93.3011C96.2938 93.6657 96.3518 94.0043 96.4678 94.3168C96.5838 94.6293 96.7625 94.8814 97.004 95.0732C97.2455 95.2649 97.5532 95.3608 97.9273 95.3608ZM102.516 92.7188V96H101.678V90.5455H102.488V91.3977H102.559C102.687 91.1207 102.881 90.8982 103.141 90.7301C103.402 90.5597 103.738 90.4744 104.15 90.4744C104.519 90.4744 104.842 90.5502 105.119 90.7017C105.396 90.8509 105.612 91.0781 105.766 91.3835C105.919 91.6866 105.996 92.0701 105.996 92.5341V96H105.158V92.5909C105.158 92.1624 105.047 91.8286 104.824 91.5895C104.602 91.348 104.297 91.2273 103.908 91.2273C103.641 91.2273 103.402 91.2853 103.191 91.4013C102.983 91.5173 102.818 91.6866 102.697 91.9091C102.577 92.1316 102.516 92.4015 102.516 92.7188Z" fill="#1696BB"/>
<path d="M89.333 56.6667C91.5421 56.6667 93.333 54.8759 93.333 52.6667C93.333 50.4576 91.5421 48.6667 89.333 48.6667C87.1239 48.6667 85.333 50.4576 85.333 52.6667C85.333 54.8759 87.1239 56.6667 89.333 56.6667Z" fill="#1696BB"/>
<path d="M92.0003 59.8667V67.9733C92.0003 68.16 91.987 68.3467 91.9737 68.52C91.9603 68.68 91.947 68.8267 91.9203 68.9867C91.907 69.1467 91.8803 69.3067 91.8537 69.4533C91.387 72.68 89.3337 74.72 86.1203 75.1867C85.9737 75.2133 85.8137 75.24 85.6537 75.2533C85.4937 75.28 85.347 75.2933 85.187 75.3067C85.0137 75.32 84.827 75.3333 84.6403 75.3333H74.027C73.8403 75.3333 73.6537 75.32 73.4803 75.3067C73.3203 75.2933 73.1737 75.28 73.0137 75.2533C72.8537 75.24 72.6937 75.2133 72.547 75.1867C69.3337 74.72 67.2803 72.68 66.8137 69.4533C66.787 69.3067 66.7603 69.1467 66.747 68.9867C66.7203 68.8267 66.707 68.68 66.6937 68.52C66.6803 68.3467 66.667 68.16 66.667 67.9733V57.36C66.667 57.1733 66.6803 56.9867 66.6937 56.8133C66.707 56.6533 66.7203 56.5067 66.747 56.3467C66.7603 56.1867 66.787 56.0267 66.8137 55.88C67.2803 52.6533 69.3337 50.6133 72.547 50.1467C72.6937 50.12 72.8537 50.0933 73.0137 50.08C73.1737 50.0533 73.3203 50.04 73.4803 50.0267C73.6537 50.0133 73.8403 50 74.027 50H82.1337C82.987 50 83.6003 50.7733 83.4403 51.6C83.4403 51.6267 83.427 51.6533 83.427 51.68C83.4003 51.8133 83.387 51.9467 83.3603 52.0933C83.307 52.6533 83.3337 53.2533 83.4537 53.8667C83.4937 54.0267 83.5203 54.16 83.5737 54.3067C83.6803 54.7467 83.8537 55.16 84.0803 55.5467C84.1603 55.7067 84.267 55.8667 84.3603 56.0133C84.8003 56.6533 85.347 57.2 85.987 57.64C86.1337 57.7333 86.2937 57.84 86.4537 57.92C86.8403 58.1467 87.2537 58.32 87.6937 58.4267C87.8403 58.48 87.9737 58.5067 88.1337 58.5467C88.747 58.6667 89.347 58.6933 89.907 58.64C90.0537 58.6133 90.187 58.6 90.3203 58.5733C90.347 58.5733 90.3737 58.56 90.4003 58.56C91.227 58.4 92.0003 59.0133 92.0003 59.8667Z" fill="#1696BB"/>
<path d="M297.223 88.7273H298.275L300.746 94.7642H300.831L303.303 88.7273H304.354V96H303.53V90.4744H303.459L301.187 96H300.391L298.118 90.4744H298.047V96H297.223V88.7273ZM306.546 98.0455C306.404 98.0455 306.277 98.0336 306.166 98.0099C306.055 97.9886 305.978 97.9673 305.935 97.946L306.148 97.2074C306.352 97.2595 306.532 97.2784 306.688 97.2642C306.844 97.25 306.983 97.1802 307.104 97.0547C307.227 96.9316 307.339 96.7315 307.441 96.4545L307.597 96.0284L305.58 90.5455H306.489L307.995 94.892H308.052L309.557 90.5455H310.467L308.151 96.7955C308.047 97.0772 307.918 97.3104 307.764 97.495C307.61 97.6821 307.431 97.8205 307.228 97.9105C307.027 98.0005 306.799 98.0455 306.546 98.0455ZM314.499 96V88.7273H316.956C317.527 88.7273 317.993 88.8303 318.355 89.0362C318.72 89.2398 318.99 89.5156 319.165 89.8636C319.34 90.2116 319.428 90.5999 319.428 91.0284C319.428 91.4569 319.34 91.8464 319.165 92.1967C318.992 92.5471 318.725 92.8265 318.362 93.0348C318 93.2408 317.536 93.3438 316.97 93.3438H315.209V92.5625H316.942C317.333 92.5625 317.646 92.495 317.883 92.3601C318.12 92.2251 318.291 92.0429 318.398 91.8132C318.507 91.5812 318.561 91.3196 318.561 91.0284C318.561 90.7372 318.507 90.4768 318.398 90.2472C318.291 90.0175 318.119 89.8376 317.88 89.7074C317.64 89.5748 317.323 89.5085 316.928 89.5085H315.38V96H314.499ZM320.733 96V90.5455H321.543V91.3693H321.599C321.699 91.0994 321.879 90.8804 322.139 90.7124C322.4 90.5443 322.693 90.4602 323.02 90.4602C323.081 90.4602 323.158 90.4614 323.251 90.4638C323.343 90.4661 323.413 90.4697 323.46 90.4744V91.3267C323.432 91.3196 323.367 91.3089 323.265 91.2947C323.165 91.2782 323.06 91.2699 322.949 91.2699C322.684 91.2699 322.447 91.3255 322.239 91.4368C322.033 91.5457 321.869 91.6972 321.748 91.8913C321.63 92.0831 321.571 92.3021 321.571 92.5483V96H320.733ZM326.503 96.1136C326.011 96.1136 325.579 95.9964 325.207 95.7621C324.838 95.5277 324.549 95.1998 324.341 94.7784C324.135 94.357 324.032 93.8646 324.032 93.3011C324.032 92.733 324.135 92.237 324.341 91.8132C324.549 91.3894 324.838 91.0604 325.207 90.826C325.579 90.5916 326.011 90.4744 326.503 90.4744C326.996 90.4744 327.427 90.5916 327.796 90.826C328.168 91.0604 328.457 91.3894 328.663 91.8132C328.871 92.237 328.975 92.733 328.975 93.3011C328.975 93.8646 328.871 94.357 328.663 94.7784C328.457 95.1998 328.168 95.5277 327.796 95.7621C327.427 95.9964 326.996 96.1136 326.503 96.1136ZM326.503 95.3608C326.878 95.3608 327.185 95.2649 327.427 95.0732C327.668 94.8814 327.847 94.6293 327.963 94.3168C328.079 94.0043 328.137 93.6657 328.137 93.3011C328.137 92.9366 328.079 92.5968 327.963 92.282C327.847 91.9671 327.668 91.7126 327.427 91.5185C327.185 91.3243 326.878 91.2273 326.503 91.2273C326.129 91.2273 325.822 91.3243 325.58 91.5185C325.339 91.7126 325.16 91.9671 325.044 92.282C324.928 92.5968 324.87 92.9366 324.87 93.3011C324.87 93.6657 324.928 94.0043 325.044 94.3168C325.16 94.6293 325.339 94.8814 325.58 95.0732C325.822 95.2649 326.129 95.3608 326.503 95.3608ZM332.683 90.5455V91.2557H329.743V90.5455H332.683ZM330.624 96V89.7926C330.624 89.4801 330.697 89.2197 330.844 89.0114C330.991 88.803 331.181 88.6468 331.416 88.5426C331.65 88.4384 331.897 88.3864 332.158 88.3864C332.364 88.3864 332.532 88.4029 332.662 88.4361C332.792 88.4692 332.889 88.5 332.953 88.5284L332.712 89.2528C332.669 89.2386 332.61 89.2209 332.534 89.1996C332.461 89.1783 332.364 89.1676 332.243 89.1676C331.966 89.1676 331.766 89.2375 331.643 89.3771C331.522 89.5168 331.462 89.7216 331.462 89.9915V96H330.624ZM333.858 96V90.5455H334.696V96H333.858ZM334.284 89.6364C334.121 89.6364 333.98 89.5807 333.861 89.4695C333.745 89.3582 333.687 89.2244 333.687 89.0682C333.687 88.9119 333.745 88.7782 333.861 88.6669C333.98 88.5556 334.121 88.5 334.284 88.5C334.447 88.5 334.587 88.5556 334.703 88.6669C334.821 88.7782 334.881 88.9119 334.881 89.0682C334.881 89.2244 334.821 89.3582 334.703 89.4695C334.587 89.5807 334.447 89.6364 334.284 89.6364ZM337.069 88.7273V96H336.231V88.7273H337.069ZM340.891 96.1136C340.365 96.1136 339.912 95.9976 339.531 95.7656C339.152 95.5312 338.86 95.2045 338.654 94.7855C338.45 94.3641 338.348 93.8741 338.348 93.3153C338.348 92.7566 338.45 92.2642 338.654 91.8381C338.86 91.4096 339.146 91.0758 339.513 90.8366C339.882 90.5952 340.313 90.4744 340.806 90.4744C341.09 90.4744 341.37 90.5218 341.647 90.6165C341.924 90.7112 342.176 90.8651 342.404 91.0781C342.631 91.2888 342.812 91.5682 342.947 91.9162C343.082 92.2642 343.149 92.6927 343.149 93.2017V93.5568H338.945V92.8324H342.297C342.297 92.5246 342.236 92.25 342.112 92.0085C341.992 91.767 341.819 91.5765 341.594 91.4368C341.371 91.2971 341.109 91.2273 340.806 91.2273C340.472 91.2273 340.183 91.3101 339.939 91.4759C339.698 91.6392 339.512 91.8523 339.382 92.1151C339.251 92.3778 339.186 92.6596 339.186 92.9602V93.4432C339.186 93.8551 339.257 94.2043 339.399 94.4908C339.544 94.7749 339.744 94.9915 340 95.1406C340.255 95.2874 340.552 95.3608 340.891 95.3608C341.111 95.3608 341.31 95.33 341.487 95.2685C341.667 95.2045 341.822 95.1098 341.953 94.9844C342.083 94.8565 342.184 94.6979 342.255 94.5085L343.064 94.7358C342.979 95.0104 342.836 95.2519 342.634 95.4602C342.433 95.6662 342.185 95.8272 341.889 95.9432C341.593 96.0568 341.26 96.1136 340.891 96.1136Z" fill="#1696BB"/>
<g filter="url(#filter0_d_3889_6212)">
<circle cx="321" cy="42" r="36" fill="#1696BB"/>
</g>
<path d="M321 28.6667C317.507 28.6667 314.667 31.5067 314.667 35.0001C314.667 38.4267 317.347 41.2001 320.84 41.3201C320.947 41.3067 321.054 41.3067 321.134 41.3201C321.16 41.3201 321.174 41.3201 321.2 41.3201C321.214 41.3201 321.214 41.3201 321.227 41.3201C324.64 41.2001 327.32 38.4267 327.334 35.0001C327.334 31.5067 324.494 28.6667 321 28.6667Z" fill="white"/>
<path d="M327.773 44.8666C324.053 42.3866 317.987 42.3866 314.24 44.8666C312.547 45.9999 311.613 47.5333 311.613 49.1733C311.613 50.8133 312.547 52.3333 314.227 53.4533C316.093 54.7066 318.547 55.3333 321 55.3333C323.453 55.3333 325.907 54.7066 327.773 53.4533C329.453 52.3199 330.387 50.7999 330.387 49.1466C330.373 47.5066 329.453 45.9866 327.773 44.8666Z" fill="white"/>
<defs>
<filter id="filter0_d_3889_6212" x="269" y="0" width="104" height="104" filterUnits="userSpaceOnUse" color-interpolation-filters="sRGB">
<feFlood flood-opacity="0" result="BackgroundImageFix"/>
<feColorMatrix in="SourceAlpha" type="matrix" values="0 0 0 0 0 0 0 0 0 0 0 0 0 0 0 0 0 0 127 0" result="hardAlpha"/>
<feOffset dy="10"/>
<feGaussianBlur stdDeviation="8"/>
<feComposite in2="hardAlpha" operator="out"/>
<feColorMatrix type="matrix" values="0 0 0 0 0.0862745 0 0 0 0 0.588235 0 0 0 0 0.733333 0 0 0 0.4 0"/>
<feBlend mode="normal" in2="BackgroundImageFix" result="effect1_dropShadow_3889_6212"/>
<feBlend mode="normal" in="SourceGraphic" in2="effect1_dropShadow_3889_6212" result="shape"/>
</filter>
</defs>
</svg>
