<svg width="12" height="20" viewBox="0 0 12 20" fill="none" xmlns="http://www.w3.org/2000/svg">
<path fill-rule="evenodd" clip-rule="evenodd" d="M11.2667 16.942L4.32492 10L11.2667 3.05822C11.4355 2.8923 11.5699 2.69456 11.6619 2.47644C11.754 2.25832 11.8019 2.02413 11.8029 1.78738C11.804 1.55064 11.7581 1.31604 11.668 1.09712C11.5779 0.878193 11.4453 0.679289 11.2779 0.511885C11.1105 0.344481 10.9116 0.211893 10.6926 0.121775C10.4737 0.031657 10.2391 -0.0142059 10.0024 -0.0131663C9.76562 -0.0121267 9.53143 0.0357948 9.31331 0.127832C9.09518 0.219869 8.89745 0.354199 8.73153 0.523066L1.00754 8.24686C-0.127733 9.42451 0.022189 10.7679 1.00418 11.7499L8.73141 19.4771C9.0686 19.8084 9.52301 19.9931 9.99573 19.9911C10.4684 19.989 10.9212 19.8003 11.2555 19.466C11.5897 19.1317 11.7785 18.679 11.7805 18.2063C11.7826 17.7335 11.5979 17.2791 11.2666 16.9419L11.2667 16.942Z" fill="black"/>
</svg>
