<svg width="16" height="20" viewBox="0 0 16 20" fill="none" xmlns="http://www.w3.org/2000/svg">
<path d="M5.99884 19.1667C4.48509 19.1667 2.97176 18.5904 1.81926 17.4379C-0.485326 15.1334 -0.485326 11.3834 1.81926 9.07877L8.85634 2.04169C10.4672 0.430439 13.0888 0.430439 14.7001 2.04169C16.3113 3.65294 16.3113 6.27419 14.7001 7.88544L7.76717 14.8184C7.29509 15.2909 6.66717 15.5509 5.99884 15.5509C5.33051 15.5509 4.70301 15.2904 4.23051 14.8184C3.75801 14.3463 3.49801 13.7179 3.49801 13.05C3.49801 12.3821 3.75842 11.7542 4.23051 11.2817L9.90217 5.61002C10.2272 5.28461 10.7555 5.28461 11.0805 5.61002C11.4059 5.93544 11.4059 6.46294 11.0805 6.78836L5.40884 12.46C5.25134 12.6175 5.16467 12.8271 5.16467 13.05C5.16467 13.2729 5.25134 13.4821 5.40884 13.64C5.72426 13.955 6.27343 13.955 6.58843 13.64L13.5218 6.70711C13.9872 6.24127 14.2438 5.62211 14.2438 4.96377C14.2438 4.30544 13.9872 3.68627 13.5218 3.22044C13.0559 2.75502 12.4368 2.49836 11.7784 2.49836C11.1201 2.49836 10.5009 2.75502 10.0351 3.22044L2.99759 10.2575C2.19592 11.0592 1.75467 12.125 1.75467 13.2588C1.75467 14.3925 2.19592 15.4584 2.99759 16.26C3.79926 17.0617 4.86509 17.5029 5.99884 17.5029C7.13259 17.5029 8.19842 17.0613 9.00009 16.26L11.6509 13.6092C11.9759 13.2838 12.5043 13.2838 12.8293 13.6092C13.1547 13.9346 13.1547 14.4621 12.8293 14.7875L10.1784 17.4384C9.02634 18.5909 7.51259 19.1667 5.99884 19.1667Z" fill="#B6B6B6"/>
</svg>
