<svg width="390" height="876" viewBox="0 0 390 876" fill="none" xmlns="http://www.w3.org/2000/svg">
<path d="M0 -1H390V890H0V-1Z" fill="url(#paint0_linear_1905_5137)"/>
<g opacity="0.2">
<mask id="mask0_1905_5137" style="mask-type:alpha" maskUnits="userSpaceOnUse" x="-4" y="-136" width="408" height="549">
<rect x="-3.87695" y="413" width="548.415" height="407.508" transform="rotate(-90 -3.87695 413)" fill="url(#paint1_linear_1905_5137)"/>
</mask>
<g mask="url(#mask0_1905_5137)">
<path d="M423.388 397.213L418.767 386.045L407.6 390.666L396.433 386.045L391.813 397.213L380.646 401.833L385.266 413L386.575 413L382.211 402.495L392.731 398.131L397.08 387.626L407.6 391.975L418.12 387.626L422.469 398.131L432.974 402.495L428.625 413L429.934 413L434.555 401.833L423.388 397.213Z" fill="white"/>
<path d="M363.187 11.0746L347.4 4.52788L331.612 11.0746L320.445 38.0292L347.4 49.1963L374.354 38.0292L363.187 11.0746ZM322.011 37.382L332.53 12.0078L347.4 5.85229L362.269 12.0078L372.789 37.382L347.4 47.8869L322.011 37.382Z" fill="white"/>
<path d="M391.978 23.0095L369.479 13.6936L378.794 36.1934L388.11 32.3255L391.978 23.0095ZM371.706 15.906L390.413 23.6567L387.207 31.4075L379.457 34.6131L371.706 15.906Z" fill="white"/>
<path d="M393.829 -35.3544L366.875 -24.1873L360.328 -8.39987L366.875 7.38756L393.829 18.5547L404.997 -8.39988L393.829 -35.3544ZM367.793 6.46953L361.638 -8.39987L367.793 -23.2693L393.182 -33.7892L403.687 -8.39988L393.182 16.9895L367.793 6.46953Z" fill="white"/>
<path d="M302.807 23.0095L306.674 32.3255L315.99 36.1934L325.306 13.6936L302.807 23.0095ZM307.593 31.4075L304.387 23.6567L323.094 15.9059L315.343 34.6131L307.593 31.4075Z" fill="white"/>
<path d="M287.201 -2.10929L277.885 20.3905L287.201 24.2583L296.517 20.3905L287.201 -2.10929ZM279.45 19.7433L287.201 1.03614L294.951 19.7433L287.201 22.949L279.45 19.7433Z" fill="white"/>
<path d="M300.971 -35.3544L289.804 -8.39987L300.971 18.5547L327.925 7.38756L334.472 -8.39988L327.925 -24.1873L300.971 -35.3544ZM333.163 -8.39988L327.007 6.46953L301.633 16.9895L291.113 -8.39987L301.618 -33.7742L326.992 -23.2542L333.163 -8.39988Z" fill="white"/>
<path d="M-13.8003 219.472L1.98712 212.925L13.1542 185.971L-13.8003 174.804L-40.7549 185.971L-29.5878 212.925L-13.8003 219.472ZM-39.1746 186.618L-13.8003 176.113L11.574 186.633L1.06907 212.007L-13.8003 218.163L-28.6697 212.007L-39.1746 186.618Z" fill="white"/>
<path d="M334.216 4.78369L347.4 -0.679466L360.583 4.78369L355.12 -8.40012L360.583 -21.5839L347.4 -16.1208L334.216 -21.5839L339.679 -8.40012L334.216 4.78369ZM347.4 -14.8114L358.356 -19.3565L353.811 -8.40012L358.356 2.55628L347.4 -1.98881L336.443 2.55628L340.988 -8.40012L336.443 -19.3565L347.4 -14.8114Z" fill="white"/>
<path d="M30.7927 321.391L26.9249 312.075L17.6089 308.207L8.29297 330.707L30.7927 321.391ZM26.0068 312.993L29.2125 320.743L10.5053 328.494L18.2561 309.787L26.0068 312.993Z" fill="white"/>
<path d="M14.991 283.284L-7.50879 292.6L14.991 301.916L18.8588 292.6L14.991 283.284ZM-4.36334 292.6L14.3438 284.849L17.5495 292.6L14.3438 300.351L-4.36334 292.6Z" fill="white"/>
<path d="M-0.857423 352.8L5.68933 368.587L32.6439 379.754L43.7959 352.8L32.6288 325.845L5.67428 337.012L-0.857423 352.8ZM42.4866 352.8L31.9666 378.174L6.59233 367.669L0.436878 352.8L6.59233 337.93L31.9666 327.426L42.4866 352.8Z" fill="white"/>
<path d="M378.794 67.4216L369.479 89.9214L391.978 80.6054L388.11 71.2895L378.794 67.4216ZM390.413 79.9432L371.706 87.694L379.457 68.9868L387.207 72.1925L390.413 79.9432Z" fill="white"/>
<path d="M376.19 42.4839L353.69 51.7998L376.19 61.1157L380.058 51.7998L376.19 42.4839ZM356.836 51.7998L375.543 44.049L378.749 51.7998L375.543 59.5505L356.836 51.7998Z" fill="white"/>
<path d="M393.829 85.0455L366.875 96.2126L360.328 112L366.875 127.787L393.829 138.955L404.997 112L393.829 85.0455ZM367.793 126.869L361.638 112L367.793 97.1306L393.182 86.6257L403.687 112L393.182 137.374L367.793 126.869Z" fill="white"/>
<path d="M391.978 143.409L369.479 134.094L378.794 156.593L388.11 152.725L391.978 143.409ZM371.706 136.306L390.413 144.057L387.207 151.807L379.457 155.013L371.706 136.306Z" fill="white"/>
<path d="M363.187 131.475L347.4 124.928L331.612 131.475L320.445 158.429L347.4 169.596L374.354 158.429L363.187 131.475ZM322.011 157.782L332.53 132.408L347.4 126.252L362.269 132.408L372.789 157.782L347.4 168.287L322.011 157.782Z" fill="white"/>
<path d="M30.7927 384.209L8.29297 374.893L17.6089 397.393L26.9249 393.525L30.7927 384.209ZM10.5053 377.106L29.2125 384.856L26.0068 392.607L18.2561 395.813L10.5053 377.106Z" fill="white"/>
<path d="M-7.50879 413L-4.36334 413L14.3438 405.249L17.5495 413L18.8588 413L14.991 403.684L-7.50879 413Z" fill="white"/>
<path d="M-13.8003 410.396L13.1542 399.229L1.98712 372.275L-13.8003 365.743L-29.5878 372.275L-40.7549 399.229L-13.8003 410.396ZM-28.6697 373.193L-13.8003 367.037L1.06907 373.193L11.574 398.582L-13.8003 409.087L-39.1746 398.582L-28.6697 373.193Z" fill="white"/>
<path d="M302.807 143.409L306.674 152.725L315.99 156.593L325.306 134.094L302.807 143.409ZM307.593 151.807L304.387 144.057L323.094 136.306L315.343 155.013L307.593 151.807Z" fill="white"/>
<path d="M-13.8003 289.997L13.1542 278.829L1.98712 251.875L-13.8003 245.328L-29.5878 251.875L-40.7549 278.829L-13.8003 289.997ZM-28.6697 252.793L-13.8003 246.638L1.06907 252.793L11.574 278.167L-13.8003 288.687L-39.1746 278.182L-28.6697 252.793Z" fill="white"/>
<path d="M287.2 118.291L277.884 140.791L287.2 144.659L296.516 140.791L287.2 118.291ZM279.449 140.144L287.2 121.437L294.95 140.144L287.2 143.349L279.449 140.144Z" fill="white"/>
<path d="M300.971 85.0455L289.804 112L300.971 138.955L327.925 127.787L334.472 112L327.925 96.2126L300.971 85.0455ZM333.163 112L327.007 126.869L301.633 137.374L291.113 112L301.618 86.6257L326.992 97.1306L333.163 112Z" fill="white"/>
<path d="M26.9249 273.125L30.7927 263.809L8.29297 254.493L17.6089 276.993L26.9249 273.125ZM29.2125 264.457L26.0068 272.207L18.2561 275.413L10.5053 256.706L29.2125 264.457Z" fill="white"/>
<path d="M334.216 125.184L347.4 119.72L360.583 125.184L355.12 112L360.583 98.816L347.4 104.279L334.216 98.816L339.679 112L334.216 125.184ZM347.4 105.573L358.356 101.028L353.811 111.985L358.356 122.941L347.4 118.396L336.443 122.941L340.988 111.985L336.443 101.028L347.4 105.573Z" fill="white"/>
<path d="M302.987 36.0124L298.367 24.8453L287.2 29.4656L276.033 24.8453L271.412 36.0124L260.245 40.6327L264.865 51.7998L260.245 62.9669L271.412 67.5873L276.033 78.7544L287.2 74.134L298.367 78.7544L302.987 67.5873L314.154 62.9669L309.534 51.7998L314.154 40.6327L302.987 36.0124ZM308.225 51.7998L312.574 62.3047L302.054 66.6542L297.705 77.1741L287.185 72.8247L276.68 77.1741L272.33 66.6542L261.81 62.3047L266.16 51.7998L261.81 41.2799L272.33 36.9304L276.68 26.4105L287.185 30.7599L297.705 26.4105L302.054 36.9304L312.574 41.2799L308.225 51.7998Z" fill="white"/>
<path d="M347.4 54.4039L320.445 65.5709L331.612 92.5255L347.4 99.0723L363.187 92.5255L374.354 65.5709L347.4 54.4039ZM362.269 91.6074L347.4 97.7629L332.53 91.6075L322.011 66.2331L347.4 55.7132L372.789 66.2331L362.269 91.6074Z" fill="white"/>
<path d="M318.595 61.1157L341.095 51.7998L318.595 42.4839L314.742 51.7998L318.595 61.1157ZM337.964 51.7998L319.257 59.5505L316.052 51.7998L319.257 44.049L337.964 51.7998Z" fill="white"/>
<path d="M287.2 79.3414L277.884 83.2092L287.2 105.709L296.516 83.2092L287.2 79.3414ZM287.2 102.564L279.449 83.8564L287.2 80.6507L294.95 83.8564L287.2 102.564Z" fill="white"/>
<path d="M306.674 71.2748L302.807 80.5908L325.306 89.9067L315.99 67.407L306.674 71.2748ZM304.387 79.9436L307.593 72.1929L315.343 68.9872L323.094 87.6944L304.387 79.9436Z" fill="white"/>
<path d="M62.1873 397.213L57.567 386.045L46.3999 390.666L35.2328 386.045L30.6124 397.213L19.4453 401.833L24.0657 413L25.375 413L21.0256 402.495L31.5305 398.131L35.8799 387.626L46.3999 391.975L56.9048 387.626L61.2693 398.131L71.7742 402.495L67.4247 413L68.7341 413L73.3544 401.833L62.1873 397.213Z" fill="white"/>
<path d="M195.591 308.207L186.275 312.075L182.407 321.391L204.907 330.707L195.591 308.207ZM183.987 320.743L187.193 312.993L194.944 309.787L202.695 328.494L183.987 320.743Z" fill="white"/>
<path d="M176.116 324.01L166.8 320.142L157.484 324.01L166.8 346.509L176.116 324.01ZM166.8 321.451L174.551 324.657L166.8 343.364L159.05 324.657L166.8 321.451Z" fill="white"/>
<path d="M198.21 283.284L194.342 292.6L198.21 301.916L220.709 292.6L198.21 283.284ZM195.651 292.6L198.857 284.849L217.564 292.6L198.857 300.351L195.651 292.6Z" fill="white"/>
<path d="M227 339.857L242.788 333.31L253.955 306.356L227 295.189L200.046 306.356L211.213 333.31L227 339.857ZM201.626 307.018L227 296.513L252.375 307.033L241.87 332.407L227 338.563L212.131 332.407L201.626 307.018Z" fill="white"/>
<path d="M182.588 308.388L193.755 303.767L189.134 292.6L193.755 281.433L182.588 276.813L177.967 265.646L166.8 270.266L155.633 265.646L151.013 276.813L139.846 281.433L144.466 292.6L139.846 303.767L151.013 308.388L155.633 319.555L166.8 314.934L177.967 319.555L182.588 308.388ZM156.28 317.974L151.931 307.47L141.426 303.12L145.775 292.615L141.426 282.095L151.931 277.746L156.28 267.241L166.785 271.59L177.29 267.241L181.64 277.746L192.144 282.095L187.795 292.615L192.144 303.12L181.64 307.47L177.29 317.974L166.785 313.625L156.28 317.974Z" fill="white"/>
<path d="M240.184 365.984L234.721 352.8L240.184 339.616L227 345.079L213.816 339.616L219.28 352.8L213.816 365.984L227 360.521L240.184 365.984ZM216.044 363.756L220.589 352.8L216.044 341.844L227 346.389L237.957 341.844L233.411 352.8L237.957 363.756L227 359.211L216.044 363.756Z" fill="white"/>
<path d="M378.794 187.807L369.479 210.307L391.978 200.991L388.11 191.675L378.794 187.807ZM390.413 200.344L371.706 208.094L379.457 189.387L387.207 192.593L390.413 200.344Z" fill="white"/>
<path d="M-0.857423 232.4L5.68933 248.187L32.6439 259.354L43.811 232.4L32.6439 205.445L5.68933 216.612L-0.857423 232.4ZM42.4866 232.4L31.9666 257.774L6.59233 247.269L0.436878 232.4L6.59233 217.531L31.9666 207.026L42.4866 232.4Z" fill="white"/>
<path d="M376.19 162.884L353.69 172.2L376.19 181.516L380.058 172.2L376.19 162.884ZM356.836 172.2L375.543 164.449L378.749 172.2L375.543 179.951L356.836 172.2Z" fill="white"/>
<path d="M14.991 162.884L-7.50879 172.2L14.991 181.516L18.8588 172.2L14.991 162.884ZM-4.36334 172.2L14.3438 164.449L17.5495 172.2L14.3438 179.951L-4.36334 172.2Z" fill="white"/>
<path d="M393.829 205.445L366.875 216.612L360.328 232.4L366.875 248.187L393.829 259.354L404.997 232.4L393.829 205.445ZM367.793 247.269L361.638 232.4L367.793 217.531L393.182 207.026L403.687 232.4L393.182 257.774L367.793 247.269Z" fill="white"/>
<path d="M207.525 368.587L214.072 352.8L207.525 337.012L180.57 325.845L169.403 352.8L180.57 379.754L207.525 368.587ZM181.218 327.426L206.592 337.93L212.747 352.8L206.592 367.669L181.218 378.174L170.713 352.8L181.218 327.426Z" fill="white"/>
<path d="M30.7927 200.991L26.9249 191.675L17.6089 187.807L8.29297 210.307L30.7927 200.991ZM26.0068 192.593L29.2125 200.344L10.5053 208.094L18.2561 189.387L26.0068 192.593Z" fill="white"/>
<path d="M166.8 359.091L157.484 381.591L166.8 385.458L176.116 381.591L166.8 359.091ZM159.05 380.943L166.8 362.236L174.551 380.943L166.8 384.149L159.05 380.943Z" fill="white"/>
<path d="M391.978 263.809L369.479 254.493L378.794 276.993L388.11 273.125L391.978 263.809ZM371.706 256.706L390.413 264.457L387.207 272.207L379.457 275.413L371.706 256.706Z" fill="white"/>
<path d="M363.187 251.874L347.4 245.328L331.612 251.874L320.445 278.829L347.4 289.996L374.354 278.829L363.187 251.874ZM322.011 278.182L332.53 252.808L347.4 246.652L362.269 252.808L372.789 278.182L347.4 288.687L322.011 278.182Z" fill="white"/>
<path d="M195.591 397.393L204.907 374.893L182.407 384.209L186.275 393.525L195.591 397.393ZM183.987 384.856L202.695 377.106L194.944 395.813L187.193 392.607L183.987 384.856Z" fill="white"/>
<path d="M194.342 413L195.651 413L198.857 405.249L217.564 413L220.709 413L198.21 403.684L194.342 413Z" fill="white"/>
<path d="M302.807 263.809L306.674 273.125L315.99 276.993L325.306 254.493L302.807 263.809ZM307.593 272.207L304.387 264.457L323.094 256.706L315.343 275.413L307.593 272.207Z" fill="white"/>
<path d="M227 410.396L253.955 399.229L242.788 372.275L227 365.743L211.213 372.275L200.046 399.229L227 410.396ZM212.131 373.193L227 367.037L241.87 373.193L252.375 398.567L227 409.087L201.626 398.582L212.131 373.193Z" fill="white"/>
<path d="M287.2 238.691L277.884 261.191L287.2 265.059L296.516 261.191L287.2 238.691ZM279.449 260.544L287.2 241.836L294.95 260.544L287.2 263.749L279.449 260.544Z" fill="white"/>
<path d="M300.971 205.445L289.804 232.4L300.971 259.354L327.925 248.187L334.472 232.4L327.925 216.612L300.971 205.445ZM333.163 232.4L327.007 247.269L301.633 257.774L291.113 232.4L301.618 207.026L326.992 217.531L333.163 232.4Z" fill="white"/>
<path d="M233.291 413L236.436 413L255.144 405.249L258.349 413L259.659 413L255.791 403.684L233.291 413Z" fill="white"/>
<path d="M-13.8003 339.857L1.98712 333.31L13.1542 306.356L-13.8003 295.204L-40.7549 306.371L-29.5878 333.325L-13.8003 339.857ZM-39.1746 307.018L-13.8003 296.513L11.574 307.033L1.06907 332.407L-13.8003 338.563L-28.6697 332.407L-39.1746 307.018Z" fill="white"/>
<path d="M334.216 245.584L347.4 240.121L360.583 245.584L355.12 232.4L360.583 219.216L347.4 224.68L334.216 219.216L339.679 232.4L334.216 245.584ZM347.4 225.974L358.356 221.429L353.811 232.385L358.356 243.342L347.4 238.796L336.443 243.342L340.988 232.385L336.443 221.429L347.4 225.974Z" fill="white"/>
<path d="M271.578 384.209L249.078 374.893L258.394 397.393L267.71 393.525L271.578 384.209ZM251.306 377.106L270.013 384.856L266.807 392.607L259.056 395.813L251.306 377.106Z" fill="white"/>
<path d="M302.987 156.413L298.367 145.246L287.2 149.866L276.033 145.246L271.412 156.413L260.245 161.033L264.865 172.2L260.245 183.367L271.412 187.988L276.033 199.155L287.2 194.534L298.367 199.155L302.987 187.988L314.154 183.367L309.534 172.2L314.154 161.033L302.987 156.413ZM308.225 172.2L312.574 182.705L302.054 187.055L297.705 197.559L287.185 193.21L276.68 197.559L272.33 187.055L261.81 182.705L266.16 172.2L261.81 161.68L272.33 157.331L276.68 146.826L287.185 151.175L297.705 146.826L302.054 157.331L312.574 161.68L308.225 172.2Z" fill="white"/>
<path d="M347.4 174.804L320.445 185.971L331.612 212.925L347.4 219.472L363.187 212.925L374.354 185.971L347.4 174.804ZM362.269 212.007L347.4 218.163L332.53 212.007L322.011 186.633L347.4 176.113L372.789 186.633L362.269 212.007Z" fill="white"/>
<path d="M318.594 181.516L341.094 172.2L318.594 162.884L314.741 172.2L318.594 181.516ZM337.963 172.2L319.256 179.951L316.051 172.2L319.256 164.449L337.963 172.2Z" fill="white"/>
<path d="M287.2 199.742L277.884 203.594L287.2 226.094L296.516 203.594L287.2 199.742ZM287.2 222.964L279.449 204.257L287.2 201.051L294.95 204.257L287.2 222.964Z" fill="white"/>
<path d="M306.674 191.675L302.807 200.991L325.306 210.307L315.99 187.807L306.674 191.675ZM304.387 200.344L307.593 192.593L315.343 189.387L323.094 208.094L304.387 200.344Z" fill="white"/>
<path d="M302.987 397.213L298.367 386.045L287.2 390.666L276.033 386.045L271.412 397.213L260.245 401.833L264.865 413L266.175 413L261.825 402.495L272.33 398.131L276.68 387.626L287.2 391.975L297.72 387.626L302.069 398.131L312.574 402.495L308.225 413L309.534 413L314.154 401.833L302.987 397.213Z" fill="white"/>
<path d="M273.429 379.754L284.596 352.8L273.429 325.845L246.474 337.012L239.928 352.8L246.474 368.587L273.429 379.754ZM241.237 352.8L247.393 337.93L272.782 327.426L283.287 352.8L272.782 378.174L247.393 367.669L241.237 352.8Z" fill="white"/>
<path d="M259.659 292.6L255.791 283.284L233.291 292.6L255.791 301.916L259.659 292.6ZM255.144 284.849L258.349 292.6L255.144 300.351L236.436 292.6L255.144 284.849Z" fill="white"/>
<path d="M267.726 312.075L258.41 308.207L249.094 330.707L271.594 321.391L267.726 312.075ZM259.057 309.787L266.808 312.993L270.013 320.743L251.306 328.494L259.057 309.787Z" fill="white"/>
<path d="M195.591 187.807L186.275 191.675L182.407 200.991L204.907 210.307L195.591 187.807ZM183.987 200.344L187.193 192.593L194.944 189.387L202.695 208.094L183.987 200.344Z" fill="white"/>
<path d="M166.8 226.109L176.116 203.609L166.8 199.756L157.484 203.609L166.8 226.109ZM174.551 204.256L166.8 222.963L159.05 204.256L166.8 201.051L174.551 204.256Z" fill="white"/>
<path d="M-13.8003 99.0723L1.98712 92.5255L13.1542 65.5709L-13.8003 54.4039L-40.7549 65.5709L-29.5878 92.5255L-13.8003 99.0723ZM-39.1746 66.2181L-13.8003 55.7132L11.574 66.2331L1.06907 91.6074L-13.8003 97.7629L-28.6697 91.6075L-39.1746 66.2181Z" fill="white"/>
<path d="M378.794 308.207L369.479 330.707L391.978 321.391L388.11 312.075L378.794 308.207ZM390.413 320.743L371.706 328.494L379.457 309.787L387.207 312.993L390.413 320.743Z" fill="white"/>
<path d="M376.19 283.284L353.69 292.6L376.19 301.916L380.058 292.6L376.19 283.284ZM356.836 292.6L375.543 284.849L378.749 292.6L375.543 300.351L356.836 292.6Z" fill="white"/>
<path d="M198.21 162.884L194.342 172.2L198.21 181.516L220.709 172.2L198.21 162.884ZM195.651 172.2L198.857 164.449L217.564 172.2L198.857 179.951L195.651 172.2Z" fill="white"/>
<path d="M393.829 379.754L404.997 352.8L393.829 325.845L366.875 337.012L360.328 352.8L366.875 368.587L393.829 379.754ZM361.638 352.8L367.793 337.93L393.182 327.426L403.687 352.8L393.182 378.174L367.793 367.669L361.638 352.8Z" fill="white"/>
<path d="M227 174.804L200.046 185.971L211.213 212.925L227 219.472L242.788 212.925L253.955 185.971L227 174.804ZM241.87 212.007L227 218.163L212.131 212.007L201.611 186.633L227 176.113L252.375 186.633L241.87 212.007Z" fill="white"/>
<path d="M151.013 187.988L155.633 199.155L166.8 194.534L177.967 199.155L182.588 187.988L193.755 183.367L189.134 172.2L193.755 161.033L182.588 156.413L177.967 145.246L166.8 149.866L155.633 145.246L151.013 156.413L139.846 161.033L144.466 172.2L139.846 183.367L151.013 187.988ZM145.775 172.2L141.426 161.68L151.931 157.331L156.28 146.826L166.785 151.175L177.29 146.826L181.64 157.331L192.144 161.68L187.795 172.2L192.144 182.705L181.64 187.055L177.29 197.559L166.785 193.21L156.28 197.559L151.931 187.055L141.426 182.705L145.775 172.2Z" fill="white"/>
<path d="M213.816 245.584L227 240.121L240.184 245.584L234.721 232.4L240.184 219.216L227 224.68L213.816 219.216L219.28 232.4L213.816 245.584ZM227 225.974L237.957 221.429L233.411 232.385L237.957 243.342L227 238.796L216.044 243.342L220.589 232.385L216.044 221.429L227 225.974Z" fill="white"/>
<path d="M391.978 384.209L369.479 374.893L378.794 397.393L388.11 393.525L391.978 384.209ZM371.706 377.106L390.413 384.856L387.207 392.607L379.457 395.813L371.706 377.106Z" fill="white"/>
<path d="M353.69 413L356.836 413L375.543 405.249L378.749 413L380.058 413L376.19 403.684L353.69 413Z" fill="white"/>
<path d="M347.4 410.396L374.354 399.229L363.187 372.275L347.4 365.743L331.612 372.275L320.445 399.229L347.4 410.396ZM332.53 373.193L347.4 367.037L362.269 373.193L372.789 398.567L347.4 409.087L322.026 398.582L332.53 373.193Z" fill="white"/>
<path d="M180.57 259.354L207.525 248.187L214.072 232.4L207.525 216.612L180.57 205.445L169.403 232.4L180.57 259.354ZM206.607 217.531L212.762 232.4L206.607 247.269L181.233 257.774L170.713 232.4L181.218 207.026L206.607 217.531Z" fill="white"/>
<path d="M166.8 265.059L176.116 261.191L166.8 238.691L157.484 261.191L166.8 265.059ZM166.8 241.836L174.551 260.544L166.8 263.749L159.05 260.544L166.8 241.836Z" fill="white"/>
<path d="M195.591 276.978L204.907 254.478L182.407 263.794L186.275 273.11L195.591 276.978ZM183.987 264.456L202.695 256.706L194.944 275.413L187.193 272.207L183.987 264.456Z" fill="white"/>
<path d="M314.741 413L316.051 413L319.256 405.249L337.963 413L341.109 413L318.594 403.684L314.741 413Z" fill="white"/>
<path d="M315.99 397.393L325.306 374.893L302.807 384.209L306.674 393.525L315.99 397.393ZM304.387 384.856L323.094 377.106L315.343 395.813L307.593 392.607L304.387 384.856Z" fill="white"/>
<path d="M287.2 359.091L277.884 381.591L287.2 385.458L296.516 381.591L287.2 359.091ZM279.449 380.943L287.2 362.236L294.95 380.943L287.2 384.149L279.449 380.943Z" fill="white"/>
<path d="M327.925 368.587L334.472 352.8L327.925 337.012L300.971 325.845L289.804 352.8L300.971 379.754L327.925 368.587ZM301.618 327.426L326.992 337.93L333.148 352.8L326.992 367.669L301.618 378.174L291.113 352.8L301.618 327.426Z" fill="white"/>
<path d="M226.999 289.997L253.954 278.829L242.787 251.875L226.999 245.328L211.212 251.875L200.045 278.829L226.999 289.997ZM212.13 252.793L226.999 246.638L241.869 252.793L252.374 278.167L226.999 288.687L201.625 278.182L212.13 252.793Z" fill="white"/>
<path d="M360.583 365.984L355.12 352.8L360.583 339.616L347.4 345.079L334.216 339.616L339.679 352.8L334.216 365.984L347.4 360.521L360.583 365.984ZM336.443 363.756L340.988 352.8L336.443 341.844L347.4 346.389L358.356 341.844L353.811 352.8L358.356 363.756L347.4 359.211L336.443 363.756Z" fill="white"/>
<path d="M302.987 276.813L298.367 265.646L287.2 270.266L276.033 265.646L271.412 276.813L260.245 281.433L264.865 292.6L260.245 303.767L271.412 308.388L276.033 319.555L287.2 314.934L298.367 319.555L302.987 308.388L314.154 303.767L309.534 292.6L314.154 281.433L302.987 276.813ZM308.225 292.6L312.574 303.105L302.054 307.454L297.705 317.959L287.185 313.61L276.68 317.959L272.33 307.454L261.81 303.105L266.16 292.6L261.81 282.08L272.33 277.731L276.68 267.226L287.185 271.575L297.705 267.226L302.054 277.731L312.574 282.08L308.225 292.6Z" fill="white"/>
<path d="M347.4 295.204L320.445 306.371L331.612 333.325L347.4 339.857L363.187 333.31L374.354 306.356L347.4 295.204ZM362.269 332.407L347.4 338.563L332.53 332.407L322.011 307.033L347.4 296.513L372.789 307.033L362.269 332.407Z" fill="white"/>
<path d="M318.594 301.916L341.094 292.6L318.594 283.284L314.741 292.6L318.594 301.916ZM337.963 292.6L319.256 300.351L316.051 292.6L319.256 284.849L337.963 292.6Z" fill="white"/>
<path d="M-13.8003 169.596L13.1542 158.429L1.98712 131.475L-13.8003 124.928L-29.5878 131.475L-40.7549 158.429L-13.8003 169.596ZM-28.6697 132.393L-13.8003 126.237L1.06907 132.393L11.574 157.767L-13.8003 168.287L-39.1746 157.782L-28.6697 132.393Z" fill="white"/>
<path d="M296.516 324.01L287.2 320.142L277.884 324.01L287.2 346.509L296.516 324.01ZM287.2 321.451L294.95 324.657L287.2 343.364L279.449 324.657L287.2 321.451Z" fill="white"/>
<path d="M315.99 308.207L306.674 312.075L302.807 321.391L325.306 330.707L315.99 308.207ZM304.387 320.743L307.593 312.993L315.343 309.787L323.094 328.494L304.387 320.743Z" fill="white"/>
<path d="M271.578 263.809L249.078 254.493L258.394 276.993L267.71 273.125L271.578 263.809ZM251.306 256.706L270.013 264.457L266.807 272.207L259.056 275.413L251.306 256.706Z" fill="white"/>
<path d="M273.429 205.445L246.474 216.612L239.928 232.4L246.474 248.187L273.429 259.354L284.596 232.4L273.429 205.445ZM247.393 247.269L241.237 232.4L247.393 217.531L272.782 207.026L283.287 232.4L272.782 257.774L247.393 247.269Z" fill="white"/>
<path d="M26.9249 152.725L30.7927 143.409L8.29297 134.094L17.6089 156.593L26.9249 152.725ZM29.2125 144.057L26.0068 151.807L18.2561 155.013L10.5053 136.306L29.2125 144.057Z" fill="white"/>
<path d="M255.791 162.884L233.291 172.2L255.791 181.516L259.659 172.2L255.791 162.884ZM236.436 172.2L255.144 164.449L258.349 172.2L255.144 179.951L236.436 172.2Z" fill="white"/>
<path d="M258.41 187.807L249.094 210.307L271.594 200.991L267.726 191.675L258.41 187.807ZM270.013 200.344L251.306 208.094L259.057 189.387L266.808 192.593L270.013 200.344Z" fill="white"/>
<path d="M195.59 67.4216L186.274 71.2895L182.406 80.6054L204.906 89.9214L195.59 67.4216ZM183.986 79.9432L187.192 72.1925L194.943 68.9868L202.694 87.694L183.986 79.9432Z" fill="white"/>
<path d="M166.8 105.709L176.116 83.2092L166.8 79.3414L157.484 83.2092L166.8 105.709ZM174.551 83.8564L166.8 102.564L159.05 83.8564L166.8 80.6507L174.551 83.8564Z" fill="white"/>
<path d="M198.21 42.4839L194.342 51.7998L198.21 61.1157L220.709 51.7998L198.21 42.4839ZM195.651 51.7998L198.857 44.049L217.564 51.7998L198.857 59.5505L195.651 51.7998Z" fill="white"/>
<path d="M227 54.4039L200.046 65.5709L211.213 92.5255L227 99.0723L242.788 92.5255L253.955 65.5709L227 54.4039ZM241.87 91.6074L227 97.7629L212.131 91.6075L201.611 66.2331L227 55.7132L252.375 66.2331L241.87 91.6074Z" fill="white"/>
<path d="M151.013 67.5873L155.633 78.7544L166.8 74.134L177.967 78.7544L182.588 67.5873L193.755 62.9669L189.134 51.7998L193.755 40.6327L182.588 36.0124L177.967 24.8453L166.8 29.4656L155.633 24.8453L151.013 36.0124L139.846 40.6327L144.466 51.7998L139.846 62.9669L151.013 67.5873ZM145.775 51.7998L141.426 41.2799L151.931 36.9304L156.28 26.4105L166.785 30.7599L177.29 26.4105L181.64 36.9304L192.144 41.2799L187.795 51.7998L192.144 62.3047L181.64 66.6542L177.29 77.1741L166.785 72.8247L156.28 77.1741L151.931 66.6542L141.426 62.3047L145.775 51.7998Z" fill="white"/>
<path d="M213.816 125.184L227 119.72L240.184 125.184L234.721 112L240.184 98.816L227 104.279L213.816 98.816L219.28 112L213.816 125.184ZM227 105.573L237.957 101.028L233.411 111.985L237.957 122.941L227 118.396L216.044 122.941L220.589 111.985L216.044 101.028L227 105.573Z" fill="white"/>
<path d="M180.57 138.955L207.525 127.787L214.072 112L207.525 96.2126L180.57 85.0455L169.403 112L180.57 138.955ZM206.607 97.1306L212.762 112L206.607 126.869L181.233 137.374L170.713 112L181.218 86.6257L206.607 97.1306Z" fill="white"/>
<path d="M-0.857423 112L5.68933 127.787L32.6439 138.955L43.811 112L32.6439 85.0455L5.68933 96.2126L-0.857423 112ZM42.4866 112L31.9666 137.374L6.59233 126.869L0.436878 112L6.59233 97.1306L31.9666 86.6257L42.4866 112Z" fill="white"/>
<path d="M14.991 42.4839L-7.50879 51.7998L14.991 61.1157L18.8588 51.7998L14.991 42.4839ZM-4.36334 51.7998L14.3438 44.049L17.5495 51.7998L14.3438 59.5505L-4.36334 51.7998Z" fill="white"/>
<path d="M166.8 144.659L176.116 140.791L166.8 118.291L157.484 140.791L166.8 144.659ZM166.8 121.437L174.551 140.144L166.8 143.349L159.05 140.144L166.8 121.437Z" fill="white"/>
<path d="M195.591 156.578L204.907 134.078L182.407 143.394L186.275 152.71L195.591 156.578ZM183.987 144.057L202.695 136.306L194.944 155.013L187.193 151.807L183.987 144.057Z" fill="white"/>
<path d="M30.7927 80.5908L26.9249 71.2748L17.6089 67.407L8.29297 89.9067L30.7927 80.5908ZM26.0068 72.1929L29.2125 79.9436L10.5053 87.6944L18.2561 68.9872L26.0068 72.1929Z" fill="white"/>
<path d="M242.788 131.475L227 124.928L211.213 131.475L200.046 158.429L227 169.596L253.955 158.429L242.788 131.475ZM201.626 157.782L212.146 132.408L227.015 126.252L241.885 132.408L252.39 157.782L227 168.287L201.626 157.782Z" fill="white"/>
<path d="M271.578 143.409L249.078 134.094L258.394 156.593L267.71 152.725L271.578 143.409ZM251.306 136.306L270.013 144.057L266.807 151.807L259.056 155.013L251.306 136.306Z" fill="white"/>
<path d="M273.429 85.0455L246.474 96.2126L239.928 112L246.474 127.787L273.429 138.955L284.596 112L273.429 85.0455ZM247.393 126.869L241.237 112L247.393 97.1306L272.782 86.6257L283.287 112L272.782 137.374L247.393 126.869Z" fill="white"/>
<path d="M255.791 42.4839L233.291 51.7998L255.791 61.1157L259.659 51.7998L255.791 42.4839ZM236.436 51.7998L255.144 44.049L258.349 51.7998L255.144 59.5505L236.436 51.7998Z" fill="white"/>
<path d="M258.409 67.4216L249.093 89.9214L271.593 80.6054L267.725 71.2895L258.409 67.4216ZM270.012 79.9432L251.305 87.694L259.056 68.9868L266.807 72.1925L270.012 79.9432Z" fill="white"/>
<path d="M213.816 4.78369L227 -0.679466L240.184 4.78369L234.721 -8.40012L240.184 -21.5839L227 -16.1208L213.816 -21.5839L219.28 -8.40012L213.816 4.78369ZM227 -14.8114L237.957 -19.3565L233.411 -8.40012L237.957 2.55628L227 -1.98881L216.044 2.55628L220.589 -8.40012L216.044 -19.3565L227 -14.8114Z" fill="white"/>
<path d="M180.57 -35.3544L169.403 -8.39987L180.57 18.5547L207.525 7.38756L214.072 -8.39988L207.525 -24.1873L180.57 -35.3544ZM212.762 -8.39988L206.607 6.46953L181.233 16.9895L170.713 -8.39987L181.218 -33.7742L206.592 -23.2542L212.762 -8.39988Z" fill="white"/>
<path d="M166.8 24.2583L176.116 20.3905L166.8 -2.10929L157.484 20.3905L166.8 24.2583ZM166.8 1.03614L174.551 19.7433L166.8 22.949L159.05 19.7433L166.8 1.03614Z" fill="white"/>
<path d="M195.591 36.1934L204.907 13.6936L182.407 23.0095L186.275 32.3255L195.591 36.1934ZM183.987 23.6567L202.695 15.9059L194.944 34.6131L187.193 31.4075L183.987 23.6567Z" fill="white"/>
<path d="M242.788 11.0746L227 4.52788L211.213 11.0746L200.046 38.0292L227 49.1963L253.955 38.0292L242.788 11.0746ZM201.626 37.382L212.146 12.0078L227.015 5.85229L241.885 12.0078L252.39 37.382L227 47.8869L201.626 37.382Z" fill="white"/>
<path d="M271.578 23.0095L249.078 13.6936L258.394 36.1934L267.71 32.3255L271.578 23.0095ZM251.306 15.906L270.013 23.6567L266.807 31.4075L259.056 34.6131L251.306 15.906Z" fill="white"/>
<path d="M273.429 -35.3544L246.474 -24.1873L239.928 -8.39987L246.474 7.38756L273.429 18.5547L284.596 -8.39988L273.429 -35.3544ZM247.393 6.46953L241.237 -8.39987L247.393 -23.2693L272.782 -33.7892L283.287 -8.39988L272.782 16.9895L247.393 6.46953Z" fill="white"/>
<path d="M153.03 18.5547L164.197 -8.39988L153.03 -35.3544L126.075 -24.1873L119.528 -8.39987L126.075 7.38756L153.03 18.5547ZM120.838 -8.39987L126.993 -23.2693L152.367 -33.7892L162.887 -8.39988L152.367 16.9895L126.993 6.46953L120.838 -8.39987Z" fill="white"/>
<path d="M-13.8003 49.1963L13.1542 38.0292L1.98712 11.0746L-13.8003 4.52788L-29.5878 11.0746L-40.7549 38.0292L-13.8003 49.1963ZM-28.6697 11.9927L-13.8003 5.83726L1.06907 11.9927L11.574 37.367L-13.8003 47.8869L-39.1746 37.382L-28.6697 11.9927Z" fill="white"/>
<path d="M26.9249 32.3255L30.7927 23.0095L8.29297 13.6936L17.6089 36.1934L26.9249 32.3255ZM29.2125 23.6567L26.0068 31.4075L18.2561 34.6131L10.5053 15.906L29.2125 23.6567Z" fill="white"/>
<path d="M147.325 32.3255L151.193 23.0095L128.693 13.6936L138.009 36.1934L147.325 32.3255ZM149.613 23.6567L146.407 31.4075L138.656 34.6131L130.906 15.906L149.613 23.6567Z" fill="white"/>
<path d="M106.6 49.1963L133.555 38.0292L122.388 11.0746L106.6 4.52788L90.8126 11.0746L79.6455 38.0292L106.6 49.1963ZM91.7306 11.9927L106.6 5.83726L121.469 11.9927L131.974 37.367L106.6 47.8869L81.2258 37.382L91.7306 11.9927Z" fill="white"/>
<path d="M-0.857423 -8.39987L5.68933 7.38756L32.6439 18.5547L43.811 -8.39988L32.6439 -35.3544L5.68933 -24.1873L-0.857423 -8.39987ZM42.4866 -8.39988L31.9666 16.9895L6.59233 6.46953L0.436878 -8.39987L6.59233 -23.2693L31.9666 -33.7892L42.4866 -8.39988Z" fill="white"/>
<path d="M75.1906 36.1934L84.5066 13.6936L62.0068 23.0095L65.8747 32.3255L75.1906 36.1934ZM63.5871 23.6567L82.2942 15.9059L74.5435 34.6131L66.7927 31.4075L63.5871 23.6567Z" fill="white"/>
<path d="M423.388 36.0124L418.767 24.8453L407.6 29.4656L396.433 24.8453L391.813 36.0124L380.646 40.6327L385.266 51.7998L380.646 62.9669L391.813 67.5873L396.433 78.7544L407.6 74.134L418.767 78.7544L423.388 67.5873L434.555 62.9669L429.934 51.7998L434.555 40.6327L423.388 36.0124ZM428.625 51.7998L432.974 62.3047L422.454 66.6542L418.105 77.1741L407.585 72.8247L397.08 77.1741L392.731 66.6542L382.211 62.3047L386.56 51.7998L382.211 41.2799L392.731 36.9304L397.08 26.4105L407.585 30.7599L418.105 26.4105L422.454 36.9304L432.974 41.2799L428.625 51.7998Z" fill="white"/>
<path d="M46.3999 24.2583L55.7159 20.3905L46.3999 -2.10929L37.084 20.3905L46.3999 24.2583ZM46.3999 1.03614L54.1507 19.7433L46.3999 22.949L38.6492 19.7433L46.3999 1.03614Z" fill="white"/>
<path d="M60.171 18.5547L87.1256 7.38756L93.6723 -8.39988L87.1256 -24.1873L60.171 -35.3544L49.0039 -8.39987L60.171 18.5547ZM86.2075 -23.2693L92.363 -8.39988L86.2075 6.46953L60.8332 16.9895L50.3133 -8.39987L60.8182 -33.7742L86.2075 -23.2693Z" fill="white"/>
<path d="M75.1906 308.207L65.8747 312.075L62.0068 321.391L84.5066 330.707L75.1906 308.207ZM63.5871 320.743L66.7927 312.993L74.5435 309.787L82.2942 328.494L63.5871 320.743Z" fill="white"/>
<path d="M37.084 324.01L46.3999 346.509L55.7159 324.01L46.3999 320.142L37.084 324.01ZM54.1507 324.657L46.3999 343.364L38.6492 324.657L46.3999 321.451L54.1507 324.657Z" fill="white"/>
<path d="M77.8093 301.916L100.309 292.6L77.8093 283.284L73.9414 292.6L77.8093 301.916ZM97.1636 292.6L78.4564 300.351L75.2508 292.6L78.4564 284.849L97.1636 292.6Z" fill="white"/>
<path d="M119.784 -21.5839L106.6 -16.1208L93.416 -21.5839L98.8792 -8.40012L93.416 4.78369L106.6 -0.679466L119.784 4.78369L114.32 -8.40012L119.784 -21.5839ZM106.6 -1.97378L95.6434 2.57131L100.189 -8.38506L95.6434 -19.3415L106.6 -14.7964L117.556 -19.3415L113.011 -8.38506L117.556 2.57131L106.6 -1.97378Z" fill="white"/>
<path d="M106.6 339.857L122.388 333.31L133.555 306.356L106.6 295.189L79.6455 306.356L90.8126 333.31L106.6 339.857ZM81.2258 307.018L106.6 296.513L131.974 307.033L121.469 332.407L106.6 338.563L91.7306 332.407L81.2258 307.018Z" fill="white"/>
<path d="M30.6124 308.388L35.2328 319.555L46.3999 314.934L57.567 319.555L62.1873 308.388L73.3544 303.767L68.7341 292.6L73.3544 281.433L62.1873 276.813L57.567 265.646L46.3999 270.266L35.2328 265.646L30.6124 276.813L19.4453 281.433L24.0657 292.6L19.4453 303.767L30.6124 308.388ZM25.375 292.6L21.0256 282.08L31.5305 277.731L35.8799 267.226L46.3999 271.575L56.9048 267.226L61.2542 277.731L71.7591 282.08L67.4247 292.6L71.7742 303.105L61.2693 307.454L56.9198 317.959L46.4149 313.61L35.91 317.959L31.5606 307.454L21.0557 303.105L25.375 292.6Z" fill="white"/>
<path d="M119.784 365.984L114.32 352.8L119.784 339.616L106.6 345.079L93.416 339.616L98.8792 352.8L93.416 365.984L106.6 360.521L119.784 365.984ZM95.6434 363.756L100.189 352.8L95.6434 341.844L106.6 346.389L117.556 341.844L113.011 352.8L117.556 363.756L106.6 359.211L95.6434 363.756Z" fill="white"/>
<path d="M87.1256 368.587L93.6723 352.8L87.1256 337.012L60.171 325.845L49.0039 352.8L60.171 379.754L87.1256 368.587ZM60.8182 327.426L86.1925 337.93L92.3479 352.8L86.1925 367.669L60.8182 378.174L50.3133 352.8L60.8182 327.426Z" fill="white"/>
<path d="M46.3999 359.091L37.084 381.591L46.3999 385.458L55.7159 381.591L46.3999 359.091ZM38.6492 380.943L46.3999 362.236L54.1507 380.943L46.3999 384.149L38.6492 380.943Z" fill="white"/>
<path d="M75.1906 397.393L84.5066 374.893L62.0068 384.209L65.8747 393.525L75.1906 397.393ZM63.5871 384.856L82.2942 377.106L74.5435 395.813L66.7927 392.607L63.5871 384.856Z" fill="white"/>
<path d="M73.9414 413L75.2508 413L78.4564 405.249L97.1636 413L100.309 413L77.8093 403.684L73.9414 413Z" fill="white"/>
<path d="M106.6 410.396L133.555 399.229L122.388 372.275L106.6 365.743L90.8126 372.275L79.6455 399.229L106.6 410.396ZM91.7306 373.193L106.6 367.037L121.469 373.193L131.974 398.567L106.6 409.087L81.2258 398.582L91.7306 373.193Z" fill="white"/>
<path d="M112.891 413L116.036 413L134.743 405.249L137.949 413L139.258 413L135.39 403.684L112.891 413Z" fill="white"/>
<path d="M151.193 384.209L128.693 374.893L138.009 397.393L147.325 393.525L151.193 384.209ZM130.906 377.106L149.613 384.856L146.407 392.607L138.656 395.813L130.906 377.106Z" fill="white"/>
<path d="M423.388 156.412L418.767 145.245L407.6 149.866L396.433 145.245L391.813 156.412L380.646 161.033L385.266 172.2L380.646 183.367L391.813 187.987L396.433 199.154L407.6 194.534L418.767 199.154L423.388 187.987L434.555 183.367L429.934 172.2L434.555 161.033L423.388 156.412ZM428.625 172.2L432.974 182.705L422.454 187.054L418.105 197.559L407.585 193.21L397.08 197.559L392.731 187.054L382.211 182.705L386.56 172.2L382.211 161.68L392.731 157.33L397.08 146.825L407.585 151.175L418.105 146.825L422.454 157.33L432.974 161.68L428.625 172.2Z" fill="white"/>
<path d="M182.588 397.213L177.967 386.045L166.8 390.666L155.633 386.045L151.013 397.213L139.846 401.833L144.466 413L145.775 413L141.426 402.495L151.931 398.131L156.28 387.626L166.8 391.975L177.305 387.626L181.67 398.131L192.175 402.495L187.825 413L189.134 413L193.755 401.833L182.588 397.213Z" fill="white"/>
<path d="M153.03 379.754L164.197 352.8L153.03 325.845L126.075 337.012L119.528 352.8L126.075 368.587L153.03 379.754ZM120.838 352.8L126.993 337.93L152.367 327.426L162.887 352.8L152.367 378.174L126.993 367.669L120.838 352.8Z" fill="white"/>
<path d="M135.39 283.284L112.891 292.6L135.39 301.916L139.258 292.6L135.39 283.284ZM116.036 292.6L134.743 284.849L137.949 292.6L134.743 300.351L116.036 292.6Z" fill="white"/>
<path d="M147.325 312.075L138.009 308.207L128.693 330.707L151.193 321.391L147.325 312.075ZM138.656 309.787L146.407 312.993L149.613 320.743L130.906 328.494L138.656 309.787Z" fill="white"/>
<path d="M151.193 80.5908L147.325 71.2748L138.009 67.407L128.693 89.9067L151.193 80.5908ZM146.407 72.1929L149.613 79.9436L130.906 87.6944L138.656 68.9872L146.407 72.1929Z" fill="white"/>
<path d="M135.39 42.4839L112.891 51.7998L135.39 61.1157L139.258 51.7998L135.39 42.4839ZM116.036 51.7998L134.743 44.049L137.949 51.7998L134.743 59.5505L116.036 51.7998Z" fill="white"/>
<path d="M153.03 138.955L164.197 112L153.03 85.0455L126.075 96.2126L119.528 112L126.075 127.787L153.03 138.955ZM120.838 112L126.993 97.1306L152.367 86.6257L162.887 112L152.367 137.374L126.993 126.869L120.838 112Z" fill="white"/>
<path d="M62.0215 200.991L84.5212 210.307L75.2053 187.807L65.8893 191.675L62.0215 200.991ZM82.2938 208.094L63.5867 200.344L66.7923 192.593L74.5431 189.387L82.2938 208.094Z" fill="white"/>
<path d="M46.3999 226.109L55.7159 203.609L46.3999 199.741L37.084 203.594L46.3999 226.109ZM54.1507 204.256L46.3999 222.963L38.6492 204.256L46.3999 201.051L54.1507 204.256Z" fill="white"/>
<path d="M77.8093 181.516L100.309 172.2L77.8093 162.884L73.9414 172.2L77.8093 181.516ZM97.1636 172.2L78.4564 179.951L75.2508 172.2L78.4564 164.449L97.1636 172.2Z" fill="white"/>
<path d="M90.8126 212.925L106.6 219.472L122.388 212.925L133.555 185.971L106.6 174.804L79.6455 185.971L90.8126 212.925ZM131.974 186.618L121.469 211.992L106.6 218.148L91.7306 211.992L81.2258 186.618L106.6 176.113L131.974 186.618Z" fill="white"/>
<path d="M30.6124 187.988L35.2328 199.155L46.3999 194.534L57.567 199.155L62.1873 187.988L73.3544 183.367L68.7341 172.2L73.3544 161.033L62.1873 156.413L57.567 145.246L46.3999 149.866L35.2328 145.246L30.6124 156.413L19.4453 161.033L24.0657 172.2L19.4453 183.367L30.6124 187.988ZM25.375 172.2L21.0256 161.68L31.5305 157.331L35.8799 146.826L46.3848 151.175L56.8897 146.826L61.2392 157.331L71.7441 161.68L67.3946 172.2L71.7441 182.705L61.2392 187.055L56.8897 197.559L46.3848 193.21L35.8799 197.559L31.5305 187.055L21.0256 182.705L25.375 172.2Z" fill="white"/>
<path d="M423.388 276.813L418.767 265.646L407.6 270.266L396.433 265.646L391.813 276.813L380.646 281.433L385.266 292.6L380.646 303.767L391.813 308.388L396.433 319.555L407.6 314.934L418.767 319.555L423.388 308.388L434.555 303.767L429.934 292.6L434.555 281.433L423.388 276.813ZM428.625 292.6L432.974 303.105L422.454 307.454L418.105 317.959L407.585 313.61L397.08 317.959L392.731 307.454L382.211 303.105L386.56 292.6L382.211 282.08L392.731 277.731L397.08 267.226L407.585 271.575L418.105 267.226L422.454 277.731L432.974 282.08L428.625 292.6Z" fill="white"/>
<path d="M119.784 219.216L106.6 224.68L93.416 219.216L98.8792 232.4L93.416 245.584L106.6 240.121L119.784 245.584L114.32 232.4L119.784 219.216ZM106.6 238.811L95.6434 243.357L100.189 232.4L95.6434 221.444L106.6 225.989L117.556 221.444L113.011 232.4L117.556 243.357L106.6 238.811Z" fill="white"/>
<path d="M60.171 259.354L87.1256 248.187L93.6723 232.4L87.1256 216.612L60.171 205.445L49.0039 232.4L60.171 259.354ZM86.2075 217.531L92.363 232.4L86.2075 247.269L60.8332 257.774L50.3133 232.4L60.8182 207.026L86.2075 217.531Z" fill="white"/>
<path d="M46.3999 265.059L55.7159 261.191L46.3999 238.691L37.084 261.191L46.3999 265.059ZM46.3999 241.836L54.1507 260.544L46.3999 263.749L38.6492 260.544L46.3999 241.836Z" fill="white"/>
<path d="M75.1906 276.978L84.5066 254.478L62.0068 263.794L65.8747 273.11L75.1906 276.978ZM63.5871 264.456L82.2942 256.706L74.5435 275.413L66.7927 272.207L63.5871 264.456Z" fill="white"/>
<path d="M147.325 152.725L151.193 143.409L128.693 134.094L138.009 156.593L147.325 152.725ZM149.613 144.057L146.407 151.807L138.656 155.013L130.906 136.306L149.613 144.057Z" fill="white"/>
<path d="M106.6 289.997L133.555 278.829L122.388 251.875L106.6 245.328L90.8126 251.875L79.6455 278.829L106.6 289.997ZM91.7306 252.793L106.6 246.638L121.469 252.793L131.974 278.167L106.6 288.687L81.2258 278.182L91.7306 252.793Z" fill="white"/>
<path d="M106.6 169.596L133.555 158.429L122.388 131.475L106.6 124.928L90.8126 131.475L79.6455 158.429L106.6 169.596ZM91.7306 132.393L106.6 126.237L121.469 132.393L131.974 157.767L106.6 168.287L81.2258 157.782L91.7306 132.393Z" fill="white"/>
<path d="M147.325 273.125L151.193 263.809L128.693 254.493L138.009 276.993L147.325 273.125ZM149.613 264.457L146.407 272.207L138.656 275.413L130.906 256.706L149.613 264.457Z" fill="white"/>
<path d="M153.03 259.354L164.197 232.4L153.03 205.445L126.075 216.612L119.528 232.4L126.075 248.187L153.03 259.354ZM120.838 232.4L126.993 217.531L152.367 207.026L162.887 232.4L152.367 257.774L126.993 247.269L120.838 232.4Z" fill="white"/>
<path d="M135.39 162.884L112.891 172.2L135.39 181.516L139.258 172.2L135.39 162.884ZM116.036 172.2L134.743 164.449L137.949 172.2L134.743 179.951L116.036 172.2Z" fill="white"/>
<path d="M151.193 200.991L147.325 191.675L138.009 187.807L128.693 210.307L151.193 200.991ZM146.407 192.593L149.613 200.344L130.906 208.094L138.656 189.387L146.407 192.593Z" fill="white"/>
<path d="M75.1906 156.578L84.5066 134.078L62.0068 143.394L65.8747 152.71L75.1906 156.578ZM63.5871 144.057L82.2942 136.306L74.5435 155.013L66.7927 151.807L63.5871 144.057Z" fill="white"/>
<path d="M62.0215 80.5908L84.5212 89.9067L75.2053 67.407L65.8893 71.2748L62.0215 80.5908ZM82.2938 87.6944L63.5867 79.9436L66.7923 72.1929L74.5431 68.9872L82.2938 87.6944Z" fill="white"/>
<path d="M46.3999 105.709L55.7159 83.2092L46.3999 79.3414L37.084 83.2092L46.3999 105.709ZM54.1507 83.8564L46.3999 102.564L38.6492 83.8564L46.3999 80.6507L54.1507 83.8564Z" fill="white"/>
<path d="M77.8093 61.1157L100.309 51.7998L77.8093 42.4839L73.9414 51.7998L77.8093 61.1157ZM97.1636 51.7998L78.4564 59.5505L75.2508 51.7998L78.4564 44.049L97.1636 51.7998Z" fill="white"/>
<path d="M46.3999 144.659L55.7159 140.791L46.3999 118.291L37.084 140.791L46.3999 144.659ZM46.3999 121.437L54.1507 140.144L46.3999 143.349L38.6492 140.144L46.3999 121.437Z" fill="white"/>
<path d="M60.171 138.955L87.1256 127.787L93.6723 112L87.1256 96.2126L60.171 85.0455L49.0039 112L60.171 138.955ZM86.2075 97.1306L92.363 112L86.2075 126.869L60.8332 137.374L50.3133 112L60.8182 86.6257L86.2075 97.1306Z" fill="white"/>
<path d="M90.8126 92.5255L106.6 99.0723L122.388 92.5255L133.555 65.5709L106.6 54.4039L79.6455 65.5709L90.8126 92.5255ZM131.974 66.2181L121.469 91.5924L106.6 97.7479L91.7306 91.5924L81.2258 66.2181L106.6 55.7132L131.974 66.2181Z" fill="white"/>
<path d="M30.6124 67.5873L35.2328 78.7544L46.3999 74.134L57.567 78.7544L62.1873 67.5873L73.3544 62.9669L68.7341 51.7998L73.3544 40.6327L62.1873 36.0124L57.567 24.8453L46.3999 29.4656L35.2328 24.8453L30.6124 36.0124L19.4453 40.6327L24.0657 51.7998L19.4453 62.9669L30.6124 67.5873ZM25.375 51.7998L21.0256 41.2799L31.5305 36.9304L35.8799 26.4105L46.3848 30.7599L56.8897 26.4105L61.2392 36.9304L71.7441 41.2799L67.3946 51.7998L71.7441 62.3047L61.2392 66.6542L56.8897 77.1741L46.3848 72.8247L35.8799 77.1741L31.5305 66.6542L21.0256 62.3047L25.375 51.7998Z" fill="white"/>
<path d="M119.784 98.816L106.6 104.279L93.416 98.816L98.8792 112L93.416 125.184L106.6 119.72L119.784 125.184L114.32 112L119.784 98.816ZM106.6 118.426L95.6434 122.971L100.189 112.015L95.6434 101.058L106.6 105.604L117.556 101.058L113.011 112.015L117.556 122.971L106.6 118.426Z" fill="white"/>
</g>
</g>
<defs>
<linearGradient id="paint0_linear_1905_5137" x1="-0.000932714" y1="-506.108" x2="1095.21" y2="115.57" gradientUnits="userSpaceOnUse">
<stop stop-color="#1696BB"/>
<stop offset="1" stop-color="#00B707"/>
</linearGradient>
<linearGradient id="paint1_linear_1905_5137" x1="544.538" y1="572.762" x2="-83.5923" y2="552.585" gradientUnits="userSpaceOnUse">
<stop stop-color="#D9D9D9"/>
<stop offset="1" stop-color="#D9D9D9" stop-opacity="0"/>
</linearGradient>
</defs>
</svg>
