<svg width="32" height="33" viewBox="0 0 32 33" fill="none" xmlns="http://www.w3.org/2000/svg">
<g clip-path="url(#clip0_175_1200)">
<path d="M21.2731 10.4019C27.1161 10.3127 31.8851 14.9115 31.9982 20.754C32.0149 21.6118 31.9291 22.4468 31.7525 23.2476C31.4534 24.6037 31.2755 25.9836 31.2755 27.3723V30.0566C31.2755 30.4678 30.9422 30.8012 30.5309 30.8012H27.8467C26.458 30.8012 25.0781 30.979 23.722 31.2781C22.9212 31.4547 22.0863 31.5405 21.2284 31.5239C15.386 31.4108 10.7871 26.6419 10.8763 20.7991C10.9632 15.096 15.5701 10.489 21.2731 10.4019Z" fill="url(#paint0_linear_175_1200)"/>
<path d="M21.2731 10.4019C27.1161 10.3127 31.8851 14.9115 31.9982 20.754C32.0149 21.6118 31.9291 22.4468 31.7525 23.2476C31.4534 24.6037 31.2755 25.9836 31.2755 27.3723V30.0566C31.2755 30.4678 30.9422 30.8012 30.5309 30.8012H27.8467C26.458 30.8012 25.0781 30.979 23.722 31.2781C22.9212 31.4547 22.0863 31.5405 21.2284 31.5239C15.386 31.4108 10.7871 26.6419 10.8763 20.7991C10.9632 15.096 15.5701 10.489 21.2731 10.4019Z" fill="#0BAA56"/>
<path d="M13.0686 0.762787C5.95026 0.654037 0.140335 6.25659 0.00245995 13.3745C-0.0177275 14.4194 0.0867098 15.4367 0.301959 16.4123C0.666334 18.0643 0.882958 19.7455 0.882958 21.4373V24.7074C0.882958 25.2084 1.28908 25.6146 1.79014 25.6146H5.06026C6.75201 25.6146 8.43319 25.8312 10.0853 26.1956C11.0609 26.4108 12.0781 26.5153 13.1231 26.4951C20.2408 26.3572 25.8433 20.5475 25.7348 13.4293C25.6288 6.48134 20.0165 0.868849 13.0686 0.762787Z" fill="url(#paint1_linear_175_1200)"/>
<path d="M8.26191 12.9398C7.89842 12.5536 7.38392 12.311 6.81154 12.311C5.71073 12.311 4.81836 13.2034 4.81836 14.3042C4.81836 14.8765 5.06086 15.391 5.44717 15.7546L9.74679 20.0542C10.1103 20.4405 10.6248 20.683 11.1972 20.683C12.298 20.683 13.1903 19.7906 13.1903 18.6898C13.1903 18.1175 12.9478 17.603 12.5615 17.2395L8.26191 12.9398Z" fill="url(#paint2_linear_175_1200)"/>
<path d="M6.81154 16.2969C7.91235 16.2969 8.80473 15.4045 8.80473 14.3037C8.80473 13.2029 7.91235 12.3105 6.81154 12.3105C5.71074 12.3105 4.81836 13.2029 4.81836 14.3037C4.81836 15.4045 5.71074 16.2969 6.81154 16.2969Z" fill="white"/>
<path d="M13.8986 12.9398C13.5351 12.5536 13.0206 12.311 12.4483 12.311C11.3475 12.311 10.4551 13.2034 10.4551 14.3042C10.4551 14.8765 10.6976 15.391 11.0839 15.7546L15.3835 20.0542C15.7471 20.4405 16.2616 20.683 16.8339 20.683C17.9347 20.683 18.8271 19.7906 18.8271 18.6898C18.8271 18.1175 18.5845 17.603 18.1983 17.2395L13.8986 12.9398Z" fill="url(#paint3_linear_175_1200)"/>
<path d="M12.4483 16.2969C13.5491 16.2969 14.4414 15.4045 14.4414 14.3037C14.4414 13.2029 13.5491 12.3105 12.4483 12.3105C11.3475 12.3105 10.4551 13.2029 10.4551 14.3037C10.4551 15.4045 11.3475 16.2969 12.4483 16.2969Z" fill="white"/>
<path d="M19.5354 12.9398C19.1719 12.5536 18.6574 12.311 18.085 12.311C16.9842 12.311 16.0918 13.2034 16.0918 14.3042C16.0918 14.8765 16.3344 15.391 16.7206 15.7546L21.0202 20.0542C21.3838 20.4405 21.8983 20.683 22.4706 20.683C23.5714 20.683 24.4638 19.7906 24.4638 18.6898C24.4638 18.1175 24.2212 17.603 23.835 17.2395L19.5354 12.9398Z" fill="url(#paint4_linear_175_1200)"/>
<path d="M18.085 16.2969C19.1858 16.2969 20.0782 15.4045 20.0782 14.3037C20.0782 13.2029 19.1858 12.3105 18.085 12.3105C16.9842 12.3105 16.0918 13.2029 16.0918 14.3037C16.0918 15.4045 16.9842 16.2969 18.085 16.2969Z" fill="white"/>
</g>
<defs>
<linearGradient id="paint0_linear_175_1200" x1="19.3054" y1="18.8317" x2="34.8131" y2="34.3394" gradientUnits="userSpaceOnUse">
<stop stop-color="#A7F3CE"/>
<stop offset="1" stop-color="#61DB99"/>
</linearGradient>
<linearGradient id="paint1_linear_175_1200" x1="8.16682" y1="11.549" x2="24.5398" y2="27.922" gradientUnits="userSpaceOnUse">
<stop stop-color="#62E1FB"/>
<stop offset="1" stop-color="#00A2F3"/>
</linearGradient>
<linearGradient id="paint2_linear_175_1200" x1="11.2454" y1="18.7385" x2="2.6248" y2="10.1181" gradientUnits="userSpaceOnUse">
<stop stop-color="#00A2F3" stop-opacity="0"/>
<stop offset="1" stop-color="#0075CD"/>
</linearGradient>
<linearGradient id="paint3_linear_175_1200" x1="16.8817" y1="18.7383" x2="8.26139" y2="10.1179" gradientUnits="userSpaceOnUse">
<stop stop-color="#00A2F3" stop-opacity="0"/>
<stop offset="1" stop-color="#0075CD"/>
</linearGradient>
<linearGradient id="paint4_linear_175_1200" x1="22.5184" y1="18.7384" x2="13.8981" y2="10.118" gradientUnits="userSpaceOnUse">
<stop stop-color="#00A2F3" stop-opacity="0"/>
<stop offset="1" stop-color="#0075CD"/>
</linearGradient>
<clipPath id="clip0_175_1200">
<rect width="32" height="32" fill="white" transform="translate(0 0.143555)"/>
</clipPath>
</defs>
</svg>
