<svg width="16" height="16" viewBox="0 0 16 16" fill="none" xmlns="http://www.w3.org/2000/svg">
<g clip-path="url(#clip0_749_13796)">
<path d="M8 0C3.58866 0 0 3.58866 0 8C0 12.4113 3.58866 16 8 16C12.4113 16 16 12.4113 16 8C16 3.58866 12.4113 0 8 0ZM11.4988 10.3676C11.8113 10.6801 11.8113 11.1867 11.4988 11.4992C11.3426 11.6551 11.1379 11.7332 10.9332 11.7332C10.7285 11.7332 10.5238 11.655 10.3676 11.4992L8 9.13125L5.63244 11.4992C5.47619 11.6551 5.2715 11.7332 5.06681 11.7332C4.86212 11.7332 4.65744 11.6551 4.50119 11.4992C4.18869 11.1867 4.18869 10.6801 4.50119 10.3676L6.86875 8L4.50119 5.63244C4.18869 5.31994 4.18869 4.81328 4.50119 4.50078C4.81369 4.18866 5.31994 4.18866 5.63244 4.50078L8 6.86875L10.3676 4.50078C10.6801 4.18866 11.1863 4.18866 11.4988 4.50078C11.8113 4.81328 11.8113 5.31994 11.4988 5.63244L9.13125 8L11.4988 10.3676Z" fill="#55B059"/>
</g>
<defs>
<clipPath id="clip0_749_13796">
<rect width="16" height="16" fill="white"/>
</clipPath>
</defs>
</svg>
