<svg width="40" height="40" viewBox="0 0 40 40" fill="none" xmlns="http://www.w3.org/2000/svg">
<path d="M32.3933 15.8034C31.8458 10.0994 27.0967 5.62402 21.2501 5.62402C16.726 5.62402 12.8521 8.30914 11.0669 12.1619C10.5293 11.9906 9.96923 11.8744 9.37546 11.8744C6.269 11.8744 3.75016 14.3945 3.75016 17.4997C3.75016 18.1173 3.87392 18.7011 4.05767 19.2549C1.64133 20.6638 0 23.2502 0 26.2479C0 30.7357 3.63772 34.3734 8.12555 34.3734V34.3759H30.6257V34.3734C35.806 34.3734 40 30.1769 40 24.9978C40 20.4275 36.7247 16.631 32.3933 15.8034ZM24.7253 23.0002H22.5001V28.0155C22.5001 28.7067 21.9426 29.268 21.2501 29.268H18.7499C18.06 29.268 17.4999 28.7067 17.4999 28.0155V23.0002H15.2735C13.9159 23.0002 13.3621 22.0938 14.0396 20.9888L18.7662 16.3298C19.6925 15.4048 20.2787 15.3736 21.2338 16.3298L25.9604 20.9888C26.6404 22.0951 26.0829 23.0002 24.7253 23.0002Z" fill="#B6B6B6"/>
</svg>
