<svg width="16" height="16" viewBox="0 0 16 16" fill="none" xmlns="http://www.w3.org/2000/svg">
<path d="M8 16C12.4183 16 16 12.4183 16 8C16 3.58172 12.4183 0 8 0C3.58172 0 0 3.58172 0 8C0 12.4183 3.58172 16 8 16Z" fill="#00BA00"/>
<path fill-rule="evenodd" clip-rule="evenodd" d="M5.5029 11.9018L2.57705 8.77031C2.17648 8.34158 2.19947 7.66328 2.6282 7.26272C3.05692 6.86215 3.73522 6.8852 4.13579 7.31387L6.39267 9.72936L9.96501 6.3916C9.99714 6.36155 10.0307 6.33402 10.0654 6.3087L11.7454 4.73913C12.1741 4.33856 12.8524 4.36161 13.253 4.79034C13.6535 5.219 13.6305 5.89736 13.2018 6.29793L8.07084 11.0919L8.06536 11.0861L6.2905 12.7444L5.5029 11.9018Z" fill="white"/>
</svg>
