<svg width="36" height="34" viewBox="0 0 36 34" fill="none" xmlns="http://www.w3.org/2000/svg">
<g filter="url(#filter0_d_2197_2797)">
<path d="M18.904 23.6094C19.2704 23.6946 19.3039 24.1744 18.9471 24.2933L16.8405 24.9867C11.5471 26.6933 8.76046 25.2667 7.04046 19.9733L5.33379 14.7067C3.62712 9.41335 5.04045 6.61335 10.3338 4.90668L11.3711 4.56315C11.774 4.42974 12.1617 4.83212 12.0393 5.23846C11.9272 5.61042 11.8221 6.0065 11.7205 6.42668L10.4138 12.0134C8.94712 18.2934 11.0938 21.76 17.3738 23.2534L18.904 23.6094Z" fill="white"/>
<path d="M24.8939 1.27999L22.6672 0.759991C18.2139 -0.293343 15.5606 0.573324 14.0006 3.79999C13.6006 4.61332 13.2806 5.59999 13.0139 6.73332L11.7072 12.32C10.4006 17.8933 12.1206 20.64 17.6806 21.96L19.9206 22.4933C20.6939 22.68 21.4139 22.8 22.0806 22.8533C26.2406 23.2533 28.4539 21.3067 29.5739 16.4933L30.8806 10.92C32.1872 5.34666 30.4806 2.58666 24.8939 1.27999ZM22.3872 14.7733C22.2672 15.2267 21.8672 15.52 21.4139 15.52C21.3339 15.52 21.2539 15.5067 21.1606 15.4933L17.2806 14.5067C16.7472 14.3733 16.4272 13.8267 16.5606 13.2933C16.6939 12.76 17.2406 12.44 17.7739 12.5733L21.6539 13.56C22.2006 13.6933 22.5206 14.24 22.3872 14.7733ZM26.2939 10.2667C26.1739 10.72 25.7739 11.0133 25.3206 11.0133C25.2406 11.0133 25.1606 11 25.0672 10.9867L18.6006 9.34666C18.0672 9.21332 17.7472 8.66666 17.8806 8.13332C18.0139 7.59999 18.5606 7.27999 19.0939 7.41332L25.5606 9.05332C26.1072 9.17332 26.4272 9.71999 26.2939 10.2667Z" fill="white"/>
</g>
<defs>
<filter id="filter0_d_2197_2797" x="0.648438" y="0.335266" width="34.6484" height="33.3345" filterUnits="userSpaceOnUse" color-interpolation-filters="sRGB">
<feFlood flood-opacity="0" result="BackgroundImageFix"/>
<feColorMatrix in="SourceAlpha" type="matrix" values="0 0 0 0 0 0 0 0 0 0 0 0 0 0 0 0 0 0 127 0" result="hardAlpha"/>
<feOffset dy="4"/>
<feGaussianBlur stdDeviation="2"/>
<feComposite in2="hardAlpha" operator="out"/>
<feColorMatrix type="matrix" values="0 0 0 0 0 0 0 0 0 0 0 0 0 0 0 0 0 0 0.25 0"/>
<feBlend mode="normal" in2="BackgroundImageFix" result="effect1_dropShadow_2197_2797"/>
<feBlend mode="normal" in="SourceGraphic" in2="effect1_dropShadow_2197_2797" result="shape"/>
</filter>
</defs>
</svg>
