<svg width="30" height="29" viewBox="0 0 30 29" fill="none" xmlns="http://www.w3.org/2000/svg">
<g filter="url(#filter0_d_2197_2697)">
<path d="M24.15 6.17C23.74 5.95 22.88 5.72 21.71 6.54L20.24 7.58C20.13 4.47 18.78 3.25 15.5 3.25H9.5C6.08 3.25 4.75 4.58 4.75 8V16C4.75 18.3 6 20.75 9.5 20.75H15.5C18.78 20.75 20.13 19.53 20.24 16.42L21.71 17.46C22.33 17.9 22.87 18.04 23.3 18.04C23.67 18.04 23.96 17.93 24.15 17.83C24.56 17.62 25.25 17.05 25.25 15.62V8.38C25.25 6.95 24.56 6.38 24.15 6.17ZM14 11.38C12.97 11.38 12.12 10.54 12.12 9.5C12.12 8.46 12.97 7.62 14 7.62C15.03 7.62 15.88 8.46 15.88 9.5C15.88 10.54 15.03 11.38 14 11.38Z" fill="white"/>
</g>
<defs>
<filter id="filter0_d_2197_2697" x="0.75" y="3.25" width="28.5" height="25.5" filterUnits="userSpaceOnUse" color-interpolation-filters="sRGB">
<feFlood flood-opacity="0" result="BackgroundImageFix"/>
<feColorMatrix in="SourceAlpha" type="matrix" values="0 0 0 0 0 0 0 0 0 0 0 0 0 0 0 0 0 0 127 0" result="hardAlpha"/>
<feOffset dy="4"/>
<feGaussianBlur stdDeviation="2"/>
<feComposite in2="hardAlpha" operator="out"/>
<feColorMatrix type="matrix" values="0 0 0 0 0 0 0 0 0 0 0 0 0 0 0 0 0 0 0.25 0"/>
<feBlend mode="normal" in2="BackgroundImageFix" result="effect1_dropShadow_2197_2697"/>
<feBlend mode="normal" in="SourceGraphic" in2="effect1_dropShadow_2197_2697" result="shape"/>
</filter>
</defs>
</svg>
