<svg width="32" height="38" viewBox="0 0 32 38" fill="none" xmlns="http://www.w3.org/2000/svg">
<g filter="url(#filter0_d_725_5644)">
<path d="M27.3337 21.3333V24.6667C27.3337 27.24 25.2403 29.3333 22.667 29.3333H9.33366C6.76033 29.3333 4.66699 27.24 4.66699 24.6667V23.8C4.66699 21.7067 6.37366 20 8.46699 20H26.0003C26.7337 20 27.3337 20.6 27.3337 21.3333Z" fill="white"/>
<path d="M20.667 2.66669H11.3337C6.00033 2.66669 4.66699 4.00002 4.66699 9.33335V19.44C5.68033 18.5467 7.01366 18 8.46699 18H26.0003C26.7337 18 27.3337 17.4 27.3337 16.6667V9.33335C27.3337 4.00002 26.0003 2.66669 20.667 2.66669ZM17.3337 14.3334H10.667C10.1203 14.3334 9.66699 13.88 9.66699 13.3334C9.66699 12.7867 10.1203 12.3334 10.667 12.3334H17.3337C17.8803 12.3334 18.3337 12.7867 18.3337 13.3334C18.3337 13.88 17.8803 14.3334 17.3337 14.3334ZM21.3337 9.66669H10.667C10.1203 9.66669 9.66699 9.21335 9.66699 8.66669C9.66699 8.12002 10.1203 7.66669 10.667 7.66669H21.3337C21.8803 7.66669 22.3337 8.12002 22.3337 8.66669C22.3337 9.21335 21.8803 9.66669 21.3337 9.66669Z" fill="white"/>
</g>
<defs>
<filter id="filter0_d_725_5644" x="0.666992" y="2.66669" width="30.667" height="34.6666" filterUnits="userSpaceOnUse" color-interpolation-filters="sRGB">
<feFlood flood-opacity="0" result="BackgroundImageFix"/>
<feColorMatrix in="SourceAlpha" type="matrix" values="0 0 0 0 0 0 0 0 0 0 0 0 0 0 0 0 0 0 127 0" result="hardAlpha"/>
<feOffset dy="4"/>
<feGaussianBlur stdDeviation="2"/>
<feComposite in2="hardAlpha" operator="out"/>
<feColorMatrix type="matrix" values="0 0 0 0 0 0 0 0 0 0 0 0 0 0 0 0 0 0 0.25 0"/>
<feBlend mode="normal" in2="BackgroundImageFix" result="effect1_dropShadow_725_5644"/>
<feBlend mode="normal" in="SourceGraphic" in2="effect1_dropShadow_725_5644" result="shape"/>
</filter>
</defs>
</svg>
