<svg width="20" height="20" viewBox="0 0 20 20" fill="none" xmlns="http://www.w3.org/2000/svg">
<g clip-path="url(#clip0_3802_6094)">
<path d="M10.0007 7.27246C8.49615 7.27246 7.27344 8.49517 7.27344 9.99974C7.27344 11.5043 8.49615 12.727 10.0007 12.727C11.5053 12.727 12.728 11.5043 12.728 9.99974C12.728 8.49517 11.5052 7.27246 10.0007 7.27246Z" fill="#B6B6B6"/>
<path d="M10 3.18213C5.45455 3.18213 1.57274 6.00938 0 10.0003C1.57274 13.9912 5.45455 16.8185 10 16.8185C14.55 16.8185 18.4273 13.9912 20 10.0003C18.4273 6.00938 14.55 3.18213 10 3.18213ZM10 14.5457C7.49093 14.5457 5.45455 12.5094 5.45455 10.0003C5.45455 7.49118 7.49093 5.45484 10 5.45484C12.5091 5.45484 14.5455 7.49122 14.5455 10.0003C14.5455 12.5094 12.5091 14.5457 10 14.5457Z" fill="#B6B6B6"/>
</g>
<defs>
<clipPath id="clip0_3802_6094">
<rect width="20" height="20" fill="white"/>
</clipPath>
</defs>
</svg>
