<svg width="17" height="16" viewBox="0 0 17 16" fill="none" xmlns="http://www.w3.org/2000/svg">
<g clip-path="url(#clip0_222_2322)">
<path d="M12.0796 9.06792C14.1519 6.99627 14.1519 3.62542 12.0796 1.55377C10.0072 -0.517922 6.63537 -0.517922 4.56302 1.55377C2.49071 3.62542 2.49071 6.99627 4.56302 9.06792C5.44021 9.94483 6.55024 10.4504 7.69596 10.585V12.3638H6.4454C6.10005 12.3638 5.82012 12.6437 5.82012 12.9889C5.82012 13.3341 6.10005 13.614 6.4454 13.614H7.69596V15.3749C7.69599 15.7201 7.97593 16 8.3213 16C8.66665 16 8.94659 15.7201 8.94659 15.3749V13.614H10.1972C10.5425 13.614 10.8225 13.3341 10.8225 12.9889C10.8225 12.6437 10.5425 12.3638 10.1972 12.3638H8.94659V10.585C10.0923 10.4504 11.2024 9.94483 12.0796 9.06792ZM5.44734 8.18389C3.86262 6.59967 3.86262 4.02198 5.44734 2.43777C7.03202 0.853609 9.61049 0.853516 11.1953 2.43777C12.78 4.02198 12.78 6.59967 11.1953 8.18389C9.61055 9.76808 7.03205 9.76808 5.44734 8.18389Z" fill="black"/>
</g>
<defs>
<clipPath id="clip0_222_2322">
<rect width="16" height="16" fill="white" transform="translate(0.321289)"/>
</clipPath>
</defs>
</svg>
