<svg width="12" height="10" viewBox="0 0 12 10" fill="none" xmlns="http://www.w3.org/2000/svg">
<path d="M11.8165 4.61306L6.3165 0.113063C6.16751 -0.00944467 5.96051 -0.034429 5.7855 0.048071C5.6115 0.131063 5.50001 0.307079 5.50001 0.500063L5.50001 3.94507L0.816492 0.113063C0.666984 -0.00944467 0.4605 -0.034429 0.285492 0.048071C0.111492 0.131063 0 0.307079 0 0.500063L0 9.50006C0 9.69307 0.111492 9.86906 0.285492 9.95205C0.354 9.98405 0.4275 10.0001 0.499992 10.0001C0.6135 10.0001 0.725484 9.96155 0.816492 9.88706L5.49998 6.05506V9.50006C5.49998 9.69307 5.61148 9.86906 5.78548 9.95205C5.85398 9.98405 5.92748 10.0001 5.99998 10.0001C6.11348 10.0001 6.22547 9.96155 6.31648 9.88706L11.8165 5.38706C11.9325 5.29207 12 5.15006 12 5.00006C12 4.85006 11.9325 4.70808 11.8165 4.61306Z" fill="white"/>
</svg>
