<svg width="70" height="70" viewBox="0 0 70 70" fill="none" xmlns="http://www.w3.org/2000/svg">
<circle cx="35" cy="35" r="35" fill="url(#paint0_linear_79_782)"/>
<path d="M38.3337 30.5835C37.6503 30.5835 37.0837 30.0168 37.0837 29.3335V18.0835H26.667C23.217 18.0835 20.417 20.8835 20.417 24.3335V47.6668C20.417 51.1168 23.217 53.9168 26.667 53.9168H43.3337C46.7837 53.9168 49.5837 51.1168 49.5837 47.6668V30.5835H38.3337ZM28.3337 28.0835H31.667C32.3503 28.0835 32.917 28.6502 32.917 29.3335C32.917 30.0168 32.3503 30.5835 31.667 30.5835H28.3337C27.6503 30.5835 27.0837 30.0168 27.0837 29.3335C27.0837 28.6502 27.6503 28.0835 28.3337 28.0835ZM41.667 43.9168H28.3337C27.6503 43.9168 27.0837 43.3502 27.0837 42.6668C27.0837 41.9835 27.6503 41.4168 28.3337 41.4168H41.667C42.3503 41.4168 42.917 41.9835 42.917 42.6668C42.917 43.3502 42.3503 43.9168 41.667 43.9168ZM41.667 37.2502H28.3337C27.6503 37.2502 27.0837 36.6835 27.0837 36.0002C27.0837 35.3168 27.6503 34.7502 28.3337 34.7502H41.667C42.3503 34.7502 42.917 35.3168 42.917 36.0002C42.917 36.6835 42.3503 37.2502 41.667 37.2502ZM48.8503 28.0835H39.5837V18.8168L48.8503 28.0835Z" fill="white"/>
<defs>
<linearGradient id="paint0_linear_79_782" x1="70" y1="70" x2="0" y2="70" gradientUnits="userSpaceOnUse">
<stop stop-color="#08AA4D"/>
<stop offset="1" stop-color="#129C98"/>
</linearGradient>
</defs>
</svg>
