<svg width="70" height="70" viewBox="0 0 70 70" fill="none" xmlns="http://www.w3.org/2000/svg">
<path d="M70 35C70 54.33 54.33 70 35 70C15.67 70 0 54.33 0 35C0 15.67 15.67 0 35 0C54.33 0 70 15.67 70 35Z" fill="url(#paint0_linear_1915_5141)"/>
<path d="M28.805 21.082L25.2852 24.5869H28.805V21.082Z" fill="white"/>
<path d="M45.8436 39.7804V23.3349C45.8436 21.678 44.5005 20.3349 42.8436 20.3349H30.2991V25.3345C30.2991 25.7455 29.9629 26.0818 29.5518 26.0818H24.5373V45.5465C24.5373 47.2034 25.8804 48.5465 27.5373 48.5465H34.9999C37.4511 42.4259 42.7048 40.4306 45.8436 39.7804ZM29.2081 28.6751H41.1728C41.5838 28.6751 41.9201 29.0114 41.9201 29.4224C41.9201 29.8334 41.5838 30.1697 41.1728 30.1697H29.2081C28.797 30.1697 28.4607 29.8334 28.4607 29.4224C28.4607 29.0114 28.797 28.6751 29.2081 28.6751ZM29.2081 33.6149H41.1728C41.5838 33.6149 41.9201 33.9438 41.9201 34.3623C41.9201 34.7733 41.5838 35.1096 41.1728 35.1096H29.2081C28.797 35.1096 28.4607 34.7733 28.4607 34.3623C28.4607 33.9438 28.797 33.6149 29.2081 33.6149ZM29.2081 40.0419C28.797 40.0419 28.4607 39.7056 28.4607 39.2946C28.4607 38.8836 28.797 38.5473 29.2081 38.5473H41.1728C41.5838 38.5473 41.9201 38.8836 41.9201 39.2946C41.9201 39.7056 41.5838 40.0419 41.1728 40.0419H29.2081Z" fill="white"/>
<path d="M53.9995 43.5896L47.7574 38.2828V40.8634C45.3347 41.0854 37.6454 42.5001 35.5645 51.272L37.6401 51.6651C41.3781 46.0429 45.9868 45.9296 47.7574 46.1318V48.8965L53.9995 43.5896Z" fill="white"/>
<path d="M21.7543 29.8084H18.095C17.6823 29.8084 17.3477 30.143 17.3477 30.5557C17.3477 30.9684 17.6823 31.3031 18.095 31.3031H21.7543C22.167 31.3031 22.5016 30.9684 22.5016 30.5557C22.5016 30.143 22.167 29.8084 21.7543 29.8084Z" fill="white"/>
<path d="M21.7538 33.7684H16.7473C16.3346 33.7684 16 34.103 16 34.5157C16 34.9284 16.3346 35.263 16.7473 35.263H21.7538C22.1666 35.263 22.5012 34.9284 22.5012 34.5157C22.5012 34.103 22.1666 33.7684 21.7538 33.7684Z" fill="white"/>
<path d="M21.7543 37.728H18.095C17.6823 37.728 17.3477 38.0626 17.3477 38.4753C17.3477 38.888 17.6823 39.2226 18.095 39.2226H21.7543C22.167 39.2226 22.5016 38.888 22.5016 38.4753C22.5016 38.0626 22.167 37.728 21.7543 37.728Z" fill="white"/>
<path d="M21.7538 41.6879H16.7473C16.3346 41.6879 16 42.0226 16 42.4353C16 42.848 16.3346 43.1826 16.7473 43.1826H21.7538C22.1666 43.1826 22.5012 42.848 22.5012 42.4353C22.5012 42.0226 22.1666 41.6879 21.7538 41.6879Z" fill="white"/>
<defs>
<linearGradient id="paint0_linear_1915_5141" x1="70" y1="70" x2="0" y2="70" gradientUnits="userSpaceOnUse">
<stop stop-color="#08AA4D"/>
<stop offset="1" stop-color="#129C98"/>
</linearGradient>
</defs>
</svg>
