<svg width="15" height="16" viewBox="0 0 15 16" fill="none" xmlns="http://www.w3.org/2000/svg">
<g clip-path="url(#clip0_4174_6926)">
<path fill-rule="evenodd" clip-rule="evenodd" d="M2.2934 12.2137L7.49986 6.66033L12.7062 12.2137C12.8307 12.3488 12.979 12.4563 13.1425 12.5299C13.3061 12.6036 13.4818 12.6419 13.6593 12.6427C13.8369 12.6436 14.0128 12.6069 14.177 12.5348C14.3412 12.4627 14.4904 12.3566 14.616 12.2227C14.7415 12.0888 14.841 11.9296 14.9085 11.7545C14.9761 11.5794 15.0105 11.3917 15.0098 11.2023C15.009 11.0129 14.973 10.8255 14.904 10.651C14.835 10.4765 14.7342 10.3184 14.6076 10.1856L8.81474 4.00642C7.93149 3.0982 6.92397 3.21814 6.18745 4.00374L0.39206 10.1855C0.143571 10.4553 0.00502745 10.8188 0.00658383 11.197C0.00814116 11.5751 0.149672 11.9374 0.400373 12.2048C0.651073 12.4722 0.990649 12.6232 1.34519 12.6248C1.69973 12.6265 2.04053 12.4787 2.29343 12.2136L2.2934 12.2137Z" fill="black"/>
</g>
<defs>
<clipPath id="clip0_4174_6926">
<rect width="16" height="15" fill="white" transform="translate(15) rotate(90)"/>
</clipPath>
</defs>
</svg>
