<svg width="17" height="16" viewBox="0 0 17 16" fill="none" xmlns="http://www.w3.org/2000/svg">
<g clip-path="url(#clip0_222_2305)">
<path d="M16.6701 0.580729C16.6628 0.523275 16.6501 0.467936 16.6291 0.416016C16.6284 0.414714 16.6284 0.412923 16.6281 0.411296C16.6281 0.41097 16.6278 0.410645 16.6274 0.410319C16.6043 0.355632 16.5728 0.30599 16.5371 0.259928C16.5283 0.249023 16.5197 0.238281 16.5104 0.228027C16.4723 0.185059 16.431 0.145345 16.383 0.112956C16.3817 0.111979 16.38 0.111654 16.3787 0.110677C16.3324 0.0800781 16.2811 0.0569662 16.2274 0.038737C16.214 0.0340169 16.201 0.0299479 16.1873 0.0263672C16.131 0.0110677 16.0731 0 16.012 0H11.3454C10.9774 0 10.6787 0.298665 10.6787 0.666667C10.6787 1.03467 10.9774 1.33333 11.3454 1.33333H14.4023L10.4233 5.31234C9.3623 4.4637 8.05599 4 6.67871 4C3.37044 4 0.678711 6.69173 0.678711 10C0.678711 13.3083 3.37044 16 6.67871 16C9.98698 16 12.6787 13.3083 12.6787 10C12.6787 8.62337 12.2153 7.31738 11.366 6.25537L15.3454 2.27604V5.33333C15.3454 5.70133 15.644 6 16.012 6C16.38 6 16.6787 5.70133 16.6787 5.33333V0.666667C16.6787 0.652669 16.6755 0.639323 16.6746 0.625651C16.6737 0.610352 16.672 0.595703 16.6701 0.580729ZM6.67871 14.6667C4.10531 14.6667 2.01204 12.5734 2.01204 10C2.01204 7.4266 4.10531 5.33333 6.67871 5.33333C7.92464 5.33333 9.09766 5.81836 9.97966 6.69727C10.8604 7.58105 11.3454 8.75407 11.3454 10C11.3454 12.5734 9.25212 14.6667 6.67871 14.6667Z" fill="black"/>
</g>
<defs>
<clipPath id="clip0_222_2305">
<rect width="16" height="16" fill="white" transform="translate(0.678711)"/>
</clipPath>
</defs>
</svg>
