<svg width="300" height="300" viewBox="0 0 300 300" fill="none" xmlns="http://www.w3.org/2000/svg">
<mask id="mask0_3861_6114" style="mask-type:luminance" maskUnits="userSpaceOnUse" x="0" y="0" width="300" height="300">
<path d="M300 0H0V300H300V0Z" fill="white"/>
</mask>
<g mask="url(#mask0_3861_6114)">
<path d="M150 269C216.274 269 270 215.274 270 149C270 82.726 216.274 29 150 29C83.726 29 30 82.726 30 149C30 215.274 83.726 269 150 269Z" fill="#10A089"/>
<path d="M105 63.5566H197.537C206.374 63.5566 213.537 70.7196 213.537 79.5566V202.586C213.537 211.423 206.374 218.586 197.537 218.586H105C96.163 218.586 89 211.423 89 202.586V79.5566C89 70.7196 96.163 63.5566 105 63.5566Z" fill="white"/>
<path d="M104.9 83.5566H145.1C147.806 83.5566 150 85.7506 150 88.4566C150 91.1626 147.806 93.3566 145.1 93.3566H104.9C102.194 93.3566 100 91.1626 100 88.4566C100 85.7506 102.194 83.5566 104.9 83.5566Z" fill="#0BAA56"/>
<path d="M104.9 111.855H195.1C197.53 111.855 199.5 113.826 199.5 116.255C199.5 118.685 197.53 120.655 195.1 120.655H104.9C102.47 120.655 100.5 118.685 100.5 116.255C100.5 113.826 102.47 111.855 104.9 111.855Z" stroke="#0BAA56"/>
<path d="M104.9 139.156H195.1C197.806 139.156 200 141.35 200 144.056C200 146.762 197.806 148.956 195.1 148.956H104.9C102.194 148.956 100 146.762 100 144.056C100 141.35 102.194 139.156 104.9 139.156Z" fill="#0BAA56"/>
<path d="M104.9 167.455H195.1C197.53 167.455 199.5 169.425 199.5 171.855C199.5 174.285 197.53 176.255 195.1 176.255H104.9C102.47 176.255 100.5 174.285 100.5 171.855C100.5 169.425 102.47 167.455 104.9 167.455Z" stroke="#0BAA56"/>
<path d="M104.9 194.756H195.1C197.806 194.756 200 196.95 200 199.656C200 202.362 197.806 204.556 195.1 204.556H104.9C102.194 204.556 100 202.362 100 199.656C100 196.95 102.194 194.756 104.9 194.756Z" fill="#0BAA56"/>
<path d="M228.069 46.9238H288.15C290.65 46.9238 292.719 49.0636 292.719 51.7588V81.4778C292.719 84.1721 290.65 86.3128 288.15 86.3128H228.069C225.57 86.3128 223.5 84.1721 223.5 81.4778V51.7588C223.5 49.0636 225.57 46.9238 228.069 46.9238Z" fill="#0BAA56" stroke="#0BAA56"/>
<path d="M238 73C241.314 73 244 70.314 244 67C244 63.686 241.314 61 238 61C234.686 61 232 63.686 232 67C232 70.314 234.686 73 238 73Z" fill="white"/>
<path d="M258 61H278C281.314 61 284 63.686 284 67C284 70.314 281.314 73 278 73H258C254.686 73 252 70.314 252 67C252 63.686 254.686 61 258 61Z" fill="white"/>
<path fill-rule="evenodd" clip-rule="evenodd" d="M185.11 225.562C197.989 225.562 209.959 221.667 219.905 214.989L260.604 253.84L275.365 236.715L236.092 199.226C243.345 189.018 247.61 176.538 247.61 163.062C247.61 128.546 219.627 100.562 185.11 100.562C150.592 100.562 122.61 128.546 122.61 163.062C122.61 197.581 150.592 225.562 185.11 225.562ZM238.419 163.062C238.419 192.286 214.728 215.976 185.505 215.976C156.282 215.976 132.592 192.286 132.592 163.062C132.592 133.84 156.282 110.149 185.505 110.149C214.728 110.149 238.419 133.84 238.419 163.062Z" fill="#CCC6D9"/>
<path d="M185.5 217C215.6 217 240 192.823 240 163C240 133.177 215.6 109 185.5 109C155.4 109 131 133.177 131 163C131 192.823 155.4 217 185.5 217Z" fill="white" fill-opacity="0.3"/>
<path d="M194.923 163L208.112 149.862C209.348 148.562 210.025 146.835 209.999 145.047C209.974 143.259 209.248 141.552 207.976 140.287C206.704 139.023 204.986 138.301 203.187 138.276C201.388 138.251 199.65 138.923 198.342 140.151L185.124 153.289L171.935 140.151C171.3 139.484 170.537 138.95 169.691 138.58C168.845 138.211 167.933 138.014 167.009 138.001C166.085 137.988 165.168 138.159 164.312 138.504C163.456 138.85 162.678 139.362 162.024 140.012C161.371 140.661 160.855 141.434 160.508 142.285C160.16 143.136 159.988 144.048 160.001 144.967C160.014 145.885 160.212 146.791 160.584 147.632C160.955 148.473 161.493 149.231 162.165 149.862L175.376 163L162.165 176.138C161.493 176.769 160.955 177.527 160.584 178.368C160.212 179.209 160.014 180.115 160.001 181.033C159.988 181.952 160.16 182.863 160.508 183.715C160.855 184.566 161.371 185.339 162.024 185.988C162.678 186.637 163.456 187.15 164.312 187.496C165.168 187.841 166.085 188.012 167.009 187.999C167.933 187.986 168.845 187.789 169.691 187.42C170.537 187.05 171.3 186.516 171.935 185.849L185.153 172.711L198.372 185.849C199.692 187.004 201.405 187.616 203.164 187.559C204.922 187.503 206.592 186.782 207.834 185.544C209.076 184.305 209.796 182.643 209.848 180.896C209.9 179.148 209.279 177.446 208.112 176.138L194.923 163Z" fill="#EB1313"/>
<path d="M260.601 253.843L275.362 236.717L277.585 238.84C279.742 240.899 281.033 243.775 281.175 246.837C281.317 249.898 280.297 252.893 278.341 255.163C276.384 257.433 273.651 258.792 270.742 258.941C267.833 259.09 264.987 258.017 262.83 255.958L260.607 253.836L260.601 253.843Z" fill="#E1DCEB"/>
<path fill-rule="evenodd" clip-rule="evenodd" d="M56.314 91.1723C56.296 89.7463 56.117 88.3073 55.759 86.8593C54.504 81.7773 48.906 78.5143 42.948 77.7473C36.993 76.9803 30.799 78.7263 28.412 83.1473C27.047 85.6743 26.859 87.8523 27.417 89.6893C27.972 91.5163 29.29 93.0303 31.079 94.2113C36.067 97.4983 44.803 98.1693 48.789 96.7953C50.632 96.1583 52.433 95.3913 54.186 94.5133C53.184 100.259 49.448 105.702 44.462 110.607C33.626 121.268 16.812 129.36 7.65499 132.335C7.16299 132.495 6.88999 133.04 7.04299 133.554C7.19599 134.068 7.71899 134.356 8.21099 134.196C17.549 131.162 34.691 122.898 45.741 112.026C51.45 106.411 55.517 100.089 56.212 93.4433C69.117 86.2423 79.714 73.1773 88.775 62.1813C89.112 61.7763 89.067 61.1593 88.676 60.8073C88.285 60.4583 87.697 60.5023 87.36 60.9103C78.668 71.4563 68.581 84.0003 56.314 91.1723ZM54.438 92.2173C54.509 90.6143 54.358 88.9863 53.951 87.3443C52.866 82.9453 47.878 80.3443 42.72 79.6803C39.559 79.2743 36.308 79.6093 33.758 80.7993C32.155 81.5463 30.835 82.6303 30.039 84.1053C28.994 86.0403 28.768 87.6953 29.196 89.0993C29.625 90.5133 30.689 91.6493 32.075 92.5613C36.621 95.5583 44.575 96.1953 48.203 94.9433C50.342 94.2063 52.419 93.2863 54.438 92.2173Z" fill="black"/>
<path d="M285 190C288.314 190 291 187.314 291 184C291 180.686 288.314 178 285 178C281.686 178 279 180.686 279 184C279 187.314 281.686 190 285 190Z" fill="#0BAA56"/>
<path fill-rule="evenodd" clip-rule="evenodd" d="M48.3839 185.394C49.4549 184.993 50.5819 184.459 51.4509 183.686C52.4829 182.769 52.903 181.587 53.184 180.343C53.546 178.744 53.691 177.042 54.13 175.441C54.292 174.846 54.6049 174.621 54.7389 174.522C55.0779 174.27 55.4209 174.202 55.7429 174.228C56.1249 174.257 56.6499 174.409 56.9959 175.083C57.0449 175.18 57.1089 175.327 57.1519 175.528C57.1829 175.676 57.2039 176.137 57.2369 176.328C57.3199 176.797 57.3889 177.266 57.4549 177.737C57.6719 179.306 57.7969 180.639 58.4829 182.081C59.4139 184.038 60.3469 185.235 61.6119 185.766C62.8359 186.279 64.298 186.182 66.167 185.78C66.345 185.735 66.521 185.696 66.695 185.664C67.519 185.513 68.3069 186.082 68.4689 186.946C68.6309 187.809 68.1069 188.65 67.2899 188.84C67.1199 188.88 66.9519 188.917 66.7859 188.952C64.2599 189.61 61.3359 191.958 59.6369 194.014C59.1139 194.648 58.3469 196.421 57.5649 197.551C56.9879 198.386 56.339 198.935 55.794 199.13C55.429 199.261 55.1219 199.24 54.8679 199.174C54.4979 199.079 54.1919 198.868 53.9569 198.533C53.8289 198.35 53.7099 198.105 53.6529 197.791C53.6259 197.64 53.6229 197.257 53.6239 197.083C53.4639 196.506 53.2689 195.943 53.1269 195.361C52.7879 193.971 52.1229 193.092 51.3329 191.93C50.5939 190.843 49.7999 190.159 48.6359 189.614C48.4849 189.575 47.2629 189.26 46.8319 189.08C46.2019 188.815 45.901 188.371 45.792 188.132C45.607 187.727 45.5879 187.373 45.6249 187.077C45.6799 186.641 45.8659 186.268 46.1959 185.967C46.3999 185.78 46.7049 185.598 47.1139 185.509C47.4289 185.44 48.2669 185.4 48.3839 185.394ZM55.5509 183.13C55.6069 183.263 55.6679 183.396 55.7319 183.531C57.0949 186.397 58.6199 187.998 60.4739 188.774L60.5359 188.799C59.2959 189.768 58.1729 190.851 57.3159 191.889C56.9619 192.317 56.4949 193.205 55.9889 194.115C55.5299 192.545 54.7799 191.435 53.8359 190.045C53.1139 188.985 52.3589 188.187 51.4299 187.537C52.1509 187.148 52.8379 186.692 53.4369 186.16C54.4339 185.273 55.0929 184.246 55.5509 183.13Z" fill="white"/>
</g>
</svg>
