<svg width="43" height="43" viewBox="0 0 43 43" fill="none" xmlns="http://www.w3.org/2000/svg">
<path fill-rule="evenodd" clip-rule="evenodd" d="M11.0169 0H25.3932L37.5776 12.7002V37.4021C37.5776 40.4965 35.0741 43 31.9904 43H11.0169C7.92244 43 5.41895 40.4965 5.41895 37.4021V5.59793C5.41889 2.50349 7.92238 0 11.0169 0Z" fill="white"/>
<path opacity="0.302" fill-rule="evenodd" clip-rule="evenodd" d="M25.3838 0V12.6035H37.5789L25.3838 0Z" fill="#0BAA56"/>
<path d="M11.6416 32.0848V24.2305H14.9832C15.8105 24.2305 16.466 24.4561 16.9602 24.9181C17.4545 25.3694 17.7016 25.9819 17.7016 26.7447C17.7016 27.5076 17.4545 28.12 16.9602 28.5713C16.466 29.0333 15.8105 29.259 14.9832 29.259H13.6508V32.0848H11.6416ZM13.6508 27.5506H14.7576C15.0584 27.5506 15.2948 27.4861 15.456 27.3357C15.6171 27.196 15.7031 27.0026 15.7031 26.7448C15.7031 26.4869 15.6172 26.2935 15.456 26.1538C15.2948 26.0034 15.0584 25.9389 14.7576 25.9389H13.6508V27.5506ZM18.5289 32.0848V24.2305H21.3118C21.8597 24.2305 22.3755 24.3057 22.859 24.4669C23.3425 24.628 23.783 24.8537 24.1698 25.1653C24.5566 25.4661 24.8682 25.8744 25.0939 26.3902C25.3087 26.9059 25.427 27.4969 25.427 28.163C25.427 28.8185 25.3088 29.4094 25.0939 29.9251C24.8682 30.4409 24.5566 30.8492 24.1698 31.15C23.783 31.4616 23.3425 31.6872 22.859 31.8484C22.3755 32.0095 21.8597 32.0848 21.3118 32.0848H18.5289ZM20.4952 30.3764H21.0754C21.387 30.3764 21.6771 30.3442 21.9457 30.269C22.2035 30.1938 22.4507 30.0755 22.6871 29.9144C22.9127 29.7533 23.0954 29.5276 23.2243 29.2267C23.3532 28.9259 23.4177 28.5713 23.4177 28.163C23.4177 27.744 23.3532 27.3894 23.2243 27.0886C23.0954 26.7877 22.9127 26.5621 22.6871 26.4009C22.4507 26.2398 22.2036 26.1215 21.9457 26.0464C21.6771 25.9712 21.387 25.9389 21.0754 25.9389H20.4952V30.3764ZM26.437 32.0848V24.2305H32.0242V25.9389H28.4462V27.196H31.3043V28.8936H28.4462V32.0848H26.437Z" fill="#0BAA56"/>
</svg>
