<svg width="390" height="197" viewBox="0 0 390 197" fill="none" xmlns="http://www.w3.org/2000/svg">
<g opacity="0.3">
<rect x="-8.5" y="-13.6387" width="24.6868" height="140.277" stroke="#D9D9D9"/>
<rect x="91.5439" y="-13.6387" width="24.6868" height="140.277" stroke="#D9D9D9"/>
<rect x="16.5107" y="-13.6387" width="24.6868" height="140.277" stroke="#D9D9D9"/>
<rect x="116.555" y="-13.6387" width="24.6868" height="140.277" stroke="#D9D9D9"/>
<rect x="41.5215" y="-13.6387" width="24.6868" height="140.277" stroke="#D9D9D9"/>
<rect x="141.564" y="-13.6387" width="24.6868" height="140.277" stroke="#D9D9D9"/>
<rect x="66.5322" y="-13.6387" width="24.6868" height="140.277" stroke="#D9D9D9"/>
<rect x="166.575" y="-13.6387" width="24.6868" height="140.277" stroke="#D9D9D9"/>
<path d="M-8.32324 8.84424H191.425" stroke="#D9D9D9"/>
<path d="M-8.32324 32.5029H191.425" stroke="#D9D9D9"/>
<path d="M-8.32324 56.1621H191.425" stroke="#D9D9D9"/>
<path d="M-8.32324 79.8213H191.425" stroke="#D9D9D9"/>
<path d="M-8.32324 103.48H191.425" stroke="#D9D9D9"/>
</g>
<g opacity="0.3">
<rect x="-8.5" y="127.361" width="24.6868" height="140.277" stroke="#D9D9D9"/>
<rect x="91.5439" y="127.361" width="24.6868" height="140.277" stroke="#D9D9D9"/>
<rect x="16.5107" y="127.361" width="24.6868" height="140.277" stroke="#D9D9D9"/>
<rect x="116.555" y="127.361" width="24.6868" height="140.277" stroke="#D9D9D9"/>
<rect x="41.5215" y="127.361" width="24.6868" height="140.277" stroke="#D9D9D9"/>
<rect x="141.564" y="127.361" width="24.6868" height="140.277" stroke="#D9D9D9"/>
<rect x="66.5322" y="127.361" width="24.6868" height="140.277" stroke="#D9D9D9"/>
<rect x="166.575" y="127.361" width="24.6868" height="140.277" stroke="#D9D9D9"/>
<path d="M-8.32324 149.844H191.425" stroke="#D9D9D9"/>
<path d="M-8.32324 173.503H191.425" stroke="#D9D9D9"/>
<path d="M-8.32324 197.162H191.425" stroke="#D9D9D9"/>
</g>
<g opacity="0.3">
<rect x="190.737" y="-13.6387" width="24.6868" height="140.277" stroke="#D9D9D9"/>
<rect x="290.781" y="-13.6387" width="24.6868" height="140.277" stroke="#D9D9D9"/>
<rect x="215.748" y="-13.6387" width="24.6868" height="140.277" stroke="#D9D9D9"/>
<rect x="315.792" y="-13.6387" width="24.6868" height="140.277" stroke="#D9D9D9"/>
<rect x="240.759" y="-13.6387" width="24.6868" height="140.277" stroke="#D9D9D9"/>
<rect x="340.802" y="-13.6387" width="24.6868" height="140.277" stroke="#D9D9D9"/>
<rect x="265.77" y="-13.6387" width="24.6868" height="140.277" stroke="#D9D9D9"/>
<rect x="365.812" y="-13.6387" width="24.6868" height="140.277" stroke="#D9D9D9"/>
<path d="M190.914 8.84424H390.663" stroke="#D9D9D9"/>
<path d="M190.914 32.5029H390.663" stroke="#D9D9D9"/>
<path d="M190.914 56.1621H390.663" stroke="#D9D9D9"/>
<path d="M190.914 79.8213H390.663" stroke="#D9D9D9"/>
<path d="M190.914 103.48H390.663" stroke="#D9D9D9"/>
</g>
<g opacity="0.3">
<rect x="190.737" y="127.361" width="24.6868" height="140.277" stroke="#D9D9D9"/>
<rect x="290.781" y="127.361" width="24.6868" height="140.277" stroke="#D9D9D9"/>
<rect x="215.748" y="127.361" width="24.6868" height="140.277" stroke="#D9D9D9"/>
<rect x="315.792" y="127.361" width="24.6868" height="140.277" stroke="#D9D9D9"/>
<rect x="240.759" y="127.361" width="24.6868" height="140.277" stroke="#D9D9D9"/>
<rect x="340.802" y="127.361" width="24.6868" height="140.277" stroke="#D9D9D9"/>
<rect x="265.77" y="127.361" width="24.6868" height="140.277" stroke="#D9D9D9"/>
<rect x="365.812" y="127.361" width="24.6868" height="140.277" stroke="#D9D9D9"/>
<path d="M190.914 149.844H390.663" stroke="#D9D9D9"/>
<path d="M190.914 173.503H390.663" stroke="#D9D9D9"/>
<path d="M190.914 197.162H390.663" stroke="#D9D9D9"/>
</g>
</svg>
