<svg width="22" height="22" viewBox="0 0 22 22" fill="none" xmlns="http://www.w3.org/2000/svg">
<g clip-path="url(#clip0_1043_6855)">
<path fill-rule="evenodd" clip-rule="evenodd" d="M7.75859 10.9999L0.543877 18.2146C0.369577 18.3873 0.231115 18.5928 0.136441 18.8192C0.041767 19.0456 -0.00725427 19.2884 -0.00780776 19.5338C-0.00836125 19.7792 0.0395639 20.0223 0.133216 20.2491C0.226868 20.4759 0.364402 20.682 0.53792 20.8555C0.711438 21.0291 0.917523 21.1666 1.14434 21.2602C1.37116 21.3539 1.61424 21.4018 1.85963 21.4012C2.10502 21.4007 2.34788 21.3517 2.57427 21.257C2.80066 21.1623 3.00612 21.0238 3.17885 20.8495L11.2063 12.8218C12.3862 11.5978 12.2304 10.2017 11.2098 9.18107L3.17898 1.15021C2.82952 0.800778 2.35556 0.604476 1.86137 0.604492C1.36717 0.604508 0.893227 0.800841 0.543791 1.1503C0.194355 1.49976 -0.0019474 1.97372 -0.00193128 2.46791C-0.00191517 2.96211 0.194418 3.43605 0.543877 3.78549L7.75859 10.9999ZM10.51 3.78527C10.1606 3.43586 9.96434 2.96195 9.96434 2.46781C9.96434 1.97366 10.1606 1.49976 10.51 1.15034C10.8595 0.80093 11.3334 0.604632 11.8275 0.604632C12.3217 0.604632 12.7956 0.80093 13.145 1.15034L21.1758 9.1812C22.1965 10.2018 22.3522 11.598 21.1724 12.8219L13.145 20.8495C12.7956 21.1989 12.3217 21.3953 11.8275 21.3953C11.3334 21.3953 10.8595 21.1989 10.51 20.8495C10.1606 20.5001 9.96434 20.0262 9.96434 19.5321C9.96434 19.0379 10.1606 18.564 10.51 18.2146L17.7247 10.9999L10.51 3.78527Z" fill="#55B059"/>
</g>
<defs>
<clipPath id="clip0_1043_6855">
<rect width="22" height="22" fill="white"/>
</clipPath>
</defs>
</svg>
