<svg width="16" height="16" viewBox="0 0 16 16" fill="none" xmlns="http://www.w3.org/2000/svg">
<path d="M7.30374 1.38965C4.04832 1.38965 1.39648 4.04148 1.39648 7.29691C1.39648 10.5523 4.04832 13.2093 7.30374 13.2093C8.69423 13.2093 9.97305 12.722 10.9838 11.913L13.4444 14.3723C13.5685 14.4913 13.7344 14.557 13.9064 14.5552C14.0784 14.5535 14.2429 14.4844 14.3646 14.3629C14.4863 14.2413 14.5556 14.077 14.5576 13.905C14.5596 13.733 14.4941 13.567 14.3753 13.4427L11.9147 10.9821C12.7244 9.96984 13.2123 8.68901 13.2123 7.29691C13.2123 4.04148 10.5592 1.38965 7.30374 1.38965ZM7.30374 2.70268C9.84956 2.70268 11.898 4.7511 11.898 7.29691C11.898 9.84273 9.84956 11.8963 7.30374 11.8963C4.75792 11.8963 2.70949 9.84273 2.70949 7.29691C2.70949 4.7511 4.75792 2.70268 7.30374 2.70268Z" fill="white"/>
</svg>
