<svg width="20" height="20" viewBox="0 0 20 20" fill="none" xmlns="http://www.w3.org/2000/svg">
<g clip-path="url(#clip0_725_5627)">
<path d="M15 10C13.5002 10 12.1583 10.6632 11.242 11.709L8.06826 9.75571C8.23076 9.30972 8.3335 8.83521 8.3335 8.3332C8.3335 8.00522 8.28648 7.6897 8.21475 7.38271L12.4335 5.43599C13.0445 6.18149 13.9607 6.6665 15.0002 6.6665C16.8402 6.6665 18.3335 5.17402 18.3335 3.33325C18.3335 1.49248 16.84 0 15 0C13.1585 0 11.6667 1.49248 11.6667 3.33325C11.6667 3.53652 11.692 3.73276 11.726 3.92651L7.51221 5.87153C6.75298 4.84199 5.54277 4.1665 4.16675 4.1665C1.86523 4.16675 0 6.03174 0 8.33325C0 10.6348 1.86523 12.5 4.16675 12.5C5.3645 12.5 6.43726 11.9873 7.19727 11.1768L10.3663 13.1268C10.1317 13.706 10 14.3368 10 15C10 17.762 12.238 20 15 20C17.7605 20 20 17.762 20 15C20 12.238 17.7605 10 15 10Z" fill="white"/>
</g>
<defs>
<clipPath id="clip0_725_5627">
<rect width="20" height="20" fill="white"/>
</clipPath>
</defs>
</svg>
