<svg width="15" height="16" viewBox="0 0 15 16" fill="none" xmlns="http://www.w3.org/2000/svg">
<path d="M7.30602 2.92065C4.39574 2.92065 2.02734 5.36385 2.02734 8.36602C2.02734 11.3682 4.39574 13.8177 7.30602 13.8177C10.2163 13.8177 12.5847 11.3745 12.5847 8.3723C12.5847 5.37013 10.2163 2.92065 7.30602 2.92065ZM7.76265 8.16504C7.76265 8.42255 7.55564 8.63609 7.30602 8.63609C7.05639 8.63609 6.84938 8.42255 6.84938 8.16504V5.02469C6.84938 4.76718 7.05639 4.55364 7.30602 4.55364C7.55564 4.55364 7.76265 4.76718 7.76265 5.02469V8.16504Z" fill="#1B3D66"/>
<path d="M9.0649 2.16681H5.54579C5.30225 2.16681 5.10742 1.96582 5.10742 1.71459C5.10742 1.46337 5.30225 1.2561 5.54579 1.2561H9.0649C9.30844 1.2561 9.50327 1.45709 9.50327 1.70831C9.50327 1.95954 9.30844 2.16681 9.0649 2.16681Z" fill="#696E72"/>
</svg>
