<svg width="16" height="16" viewBox="0 0 16 16" fill="none" xmlns="http://www.w3.org/2000/svg">
<path d="M8 15.5C12.1421 15.5 15.5 12.1421 15.5 8C15.5 3.85786 12.1421 0.5 8 0.5C3.85786 0.5 0.5 3.85786 0.5 8C0.5 12.1421 3.85786 15.5 8 15.5Z" fill="#FF5A54"/>
<path fill-rule="evenodd" clip-rule="evenodd" d="M4.3203 11.6792C4.65361 12.0125 5.19905 12.0125 5.53236 11.6792L7.99952 9.21207L10.4667 11.6792C10.8 12.0125 11.3454 12.0125 11.6787 11.6792C12.012 11.3459 12.012 10.8005 11.6787 10.4672L9.21158 8L11.6787 5.53285C12.012 5.19954 12.012 4.65413 11.6787 4.32082C11.3454 3.9875 10.8 3.9875 10.4667 4.32082L7.99952 6.78794L5.53236 4.32079C5.19905 3.98747 4.65364 3.98747 4.32033 4.32079C3.98702 4.6541 3.98702 5.1995 4.32033 5.53282L6.78745 8L4.3203 10.4672C3.98698 10.8005 3.98698 11.3459 4.3203 11.6792Z" fill="white"/>
</svg>
